  0
SECTION
  2
HEADER
  9
$ACADVER
  1
AC1024
  9
$ACADMAINTVER
 70
6
  9
$DWGCODEPAGE
  3
ANSI_1252
  9
$LASTSAVEDBY
  1
ezdxf
  9
$INSBASE
 10
0.0
 20
0.0
 30
0.0
  9
$EXTMIN
 10
1e+20
 20
1e+20
 30
1e+20
  9
$EXTMAX
 10
-1e+20
 20
-1e+20
 30
-1e+20
  9
$LIMMIN
 10
0.0
 20
0.0
  9
$LIMMAX
 10
420.0
 20
297.0
  9
$ORTHOMODE
 70
0
  9
$REGENMODE
 70
1
  9
$FILLMODE
 70
1
  9
$QTEXTMODE
 70
0
  9
$MIRRTEXT
 70
1
  9
$LTSCALE
 40
0.4
  9
$ATTMODE
 70
1
  9
$TEXTSIZE
 40
2.5
  9
$TRACEWID
 40
1.0
  9
$TEXTSTYLE
  7
Standard
  9
$CLAYER
  8
0
  9
$CELTYPE
  6
ByLayer
  9
$CECOLOR
 62
256
  9
$CELTSCALE
 40
1.0
  9
$DISPSILH
 70
0
  9
$DIMSCALE
 40
1.0
  9
$DIMASZ
 40
2.5
  9
$DIMEXO
 40
0.625
  9
$DIMDLI
 40
3.75
  9
$DIMRND
 40
0.0
  9
$DIMDLE
 40
0.0
  9
$DIMEXE
 40
1.25
  9
$DIMTP
 40
0.0
  9
$DIMTM
 40
0.0
  9
$DIMTXT
 40
2.5
  9
$DIMCEN
 40
2.5
  9
$DIMTSZ
 40
0.0
  9
$DIMTOL
 70
0
  9
$DIMLIM
 70
0
  9
$DIMTIH
 70
0
  9
$DIMTOH
 70
0
  9
$DIMSE1
 70
0
  9
$DIMSE2
 70
0
  9
$DIMTAD
 70
1
  9
$DIMZIN
 70
8
  9
$DIMBLK
  1

  9
$DIMASO
 70
1
  9
$DIMSHO
 70
1
  9
$DIMPOST
  1

  9
$DIMAPOST
  1

  9
$DIMALT
 70
0
  9
$DIMALTD
 70
3
  9
$DIMALTF
 40
0.03937007874
  9
$DIMLFAC
 40
1.0
  9
$DIMTOFL
 70
1
  9
$DIMTVP
 40
0.0
  9
$DIMTIX
 70
0
  9
$DIMSOXD
 70
0
  9
$DIMSAH
 70
0
  9
$DIMBLK1
  1

  9
$DIMBLK2
  1

  9
$DIMSTYLE
  2
ISO-25
  9
$DIMCLRD
 70
0
  9
$DIMCLRE
 70
0
  9
$DIMCLRT
 70
0
  9
$DIMTFAC
 40
1.0
  9
$DIMGAP
 40
0.625
  9
$DIMJUST
 70
0
  9
$DIMSD1
 70
0
  9
$DIMSD2
 70
0
  9
$DIMTOLJ
 70
0
  9
$DIMTZIN
 70
8
  9
$DIMALTZ
 70
0
  9
$DIMALTTZ
 70
0
  9
$DIMUPT
 70
0
  9
$DIMDEC
 70
2
  9
$DIMTDEC
 70
2
  9
$DIMALTU
 70
2
  9
$DIMALTTD
 70
3
  9
$DIMTXSTY
  7
Standard
  9
$DIMAUNIT
 70
0
  9
$DIMADEC
 70
0
  9
$DIMALTRND
 40
0.0
  9
$DIMAZIN
 70
0
  9
$DIMDSEP
 70
44
  9
$DIMATFIT
 70
3
  9
$DIMFRAC
 70
0
  9
$DIMLDRBLK
  1

  9
$DIMLUNIT
 70
2
  9
$DIMLWD
 70
-2
  9
$DIMLWE
 70
-2
  9
$DIMTMOVE
 70
0
  9
$DIMFXL
 40
1.0
  9
$DIMFXLON
 70
0
  9
$DIMJOGANG
 40
0.785398163397
  9
$DIMTFILL
 70
0
  9
$DIMTFILLCLR
 70
0
  9
$DIMARCSYM
 70
0
  9
$DIMLTYPE
  6

  9
$DIMLTEX1
  6

  9
$DIMLTEX2
  6

  9
$DIMTXTDIRECTION
 70
0
  9
$LUNITS
 70
2
  9
$LUPREC
 70
4
  9
$SKETCHINC
 40
1.0
  9
$FILLETRAD
 40
10.0
  9
$AUNITS
 70
0
  9
$AUPREC
 70
2
  9
$MENU
  1
.
  9
$ELEVATION
 40
0.0
  9
$PELEVATION
 40
0.0
  9
$THICKNESS
 40
0.0
  9
$LIMCHECK
 70
0
  9
$CHAMFERA
 40
0.0
  9
$CHAMFERB
 40
0.0
  9
$CHAMFERC
 40
0.0
  9
$CHAMFERD
 40
0.0
  9
$SKPOLY
 70
0
  9
$TDCREATE
 40
2461178.6427662037
  9
$TDUCREATE
 40
2458532.153996898
  9
$TDUPDATE
 40
2461178.6427662037
  9
$TDUUPDATE
 40
2458532.1544311
  9
$TDINDWG
 40
0.0
  9
$TDUSRTIMER
 40
0.0
  9
$USRTIMER
 70
1
  9
$ANGBASE
 50
0.0
  9
$ANGDIR
 70
0
  9
$PDMODE
 70
0
  9
$PDSIZE
 40
0.0
  9
$PLINEWID
 40
0.0
  9
$SPLFRAME
 70
0
  9
$SPLINETYPE
 70
6
  9
$SPLINESEGS
 70
8
  9
$HANDSEED
  5
283
  9
$SURFTAB1
 70
6
  9
$SURFTAB2
 70
6
  9
$SURFTYPE
 70
6
  9
$SURFU
 70
6
  9
$SURFV
 70
6
  9
$UCSBASE
  2

  9
$UCSNAME
  2

  9
$UCSORG
 10
0.0
 20
0.0
 30
0.0
  9
$UCSXDIR
 10
1.0
 20
0.0
 30
0.0
  9
$UCSYDIR
 10
0.0
 20
1.0
 30
0.0
  9
$UCSORTHOREF
  2

  9
$UCSORTHOVIEW
 70
0
  9
$UCSORGTOP
 10
0.0
 20
0.0
 30
0.0
  9
$UCSORGBOTTOM
 10
0.0
 20
0.0
 30
0.0
  9
$UCSORGLEFT
 10
0.0
 20
0.0
 30
0.0
  9
$UCSORGRIGHT
 10
0.0
 20
0.0
 30
0.0
  9
$UCSORGFRONT
 10
0.0
 20
0.0
 30
0.0
  9
$UCSORGBACK
 10
0.0
 20
0.0
 30
0.0
  9
$PUCSBASE
  2

  9
$PUCSNAME
  2

  9
$PUCSORG
 10
0.0
 20
0.0
 30
0.0
  9
$PUCSXDIR
 10
1.0
 20
0.0
 30
0.0
  9
$PUCSYDIR
 10
0.0
 20
1.0
 30
0.0
  9
$PUCSORTHOREF
  2

  9
$PUCSORTHOVIEW
 70
0
  9
$PUCSORGTOP
 10
0.0
 20
0.0
 30
0.0
  9
$PUCSORGBOTTOM
 10
0.0
 20
0.0
 30
0.0
  9
$PUCSORGLEFT
 10
0.0
 20
0.0
 30
0.0
  9
$PUCSORGRIGHT
 10
0.0
 20
0.0
 30
0.0
  9
$PUCSORGFRONT
 10
0.0
 20
0.0
 30
0.0
  9
$PUCSORGBACK
 10
0.0
 20
0.0
 30
0.0
  9
$USERI1
 70
0
  9
$USERI2
 70
0
  9
$USERI3
 70
0
  9
$USERI4
 70
0
  9
$USERI5
 70
0
  9
$USERR1
 40
0.0
  9
$USERR2
 40
0.0
  9
$USERR3
 40
0.0
  9
$USERR4
 40
0.0
  9
$USERR5
 40
0.0
  9
$WORLDVIEW
 70
1
  9
$SHADEDGE
 70
3
  9
$SHADEDIF
 70
70
  9
$TILEMODE
 70
1
  9
$MAXACTVP
 70
64
  9
$PINSBASE
 10
0.0
 20
0.0
 30
0.0
  9
$PLIMCHECK
 70
0
  9
$PEXTMIN
 10
1e+20
 20
1e+20
 30
1e+20
  9
$PEXTMAX
 10
-1e+20
 20
-1e+20
 30
-1e+20
  9
$PLIMMIN
 10
0.0
 20
0.0
  9
$PLIMMAX
 10
420.0
 20
297.0
  9
$UNITMODE
 70
0
  9
$VISRETAIN
 70
1
  9
$PLINEGEN
 70
0
  9
$PSLTSCALE
 70
1
  9
$TREEDEPTH
 70
3020
  9
$CMLSTYLE
  2
Standard
  9
$CMLJUST
 70
0
  9
$CMLSCALE
 40
20.0
  9
$PROXYGRAPHICS
 70
1
  9
$MEASUREMENT
 70
1
  9
$CELWEIGHT
370
-1
  9
$ENDCAPS
280
0
  9
$JOINSTYLE
280
0
  9
$LWDISPLAY
290
0
  9
$INSUNITS
 70
6
  9
$HYPERLINKBASE
  1

  9
$STYLESHEET
  1

  9
$XEDIT
290
1
  9
$CEPSNTYPE
380
0
  9
$PSTYLEMODE
290
1
  9
$FINGERPRINTGUID
  2
{6EFC5B36-30F4-4978-8131-54307EBAAA0A}
  9
$VERSIONGUID
  2
{7038EF6E-FDEA-42D8-AA67-C50E6C95349E}
  9
$EXTNAMES
290
1
  9
$PSVPSCALE
 40
0.0
  9
$OLESTARTUP
290
0
  9
$SORTENTS
280
127
  9
$INDEXCTL
280
0
  9
$HIDETEXT
280
1
  9
$XCLIPFRAME
280
1
  9
$HALOGAP
280
0
  9
$OBSCOLOR
 70
257
  9
$OBSLTYPE
280
0
  9
$INTERSECTIONDISPLAY
280
0
  9
$INTERSECTIONCOLOR
 70
257
  9
$DIMASSOC
280
2
  9
$PROJECTNAME
  1

  9
$CAMERADISPLAY
290
0
  9
$LENSLENGTH
 40
50.0
  9
$CAMERAHEIGHT
 40
0.0
  9
$STEPSPERSEC
 40
24.0
  9
$STEPSIZE
 40
100.0
  9
$3DDWFPREC
 40
2.0
  9
$PSOLWIDTH
 40
0.005
  9
$PSOLHEIGHT
 40
0.08
  9
$LOFTANG1
 40
1.570796326795
  9
$LOFTANG2
 40
1.570796326795
  9
$LOFTMAG1
 40
0.0
  9
$LOFTMAG2
 40
0.0
  9
$LOFTPARAM
 70
7
  9
$LOFTNORMALS
280
1
  9
$LATITUDE
 40
37.795
  9
$LONGITUDE
 40
-122.394
  9
$NORTHDIRECTION
 40
0.0
  9
$TIMEZONE
 70
-8000
  9
$LIGHTGLYPHDISPLAY
280
1
  9
$TILEMODELIGHTSYNCH
280
1
  9
$CMATERIAL
347
20
  9
$SOLIDHIST
280
0
  9
$SHOWHIST
280
1
  9
$DWFFRAME
280
2
  9
$DGNFRAME
280
2
  9
$REALWORLDSCALE
290
1
  9
$INTERFERECOLOR
 62
256
  9
$CSHADOW
280
0
  9
$SHADOWPLANELOCATION
 40
0.0
  0
ENDSEC
  0
SECTION
  2
CLASSES
  0
CLASS
  1
ACDBDICTIONARYWDFLT
  2
AcDbDictionaryWithDefault
  3
ObjectDBX Classes
 90
0
 91
0
280
0
281
0
  0
CLASS
  1
SUN
  2
AcDbSun
  3
SCENEOE
 90
1153
 91
0
280
0
281
0
  0
CLASS
  1
VISUALSTYLE
  2
AcDbVisualStyle
  3
ObjectDBX Classes
 90
4095
 91
0
280
0
281
0
  0
CLASS
  1
MATERIAL
  2
AcDbMaterial
  3
ObjectDBX Classes
 90
1153
 91
0
280
0
281
0
  0
CLASS
  1
SCALE
  2
AcDbScale
  3
ObjectDBX Classes
 90
1153
 91
0
280
0
281
0
  0
CLASS
  1
TABLESTYLE
  2
AcDbTableStyle
  3
ObjectDBX Classes
 90
4095
 91
0
280
0
281
0
  0
CLASS
  1
MLEADERSTYLE
  2
AcDbMLeaderStyle
  3
ACDB_MLEADERSTYLE_CLASS
 90
4095
 91
0
280
0
281
0
  0
CLASS
  1
DICTIONARYVAR
  2
AcDbDictionaryVar
  3
ObjectDBX Classes
 90
0
 91
0
280
0
281
0
  0
CLASS
  1
CELLSTYLEMAP
  2
AcDbCellStyleMap
  3
ObjectDBX Classes
 90
1152
 91
0
280
0
281
0
  0
CLASS
  1
MENTALRAYRENDERSETTINGS
  2
AcDbMentalRayRenderSettings
  3
SCENEOE
 90
1024
 91
0
280
0
281
0
  0
CLASS
  1
ACDBDETAILVIEWSTYLE
  2
AcDbDetailViewStyle
  3
ObjectDBX Classes
 90
1025
 91
0
280
0
281
0
  0
CLASS
  1
ACDBSECTIONVIEWSTYLE
  2
AcDbSectionViewStyle
  3
ObjectDBX Classes
 90
1025
 91
0
280
0
281
0
  0
CLASS
  1
RASTERVARIABLES
  2
AcDbRasterVariables
  3
ISM
 90
0
 91
0
280
0
281
0
  0
CLASS
  1
LAYOUT
  2
AcDbLayout
  3
ObjectDBX Classes
 90
0
 91
0
280
0
281
0
  0
CLASS
  1
ACDBPLACEHOLDER
  2
AcDbPlaceHolder
  3
ObjectDBX Classes
 90
0
 91
0
280
0
281
0
  0
ENDSEC
  0
SECTION
  2
TABLES
  0
TABLE
  2
VPORT
  5
8
330
0
100
AcDbSymbolTable
 70
1
  0
VPORT
  5
23
330
8
100
AcDbSymbolTableRecord
100
AcDbViewportTableRecord
  2
*Active
 70
0
 10
0.0
 20
0.0
 11
1.0
 21
1.0
 12
0.0
 22
0.0
 13
0.0
 23
0.0
 14
0.5
 24
0.5
 15
0.5
 25
0.5
 16
0.0
 26
0.0
 36
1.0
 17
0.0
 27
0.0
 37
0.0
 40
1000.0
 41
1.34
 42
50.0
 43
0.0
 44
0.0
 50
0.0
 51
0.0
 71
0
 72
1000
 73
1
 74
3
 75
0
 76
0
 77
0
 78
0
281
0
 65
0
146
0.0
  0
ENDTAB
  0
TABLE
  2
LTYPE
  5
2
330
0
100
AcDbSymbolTable
 70
5
  0
LTYPE
  5
24
330
2
100
AcDbSymbolTableRecord
100
AcDbLinetypeTableRecord
  2
ByBlock
 70
0
  3

 72
65
 73
0
 40
0.0
  0
LTYPE
  5
25
330
2
100
AcDbSymbolTableRecord
100
AcDbLinetypeTableRecord
  2
ByLayer
 70
0
  3

 72
65
 73
0
 40
0.0
  0
LTYPE
  5
26
330
2
100
AcDbSymbolTableRecord
100
AcDbLinetypeTableRecord
  2
Continuous
 70
0
  3

 72
65
 73
0
 40
0.0
  0
LTYPE
  5
2F
330
2
100
AcDbSymbolTableRecord
100
AcDbLinetypeTableRecord
  2
DASHED
 70
0
  3
Hidden line
 72
65
 73
1
 40
3.5
 49
-1.5
 74
0
  0
LTYPE
  5
30
330
2
100
AcDbSymbolTableRecord
100
AcDbLinetypeTableRecord
  2
CENTER
 70
0
  3
Centre line
 72
65
 73
3
 40
6.0
 49
-1.5
 74
0
 49
1.0
 74
0
 49
-1.5
 74
0
  0
ENDTAB
  0
TABLE
  2
LAYER
  5
1
330
0
100
AcDbSymbolTable
 70
9
  0
LAYER
  5
27
330
1
100
AcDbSymbolTableRecord
100
AcDbLayerTableRecord
  2
0
 70
0
 62
7
  6
Continuous
370
-3
390
13
347
21
  0
LAYER
  5
28
330
1
100
AcDbSymbolTableRecord
100
AcDbLayerTableRecord
  2
Defpoints
 70
0
 62
7
  6
Continuous
290
0
370
-3
390
13
347
21
  0
LAYER
  5
31
330
1
100
AcDbSymbolTableRecord
100
AcDbLayerTableRecord
  2
BORDER
 70
0
 62
7
  6
Continuous
370
-3
390
13
347
21
  0
LAYER
  5
32
330
1
100
AcDbSymbolTableRecord
100
AcDbLayerTableRecord
  2
GEOMETRY
 70
0
 62
7
  6
Continuous
370
-3
390
13
347
21
  0
LAYER
  5
33
330
1
100
AcDbSymbolTableRecord
100
AcDbLayerTableRecord
  2
HIDDEN
 70
0
 62
8
  6
DASHED
370
-3
390
13
347
21
  0
LAYER
  5
34
330
1
100
AcDbSymbolTableRecord
100
AcDbLayerTableRecord
  2
CENTER_LINES
 70
0
 62
1
  6
CENTER
370
-3
390
13
347
21
  0
LAYER
  5
35
330
1
100
AcDbSymbolTableRecord
100
AcDbLayerTableRecord
  2
DIMENSIONS
 70
0
 62
2
  6
Continuous
370
-3
390
13
347
21
  0
LAYER
  5
36
330
1
100
AcDbSymbolTableRecord
100
AcDbLayerTableRecord
  2
LEADERS
 70
0
 62
3
  6
Continuous
370
-3
390
13
347
21
  0
LAYER
  5
37
330
1
100
AcDbSymbolTableRecord
100
AcDbLayerTableRecord
  2
NOTES
 70
0
 62
3
  6
Continuous
370
-3
390
13
347
21
  0
ENDTAB
  0
TABLE
  2
STYLE
  5
5
330
0
100
AcDbSymbolTable
 70
1
  0
STYLE
  5
29
330
5
100
AcDbSymbolTableRecord
100
AcDbTextStyleTableRecord
  2
Standard
 70
0
 40
0.0
 41
1.0
 50
0.0
 71
0
 42
2.5
  3
txt
  4

  0
ENDTAB
  0
TABLE
  2
VIEW
  5
7
330
0
100
AcDbSymbolTable
 70
0
  0
ENDTAB
  0
TABLE
  2
UCS
  5
6
330
0
100
AcDbSymbolTable
 70
0
  0
ENDTAB
  0
TABLE
  2
APPID
  5
3
330
0
100
AcDbSymbolTable
 70
3
  0
APPID
  5
2A
330
3
100
AcDbSymbolTableRecord
100
AcDbRegAppTableRecord
  2
ACAD
 70
0
  0
APPID
  5
280
330
3
100
AcDbSymbolTableRecord
100
AcDbRegAppTableRecord
  2
HATCHBACKGROUNDCOLOR
 70
0
  0
APPID
  5
281
330
3
100
AcDbSymbolTableRecord
100
AcDbRegAppTableRecord
  2
EZDXF
 70
0
  0
ENDTAB
  0
TABLE
  2
DIMSTYLE
  5
4
330
0
100
AcDbSymbolTable
 70
1
100
AcDbDimStyleTable
  0
DIMSTYLE
105
2B
330
4
100
AcDbSymbolTableRecord
100
AcDbDimStyleTableRecord
  2
Standard
 70
0
 40
1.0
 41
2.5
 42
0.625
 43
3.75
 44
1.25
 45
0.0
 46
0.0
 47
0.0
 48
0.0
 49
2.5
140
2.5
141
2.5
142
0.0
143
0.03937007874
144
1.0
145
0.0
146
1.0
147
0.625
148
0.0
 69
0
 70
0
 71
0
 72
0
 73
0
 74
0
 75
0
 76
0
 77
1
 78
8
 79
3
170
0
171
3
172
1
173
0
174
0
175
0
176
0
177
0
178
0
179
2
271
2
272
2
273
2
274
3
275
0
276
0
277
2
278
44
279
0
280
0
281
0
282
0
283
0
284
8
285
0
286
0
288
0
289
3
290
0
371
-2
372
-2
  0
ENDTAB
  0
TABLE
  2
BLOCK_RECORD
  5
9
330
0
100
AcDbSymbolTable
 70
2
  0
BLOCK_RECORD
  5
17
330
9
100
AcDbSymbolTableRecord
100
AcDbBlockTableRecord
  2
*Model_Space
340
1A
 70
0
280
1
281
0
  0
BLOCK_RECORD
  5
1B
330
9
100
AcDbSymbolTableRecord
100
AcDbBlockTableRecord
  2
*Paper_Space
340
1E
 70
0
280
1
281
0
  0
ENDTAB
  0
ENDSEC
  0
SECTION
  2
BLOCKS
  0
BLOCK
  5
18
330
17
100
AcDbEntity
  8
0
100
AcDbBlockBegin
  2
*Model_Space
 70
0
 10
0.0
 20
0.0
 30
0.0
  3
*Model_Space
  1

  0
ENDBLK
  5
19
330
17
100
AcDbEntity
  8
0
100
AcDbBlockEnd
  0
BLOCK
  5
1C
330
1B
100
AcDbEntity
  8
0
100
AcDbBlockBegin
  2
*Paper_Space
 70
0
 10
0.0
 20
0.0
 30
0.0
  3
*Paper_Space
  1

  0
ENDBLK
  5
1D
330
1B
100
AcDbEntity
  8
0
100
AcDbBlockEnd
  0
ENDSEC
  0
SECTION
  2
ENTITIES
  0
LWPOLYLINE
  5
38
330
17
100
AcDbEntity
  8
BORDER
100
AcDbPolyline
 90
4
 70
1
 10
0.0
 20
0.0
 10
420.0
 20
0.0
 10
420.0
 20
297.0
 10
0.0
 20
297.0
  0
LWPOLYLINE
  5
39
330
17
100
AcDbEntity
  8
BORDER
100
AcDbPolyline
 90
4
 70
1
 10
10.0
 20
10.0
 10
410.0
 20
10.0
 10
410.0
 20
287.0
 10
10.0
 20
287.0
  0
LWPOLYLINE
  5
3A
330
17
100
AcDbEntity
  8
BORDER
100
AcDbPolyline
 90
4
 70
1
 10
260.0
 20
10.0
 10
410.0
 20
10.0
 10
410.0
 20
55.0
 10
260.0
 20
55.0
  0
LINE
  5
3B
330
17
100
AcDbEntity
  8
BORDER
100
AcDbLine
 10
260.0
 20
24.0
 30
0.0
 11
410.0
 21
24.0
 31
0.0
  0
LINE
  5
3C
330
17
100
AcDbEntity
  8
BORDER
100
AcDbLine
 10
260.0
 20
38.0
 30
0.0
 11
410.0
 21
38.0
 31
0.0
  0
LINE
  5
3D
330
17
100
AcDbEntity
  8
GEOMETRY
100
AcDbLine
 10
133.84615384615384
 20
86.96153846153847
 30
0.0
 11
133.84615384615384
 21
95.61538461538461
 31
0.0
  0
LINE
  5
3E
330
17
100
AcDbEntity
  8
GEOMETRY
100
AcDbLine
 10
133.84615384615384
 20
95.61538461538461
 30
0.0
 11
133.84615384615384
 21
138.8846153846154
 31
0.0
  0
LINE
  5
3F
330
17
100
AcDbEntity
  8
GEOMETRY
100
AcDbLine
 10
133.84615384615384
 20
86.96153846153847
 30
0.0
 11
203.07692307692307
 21
86.96153846153847
 31
0.0
  0
LINE
  5
40
330
17
100
AcDbEntity
  8
GEOMETRY
100
AcDbLine
 10
133.84615384615384
 20
95.61538461538461
 30
0.0
 11
203.07692307692307
 21
95.61538461538461
 31
0.0
  0
LINE
  5
41
330
17
100
AcDbEntity
  8
GEOMETRY
100
AcDbLine
 10
203.07692307692307
 20
86.96153846153847
 30
0.0
 11
203.07692307692307
 21
95.61538461538461
 31
0.0
  0
LINE
  5
42
330
17
100
AcDbEntity
  8
GEOMETRY
100
AcDbLine
 10
133.84615384615384
 20
138.8846153846154
 30
0.0
 11
203.07692307692307
 21
138.8846153846154
 31
0.0
  0
LINE
  5
43
330
17
100
AcDbEntity
  8
GEOMETRY
100
AcDbLine
 10
203.07692307692307
 20
95.61538461538461
 30
0.0
 11
203.07692307692307
 21
138.8846153846154
 31
0.0
  0
CIRCLE
  5
44
330
17
100
AcDbEntity
  8
GEOMETRY
100
AcDbCircle
 10
168.46153846153845
 20
117.25
 30
0.0
 40
8.653846153846153
  0
LINE
  5
45
330
17
100
AcDbEntity
  8
CENTER_LINES
100
AcDbLine
 10
155.8076923076923
 20
117.25
 30
0.0
 11
181.1153846153846
 21
117.25
 31
0.0
  0
LINE
  5
46
330
17
100
AcDbEntity
  8
CENTER_LINES
100
AcDbLine
 10
168.46153846153845
 20
104.59615384615384
 30
0.0
 11
168.46153846153845
 21
129.90384615384616
 31
0.0
  0
LINE
  5
47
330
17
100
AcDbEntity
  8
GEOMETRY
100
AcDbLine
 10
133.84615384615384
 20
190.80769230769232
 30
0.0
 11
133.84615384615384
 21
234.0769230769231
 31
0.0
  0
LINE
  5
48
330
17
100
AcDbEntity
  8
GEOMETRY
100
AcDbLine
 10
133.84615384615384
 20
221.09615384615387
 30
0.0
 11
133.84615384615384
 21
234.0769230769231
 31
0.0
  0
LINE
  5
49
330
17
100
AcDbEntity
  8
GEOMETRY
100
AcDbLine
 10
133.84615384615384
 20
212.4423076923077
 30
0.0
 11
133.84615384615384
 21
221.09615384615387
 31
0.0
  0
LINE
  5
4A
330
17
100
AcDbEntity
  8
GEOMETRY
100
AcDbLine
 10
133.84615384615384
 20
190.80769230769232
 30
0.0
 11
133.84615384615384
 21
212.4423076923077
 31
0.0
  0
LINE
  5
4B
330
17
100
AcDbEntity
  8
GEOMETRY
100
AcDbLine
 10
133.84615384615384
 20
190.80769230769232
 30
0.0
 11
203.07692307692307
 21
190.80769230769232
 31
0.0
  0
LINE
  5
4C
330
17
100
AcDbEntity
  8
GEOMETRY
100
AcDbLine
 10
203.07692307692307
 20
190.80769230769232
 30
0.0
 11
203.07692307692307
 21
234.0769230769231
 31
0.0
  0
LINE
  5
4D
330
17
100
AcDbEntity
  8
GEOMETRY
100
AcDbLine
 10
133.84615384615384
 20
234.0769230769231
 30
0.0
 11
203.07692307692307
 21
234.0769230769231
 31
0.0
  0
LINE
  5
4E
330
17
100
AcDbEntity
  8
GEOMETRY
100
AcDbLine
 10
133.84615384615384
 20
221.09615384615387
 30
0.0
 11
203.07692307692307
 21
221.09615384615387
 31
0.0
  0
LINE
  5
4F
330
17
100
AcDbEntity
  8
GEOMETRY
100
AcDbLine
 10
203.07692307692307
 20
221.09615384615387
 30
0.0
 11
203.07692307692307
 21
234.0769230769231
 31
0.0
  0
LINE
  5
50
330
17
100
AcDbEntity
  8
GEOMETRY
100
AcDbLine
 10
159.8076923076923
 20
221.09615384615387
 30
0.0
 11
159.8551544931654
 21
221.09615384615387
 31
0.0
  0
LINE
  5
51
330
17
100
AcDbEntity
  8
GEOMETRY
100
AcDbLine
 10
159.8551544931654
 20
221.09615384615387
 30
0.0
 11
159.9026166786385
 21
221.09615384615387
 31
0.0
  0
LINE
  5
52
330
17
100
AcDbEntity
  8
GEOMETRY
100
AcDbLine
 10
159.9026166786385
 20
221.09615384615387
 30
0.0
 11
159.95007886411162
 21
221.09615384615387
 31
0.0
  0
LINE
  5
53
330
17
100
AcDbEntity
  8
GEOMETRY
100
AcDbLine
 10
159.95007886411162
 20
221.09615384615387
 30
0.0
 11
159.99754104958475
 21
221.09615384615387
 31
0.0
  0
LINE
  5
54
330
17
100
AcDbEntity
  8
GEOMETRY
100
AcDbLine
 10
159.99754104958475
 20
221.09615384615387
 30
0.0
 11
160.08466512882148
 21
221.09615384615387
 31
0.0
  0
LINE
  5
55
330
17
100
AcDbEntity
  8
GEOMETRY
100
AcDbLine
 10
160.08466512882148
 20
221.09615384615387
 30
0.0
 11
160.22467173307635
 21
221.09615384615387
 31
0.0
  0
LINE
  5
56
330
17
100
AcDbEntity
  8
GEOMETRY
100
AcDbLine
 10
160.22467173307635
 20
221.09615384615387
 30
0.0
 11
160.36467833733124
 21
221.09615384615387
 31
0.0
  0
LINE
  5
57
330
17
100
AcDbEntity
  8
GEOMETRY
100
AcDbLine
 10
160.36467833733124
 20
221.09615384615387
 30
0.0
 11
160.5046849415861
 21
221.09615384615387
 31
0.0
  0
LINE
  5
58
330
17
100
AcDbEntity
  8
GEOMETRY
100
AcDbLine
 10
160.5046849415861
 20
221.09615384615387
 30
0.0
 11
160.644691545841
 21
221.09615384615387
 31
0.0
  0
LINE
  5
59
330
17
100
AcDbEntity
  8
GEOMETRY
100
AcDbLine
 10
160.644691545841
 20
221.09615384615387
 30
0.0
 11
160.85800435269113
 21
221.09615384615387
 31
0.0
  0
LINE
  5
5A
330
17
100
AcDbEntity
  8
GEOMETRY
100
AcDbLine
 10
160.85800435269113
 20
221.09615384615387
 30
0.0
 11
161.08353485997375
 21
221.09615384615387
 31
0.0
  0
LINE
  5
5B
330
17
100
AcDbEntity
  8
GEOMETRY
100
AcDbLine
 10
161.08353485997375
 20
221.09615384615387
 30
0.0
 11
161.3090653672564
 21
221.09615384615387
 31
0.0
  0
LINE
  5
5C
330
17
100
AcDbEntity
  8
GEOMETRY
100
AcDbLine
 10
161.3090653672564
 20
221.09615384615387
 30
0.0
 11
161.53459587453906
 21
221.09615384615387
 31
0.0
  0
LINE
  5
5D
330
17
100
AcDbEntity
  8
GEOMETRY
100
AcDbLine
 10
161.53459587453906
 20
221.09615384615387
 30
0.0
 11
161.78133062801007
 21
221.09615384615387
 31
0.0
  0
LINE
  5
5E
330
17
100
AcDbEntity
  8
GEOMETRY
100
AcDbLine
 10
161.78133062801007
 20
221.09615384615387
 30
0.0
 11
162.08107599695194
 21
221.09615384615387
 31
0.0
  0
LINE
  5
5F
330
17
100
AcDbEntity
  8
GEOMETRY
100
AcDbLine
 10
162.08107599695194
 20
221.09615384615387
 30
0.0
 11
162.3808213658938
 21
221.09615384615387
 31
0.0
  0
LINE
  5
60
330
17
100
AcDbEntity
  8
GEOMETRY
100
AcDbLine
 10
162.3808213658938
 20
221.09615384615387
 30
0.0
 11
162.68056673483568
 21
221.09615384615387
 31
0.0
  0
LINE
  5
61
330
17
100
AcDbEntity
  8
GEOMETRY
100
AcDbLine
 10
162.68056673483568
 20
221.09615384615387
 30
0.0
 11
162.98031210377755
 21
221.09615384615387
 31
0.0
  0
LINE
  5
62
330
17
100
AcDbEntity
  8
GEOMETRY
100
AcDbLine
 10
162.98031210377755
 20
221.09615384615387
 30
0.0
 11
163.32233202788575
 21
221.09615384615387
 31
0.0
  0
LINE
  5
63
330
17
100
AcDbEntity
  8
GEOMETRY
100
AcDbLine
 10
163.32233202788575
 20
221.09615384615387
 30
0.0
 11
163.68126177406043
 21
221.09615384615387
 31
0.0
  0
LINE
  5
64
330
17
100
AcDbEntity
  8
GEOMETRY
100
AcDbLine
 10
163.68126177406043
 20
221.09615384615387
 30
0.0
 11
164.04019152023514
 21
221.09615384615387
 31
0.0
  0
LINE
  5
65
330
17
100
AcDbEntity
  8
GEOMETRY
100
AcDbLine
 10
164.04019152023514
 20
221.09615384615387
 30
0.0
 11
164.39912126640985
 21
221.09615384615387
 31
0.0
  0
LINE
  5
66
330
17
100
AcDbEntity
  8
GEOMETRY
100
AcDbLine
 10
164.39912126640985
 20
221.09615384615387
 30
0.0
 11
164.76393474701305
 21
221.09615384615387
 31
0.0
  0
LINE
  5
67
330
17
100
AcDbEntity
  8
GEOMETRY
100
AcDbLine
 10
164.76393474701305
 20
221.09615384615387
 30
0.0
 11
165.16405063418728
 21
221.09615384615387
 31
0.0
  0
LINE
  5
68
330
17
100
AcDbEntity
  8
GEOMETRY
100
AcDbLine
 10
165.16405063418728
 20
221.09615384615387
 30
0.0
 11
165.5641665213615
 21
221.09615384615387
 31
0.0
  0
LINE
  5
69
330
17
100
AcDbEntity
  8
GEOMETRY
100
AcDbLine
 10
165.5641665213615
 20
221.09615384615387
 30
0.0
 11
165.96428240853572
 21
221.09615384615387
 31
0.0
  0
LINE
  5
6A
330
17
100
AcDbEntity
  8
GEOMETRY
100
AcDbLine
 10
165.96428240853572
 20
221.09615384615387
 30
0.0
 11
166.36439829570998
 21
221.09615384615387
 31
0.0
  0
LINE
  5
6B
330
17
100
AcDbEntity
  8
GEOMETRY
100
AcDbLine
 10
166.36439829570998
 20
221.09615384615387
 30
0.0
 11
166.77658427412888
 21
221.09615384615387
 31
0.0
  0
LINE
  5
6C
330
17
100
AcDbEntity
  8
GEOMETRY
100
AcDbLine
 10
166.77658427412888
 20
221.09615384615387
 30
0.0
 11
167.19782282098126
 21
221.09615384615387
 31
0.0
  0
LINE
  5
6D
330
17
100
AcDbEntity
  8
GEOMETRY
100
AcDbLine
 10
167.19782282098126
 20
221.09615384615387
 30
0.0
 11
167.61906136783367
 21
221.09615384615387
 31
0.0
  0
LINE
  5
6E
330
17
100
AcDbEntity
  8
GEOMETRY
100
AcDbLine
 10
167.61906136783367
 20
221.09615384615387
 30
0.0
 11
168.04029991468605
 21
221.09615384615387
 31
0.0
  0
LINE
  5
6F
330
17
100
AcDbEntity
  8
GEOMETRY
100
AcDbLine
 10
168.04029991468605
 20
221.09615384615387
 30
0.0
 11
168.46153846153845
 21
221.09615384615387
 31
0.0
  0
LINE
  5
70
330
17
100
AcDbEntity
  8
GEOMETRY
100
AcDbLine
 10
168.46153846153845
 20
221.09615384615387
 30
0.0
 11
168.88277700839086
 21
221.09615384615387
 31
0.0
  0
LINE
  5
71
330
17
100
AcDbEntity
  8
GEOMETRY
100
AcDbLine
 10
168.88277700839086
 20
221.09615384615387
 30
0.0
 11
169.30401555524327
 21
221.09615384615387
 31
0.0
  0
LINE
  5
72
330
17
100
AcDbEntity
  8
GEOMETRY
100
AcDbLine
 10
169.30401555524327
 20
221.09615384615387
 30
0.0
 11
169.72525410209565
 21
221.09615384615387
 31
0.0
  0
LINE
  5
73
330
17
100
AcDbEntity
  8
GEOMETRY
100
AcDbLine
 10
169.72525410209565
 20
221.09615384615387
 30
0.0
 11
170.14649264894805
 21
221.09615384615387
 31
0.0
  0
LINE
  5
74
330
17
100
AcDbEntity
  8
GEOMETRY
100
AcDbLine
 10
170.14649264894805
 20
221.09615384615387
 30
0.0
 11
170.55867862736693
 21
221.09615384615387
 31
0.0
  0
LINE
  5
75
330
17
100
AcDbEntity
  8
GEOMETRY
100
AcDbLine
 10
170.55867862736693
 20
221.09615384615387
 30
0.0
 11
170.95879451454118
 21
221.09615384615387
 31
0.0
  0
LINE
  5
76
330
17
100
AcDbEntity
  8
GEOMETRY
100
AcDbLine
 10
170.95879451454118
 20
221.09615384615387
 30
0.0
 11
171.3589104017154
 21
221.09615384615387
 31
0.0
  0
LINE
  5
77
330
17
100
AcDbEntity
  8
GEOMETRY
100
AcDbLine
 10
171.3589104017154
 20
221.09615384615387
 30
0.0
 11
171.75902628888963
 21
221.09615384615387
 31
0.0
  0
LINE
  5
78
330
17
100
AcDbEntity
  8
GEOMETRY
100
AcDbLine
 10
171.75902628888963
 20
221.09615384615387
 30
0.0
 11
172.15914217606385
 21
221.09615384615387
 31
0.0
  0
LINE
  5
79
330
17
100
AcDbEntity
  8
GEOMETRY
100
AcDbLine
 10
172.15914217606385
 20
221.09615384615387
 30
0.0
 11
172.52395565666706
 21
221.09615384615387
 31
0.0
  0
LINE
  5
7A
330
17
100
AcDbEntity
  8
GEOMETRY
100
AcDbLine
 10
172.52395565666706
 20
221.09615384615387
 30
0.0
 11
172.88288540284177
 21
221.09615384615387
 31
0.0
  0
LINE
  5
7B
330
17
100
AcDbEntity
  8
GEOMETRY
100
AcDbLine
 10
172.88288540284177
 20
221.09615384615387
 30
0.0
 11
173.24181514901647
 21
221.09615384615387
 31
0.0
  0
LINE
  5
7C
330
17
100
AcDbEntity
  8
GEOMETRY
100
AcDbLine
 10
173.24181514901647
 20
221.09615384615387
 30
0.0
 11
173.60074489519116
 21
221.09615384615387
 31
0.0
  0
LINE
  5
7D
330
17
100
AcDbEntity
  8
GEOMETRY
100
AcDbLine
 10
173.60074489519116
 20
221.09615384615387
 30
0.0
 11
173.94276481929936
 21
221.09615384615387
 31
0.0
  0
LINE
  5
7E
330
17
100
AcDbEntity
  8
GEOMETRY
100
AcDbLine
 10
173.94276481929936
 20
221.09615384615387
 30
0.0
 11
174.24251018824123
 21
221.09615384615387
 31
0.0
  0
LINE
  5
7F
330
17
100
AcDbEntity
  8
GEOMETRY
100
AcDbLine
 10
174.24251018824123
 20
221.09615384615387
 30
0.0
 11
174.5422555571831
 21
221.09615384615387
 31
0.0
  0
LINE
  5
80
330
17
100
AcDbEntity
  8
GEOMETRY
100
AcDbLine
 10
174.5422555571831
 20
221.09615384615387
 30
0.0
 11
174.84200092612497
 21
221.09615384615387
 31
0.0
  0
LINE
  5
81
330
17
100
AcDbEntity
  8
GEOMETRY
100
AcDbLine
 10
174.84200092612497
 20
221.09615384615387
 30
0.0
 11
175.14174629506687
 21
221.09615384615387
 31
0.0
  0
LINE
  5
82
330
17
100
AcDbEntity
  8
GEOMETRY
100
AcDbLine
 10
175.14174629506687
 20
221.09615384615387
 30
0.0
 11
175.38848104853787
 21
221.09615384615387
 31
0.0
  0
LINE
  5
83
330
17
100
AcDbEntity
  8
GEOMETRY
100
AcDbLine
 10
175.38848104853787
 20
221.09615384615387
 30
0.0
 11
175.6140115558205
 21
221.09615384615387
 31
0.0
  0
LINE
  5
84
330
17
100
AcDbEntity
  8
GEOMETRY
100
AcDbLine
 10
175.6140115558205
 20
221.09615384615387
 30
0.0
 11
175.83954206310315
 21
221.09615384615387
 31
0.0
  0
LINE
  5
85
330
17
100
AcDbEntity
  8
GEOMETRY
100
AcDbLine
 10
175.83954206310315
 20
221.09615384615387
 30
0.0
 11
176.0650725703858
 21
221.09615384615387
 31
0.0
  0
LINE
  5
86
330
17
100
AcDbEntity
  8
GEOMETRY
100
AcDbLine
 10
176.0650725703858
 20
221.09615384615387
 30
0.0
 11
176.2783853772359
 21
221.09615384615387
 31
0.0
  0
LINE
  5
87
330
17
100
AcDbEntity
  8
GEOMETRY
100
AcDbLine
 10
176.2783853772359
 20
221.09615384615387
 30
0.0
 11
176.4183919814908
 21
221.09615384615387
 31
0.0
  0
LINE
  5
88
330
17
100
AcDbEntity
  8
GEOMETRY
100
AcDbLine
 10
176.4183919814908
 20
221.09615384615387
 30
0.0
 11
176.5583985857457
 21
221.09615384615387
 31
0.0
  0
LINE
  5
89
330
17
100
AcDbEntity
  8
GEOMETRY
100
AcDbLine
 10
176.5583985857457
 20
221.09615384615387
 30
0.0
 11
176.69840519000056
 21
221.09615384615387
 31
0.0
  0
LINE
  5
8A
330
17
100
AcDbEntity
  8
GEOMETRY
100
AcDbLine
 10
176.69840519000056
 20
221.09615384615387
 30
0.0
 11
176.83841179425545
 21
221.09615384615387
 31
0.0
  0
LINE
  5
8B
330
17
100
AcDbEntity
  8
GEOMETRY
100
AcDbLine
 10
176.83841179425545
 20
221.09615384615387
 30
0.0
 11
176.92553587349218
 21
221.09615384615387
 31
0.0
  0
LINE
  5
8C
330
17
100
AcDbEntity
  8
GEOMETRY
100
AcDbLine
 10
176.92553587349218
 20
221.09615384615387
 30
0.0
 11
176.9729980589653
 21
221.09615384615387
 31
0.0
  0
LINE
  5
8D
330
17
100
AcDbEntity
  8
GEOMETRY
100
AcDbLine
 10
176.9729980589653
 20
221.09615384615387
 30
0.0
 11
177.0204602444384
 21
221.09615384615387
 31
0.0
  0
LINE
  5
8E
330
17
100
AcDbEntity
  8
GEOMETRY
100
AcDbLine
 10
177.0204602444384
 20
221.09615384615387
 30
0.0
 11
177.0679224299115
 21
221.09615384615387
 31
0.0
  0
LINE
  5
8F
330
17
100
AcDbEntity
  8
GEOMETRY
100
AcDbLine
 10
177.0679224299115
 20
221.09615384615387
 30
0.0
 11
177.1153846153846
 21
221.09615384615387
 31
0.0
  0
LINE
  5
90
330
17
100
AcDbEntity
  8
GEOMETRY
100
AcDbLine
 10
133.84615384615384
 20
212.4423076923077
 30
0.0
 11
203.07692307692307
 21
212.4423076923077
 31
0.0
  0
LINE
  5
91
330
17
100
AcDbEntity
  8
GEOMETRY
100
AcDbLine
 10
203.07692307692307
 20
212.4423076923077
 30
0.0
 11
203.07692307692307
 21
221.09615384615387
 31
0.0
  0
LINE
  5
92
330
17
100
AcDbEntity
  8
GEOMETRY
100
AcDbLine
 10
159.8076923076923
 20
212.4423076923077
 30
0.0
 11
159.8551544931654
 21
212.4423076923077
 31
0.0
  0
LINE
  5
93
330
17
100
AcDbEntity
  8
GEOMETRY
100
AcDbLine
 10
159.8551544931654
 20
212.4423076923077
 30
0.0
 11
159.9026166786385
 21
212.4423076923077
 31
0.0
  0
LINE
  5
94
330
17
100
AcDbEntity
  8
GEOMETRY
100
AcDbLine
 10
159.9026166786385
 20
212.4423076923077
 30
0.0
 11
159.95007886411162
 21
212.4423076923077
 31
0.0
  0
LINE
  5
95
330
17
100
AcDbEntity
  8
GEOMETRY
100
AcDbLine
 10
159.95007886411162
 20
212.4423076923077
 30
0.0
 11
159.99754104958475
 21
212.4423076923077
 31
0.0
  0
LINE
  5
96
330
17
100
AcDbEntity
  8
GEOMETRY
100
AcDbLine
 10
159.99754104958475
 20
212.4423076923077
 30
0.0
 11
160.08466512882148
 21
212.4423076923077
 31
0.0
  0
LINE
  5
97
330
17
100
AcDbEntity
  8
GEOMETRY
100
AcDbLine
 10
160.08466512882148
 20
212.4423076923077
 30
0.0
 11
160.22467173307635
 21
212.4423076923077
 31
0.0
  0
LINE
  5
98
330
17
100
AcDbEntity
  8
GEOMETRY
100
AcDbLine
 10
160.22467173307635
 20
212.4423076923077
 30
0.0
 11
160.36467833733124
 21
212.4423076923077
 31
0.0
  0
LINE
  5
99
330
17
100
AcDbEntity
  8
GEOMETRY
100
AcDbLine
 10
160.36467833733124
 20
212.4423076923077
 30
0.0
 11
160.5046849415861
 21
212.4423076923077
 31
0.0
  0
LINE
  5
9A
330
17
100
AcDbEntity
  8
GEOMETRY
100
AcDbLine
 10
160.5046849415861
 20
212.4423076923077
 30
0.0
 11
160.644691545841
 21
212.4423076923077
 31
0.0
  0
LINE
  5
9B
330
17
100
AcDbEntity
  8
GEOMETRY
100
AcDbLine
 10
160.644691545841
 20
212.4423076923077
 30
0.0
 11
160.85800435269113
 21
212.4423076923077
 31
0.0
  0
LINE
  5
9C
330
17
100
AcDbEntity
  8
GEOMETRY
100
AcDbLine
 10
160.85800435269113
 20
212.4423076923077
 30
0.0
 11
161.08353485997375
 21
212.4423076923077
 31
0.0
  0
LINE
  5
9D
330
17
100
AcDbEntity
  8
GEOMETRY
100
AcDbLine
 10
161.08353485997375
 20
212.4423076923077
 30
0.0
 11
161.3090653672564
 21
212.4423076923077
 31
0.0
  0
LINE
  5
9E
330
17
100
AcDbEntity
  8
GEOMETRY
100
AcDbLine
 10
161.3090653672564
 20
212.4423076923077
 30
0.0
 11
161.53459587453906
 21
212.4423076923077
 31
0.0
  0
LINE
  5
9F
330
17
100
AcDbEntity
  8
GEOMETRY
100
AcDbLine
 10
161.53459587453906
 20
212.4423076923077
 30
0.0
 11
161.78133062801007
 21
212.4423076923077
 31
0.0
  0
LINE
  5
A0
330
17
100
AcDbEntity
  8
GEOMETRY
100
AcDbLine
 10
161.78133062801007
 20
212.4423076923077
 30
0.0
 11
162.08107599695194
 21
212.4423076923077
 31
0.0
  0
LINE
  5
A1
330
17
100
AcDbEntity
  8
GEOMETRY
100
AcDbLine
 10
162.08107599695194
 20
212.4423076923077
 30
0.0
 11
162.3808213658938
 21
212.4423076923077
 31
0.0
  0
LINE
  5
A2
330
17
100
AcDbEntity
  8
GEOMETRY
100
AcDbLine
 10
162.3808213658938
 20
212.4423076923077
 30
0.0
 11
162.68056673483568
 21
212.4423076923077
 31
0.0
  0
LINE
  5
A3
330
17
100
AcDbEntity
  8
GEOMETRY
100
AcDbLine
 10
162.68056673483568
 20
212.4423076923077
 30
0.0
 11
162.98031210377755
 21
212.4423076923077
 31
0.0
  0
LINE
  5
A4
330
17
100
AcDbEntity
  8
GEOMETRY
100
AcDbLine
 10
162.98031210377755
 20
212.4423076923077
 30
0.0
 11
163.32233202788575
 21
212.4423076923077
 31
0.0
  0
LINE
  5
A5
330
17
100
AcDbEntity
  8
GEOMETRY
100
AcDbLine
 10
163.32233202788575
 20
212.4423076923077
 30
0.0
 11
163.68126177406043
 21
212.4423076923077
 31
0.0
  0
LINE
  5
A6
330
17
100
AcDbEntity
  8
GEOMETRY
100
AcDbLine
 10
163.68126177406043
 20
212.4423076923077
 30
0.0
 11
164.04019152023514
 21
212.4423076923077
 31
0.0
  0
LINE
  5
A7
330
17
100
AcDbEntity
  8
GEOMETRY
100
AcDbLine
 10
164.04019152023514
 20
212.4423076923077
 30
0.0
 11
164.39912126640985
 21
212.4423076923077
 31
0.0
  0
LINE
  5
A8
330
17
100
AcDbEntity
  8
GEOMETRY
100
AcDbLine
 10
164.39912126640985
 20
212.4423076923077
 30
0.0
 11
164.76393474701305
 21
212.4423076923077
 31
0.0
  0
LINE
  5
A9
330
17
100
AcDbEntity
  8
GEOMETRY
100
AcDbLine
 10
164.76393474701305
 20
212.4423076923077
 30
0.0
 11
165.16405063418728
 21
212.4423076923077
 31
0.0
  0
LINE
  5
AA
330
17
100
AcDbEntity
  8
GEOMETRY
100
AcDbLine
 10
165.16405063418728
 20
212.4423076923077
 30
0.0
 11
165.5641665213615
 21
212.4423076923077
 31
0.0
  0
LINE
  5
AB
330
17
100
AcDbEntity
  8
GEOMETRY
100
AcDbLine
 10
165.5641665213615
 20
212.4423076923077
 30
0.0
 11
165.96428240853572
 21
212.4423076923077
 31
0.0
  0
LINE
  5
AC
330
17
100
AcDbEntity
  8
GEOMETRY
100
AcDbLine
 10
165.96428240853572
 20
212.4423076923077
 30
0.0
 11
166.36439829570998
 21
212.4423076923077
 31
0.0
  0
LINE
  5
AD
330
17
100
AcDbEntity
  8
GEOMETRY
100
AcDbLine
 10
166.36439829570998
 20
212.4423076923077
 30
0.0
 11
166.77658427412888
 21
212.4423076923077
 31
0.0
  0
LINE
  5
AE
330
17
100
AcDbEntity
  8
GEOMETRY
100
AcDbLine
 10
166.77658427412888
 20
212.4423076923077
 30
0.0
 11
167.19782282098126
 21
212.4423076923077
 31
0.0
  0
LINE
  5
AF
330
17
100
AcDbEntity
  8
GEOMETRY
100
AcDbLine
 10
167.19782282098126
 20
212.4423076923077
 30
0.0
 11
167.61906136783367
 21
212.4423076923077
 31
0.0
  0
LINE
  5
B0
330
17
100
AcDbEntity
  8
GEOMETRY
100
AcDbLine
 10
167.61906136783367
 20
212.4423076923077
 30
0.0
 11
168.04029991468605
 21
212.4423076923077
 31
0.0
  0
LINE
  5
B1
330
17
100
AcDbEntity
  8
GEOMETRY
100
AcDbLine
 10
168.04029991468605
 20
212.4423076923077
 30
0.0
 11
168.46153846153845
 21
212.4423076923077
 31
0.0
  0
LINE
  5
B2
330
17
100
AcDbEntity
  8
GEOMETRY
100
AcDbLine
 10
168.46153846153845
 20
212.4423076923077
 30
0.0
 11
168.88277700839086
 21
212.4423076923077
 31
0.0
  0
LINE
  5
B3
330
17
100
AcDbEntity
  8
GEOMETRY
100
AcDbLine
 10
168.88277700839086
 20
212.4423076923077
 30
0.0
 11
169.30401555524327
 21
212.4423076923077
 31
0.0
  0
LINE
  5
B4
330
17
100
AcDbEntity
  8
GEOMETRY
100
AcDbLine
 10
169.30401555524327
 20
212.4423076923077
 30
0.0
 11
169.72525410209565
 21
212.4423076923077
 31
0.0
  0
LINE
  5
B5
330
17
100
AcDbEntity
  8
GEOMETRY
100
AcDbLine
 10
169.72525410209565
 20
212.4423076923077
 30
0.0
 11
170.14649264894805
 21
212.4423076923077
 31
0.0
  0
LINE
  5
B6
330
17
100
AcDbEntity
  8
GEOMETRY
100
AcDbLine
 10
170.14649264894805
 20
212.4423076923077
 30
0.0
 11
170.55867862736693
 21
212.4423076923077
 31
0.0
  0
LINE
  5
B7
330
17
100
AcDbEntity
  8
GEOMETRY
100
AcDbLine
 10
170.55867862736693
 20
212.4423076923077
 30
0.0
 11
170.95879451454118
 21
212.4423076923077
 31
0.0
  0
LINE
  5
B8
330
17
100
AcDbEntity
  8
GEOMETRY
100
AcDbLine
 10
170.95879451454118
 20
212.4423076923077
 30
0.0
 11
171.3589104017154
 21
212.4423076923077
 31
0.0
  0
LINE
  5
B9
330
17
100
AcDbEntity
  8
GEOMETRY
100
AcDbLine
 10
171.3589104017154
 20
212.4423076923077
 30
0.0
 11
171.75902628888963
 21
212.4423076923077
 31
0.0
  0
LINE
  5
BA
330
17
100
AcDbEntity
  8
GEOMETRY
100
AcDbLine
 10
171.75902628888963
 20
212.4423076923077
 30
0.0
 11
172.15914217606385
 21
212.4423076923077
 31
0.0
  0
LINE
  5
BB
330
17
100
AcDbEntity
  8
GEOMETRY
100
AcDbLine
 10
172.15914217606385
 20
212.4423076923077
 30
0.0
 11
172.52395565666706
 21
212.4423076923077
 31
0.0
  0
LINE
  5
BC
330
17
100
AcDbEntity
  8
GEOMETRY
100
AcDbLine
 10
172.52395565666706
 20
212.4423076923077
 30
0.0
 11
172.88288540284177
 21
212.4423076923077
 31
0.0
  0
LINE
  5
BD
330
17
100
AcDbEntity
  8
GEOMETRY
100
AcDbLine
 10
172.88288540284177
 20
212.4423076923077
 30
0.0
 11
173.24181514901647
 21
212.4423076923077
 31
0.0
  0
LINE
  5
BE
330
17
100
AcDbEntity
  8
GEOMETRY
100
AcDbLine
 10
173.24181514901647
 20
212.4423076923077
 30
0.0
 11
173.60074489519116
 21
212.4423076923077
 31
0.0
  0
LINE
  5
BF
330
17
100
AcDbEntity
  8
GEOMETRY
100
AcDbLine
 10
173.60074489519116
 20
212.4423076923077
 30
0.0
 11
173.94276481929936
 21
212.4423076923077
 31
0.0
  0
LINE
  5
C0
330
17
100
AcDbEntity
  8
GEOMETRY
100
AcDbLine
 10
173.94276481929936
 20
212.4423076923077
 30
0.0
 11
174.24251018824123
 21
212.4423076923077
 31
0.0
  0
LINE
  5
C1
330
17
100
AcDbEntity
  8
GEOMETRY
100
AcDbLine
 10
174.24251018824123
 20
212.4423076923077
 30
0.0
 11
174.5422555571831
 21
212.4423076923077
 31
0.0
  0
LINE
  5
C2
330
17
100
AcDbEntity
  8
GEOMETRY
100
AcDbLine
 10
174.5422555571831
 20
212.4423076923077
 30
0.0
 11
174.84200092612497
 21
212.4423076923077
 31
0.0
  0
LINE
  5
C3
330
17
100
AcDbEntity
  8
GEOMETRY
100
AcDbLine
 10
174.84200092612497
 20
212.4423076923077
 30
0.0
 11
175.14174629506687
 21
212.4423076923077
 31
0.0
  0
LINE
  5
C4
330
17
100
AcDbEntity
  8
GEOMETRY
100
AcDbLine
 10
175.14174629506687
 20
212.4423076923077
 30
0.0
 11
175.38848104853787
 21
212.4423076923077
 31
0.0
  0
LINE
  5
C5
330
17
100
AcDbEntity
  8
GEOMETRY
100
AcDbLine
 10
175.38848104853787
 20
212.4423076923077
 30
0.0
 11
175.6140115558205
 21
212.4423076923077
 31
0.0
  0
LINE
  5
C6
330
17
100
AcDbEntity
  8
GEOMETRY
100
AcDbLine
 10
175.6140115558205
 20
212.4423076923077
 30
0.0
 11
175.83954206310315
 21
212.4423076923077
 31
0.0
  0
LINE
  5
C7
330
17
100
AcDbEntity
  8
GEOMETRY
100
AcDbLine
 10
175.83954206310315
 20
212.4423076923077
 30
0.0
 11
176.0650725703858
 21
212.4423076923077
 31
0.0
  0
LINE
  5
C8
330
17
100
AcDbEntity
  8
GEOMETRY
100
AcDbLine
 10
176.0650725703858
 20
212.4423076923077
 30
0.0
 11
176.2783853772359
 21
212.4423076923077
 31
0.0
  0
LINE
  5
C9
330
17
100
AcDbEntity
  8
GEOMETRY
100
AcDbLine
 10
176.2783853772359
 20
212.4423076923077
 30
0.0
 11
176.4183919814908
 21
212.4423076923077
 31
0.0
  0
LINE
  5
CA
330
17
100
AcDbEntity
  8
GEOMETRY
100
AcDbLine
 10
176.4183919814908
 20
212.4423076923077
 30
0.0
 11
176.5583985857457
 21
212.4423076923077
 31
0.0
  0
LINE
  5
CB
330
17
100
AcDbEntity
  8
GEOMETRY
100
AcDbLine
 10
176.5583985857457
 20
212.4423076923077
 30
0.0
 11
176.69840519000056
 21
212.4423076923077
 31
0.0
  0
LINE
  5
CC
330
17
100
AcDbEntity
  8
GEOMETRY
100
AcDbLine
 10
176.69840519000056
 20
212.4423076923077
 30
0.0
 11
176.83841179425545
 21
212.4423076923077
 31
0.0
  0
LINE
  5
CD
330
17
100
AcDbEntity
  8
GEOMETRY
100
AcDbLine
 10
176.83841179425545
 20
212.4423076923077
 30
0.0
 11
176.92553587349218
 21
212.4423076923077
 31
0.0
  0
LINE
  5
CE
330
17
100
AcDbEntity
  8
GEOMETRY
100
AcDbLine
 10
176.92553587349218
 20
212.4423076923077
 30
0.0
 11
176.9729980589653
 21
212.4423076923077
 31
0.0
  0
LINE
  5
CF
330
17
100
AcDbEntity
  8
GEOMETRY
100
AcDbLine
 10
176.9729980589653
 20
212.4423076923077
 30
0.0
 11
177.0204602444384
 21
212.4423076923077
 31
0.0
  0
LINE
  5
D0
330
17
100
AcDbEntity
  8
GEOMETRY
100
AcDbLine
 10
177.0204602444384
 20
212.4423076923077
 30
0.0
 11
177.0679224299115
 21
212.4423076923077
 31
0.0
  0
LINE
  5
D1
330
17
100
AcDbEntity
  8
GEOMETRY
100
AcDbLine
 10
177.0679224299115
 20
212.4423076923077
 30
0.0
 11
177.1153846153846
 21
212.4423076923077
 31
0.0
  0
LINE
  5
D2
330
17
100
AcDbEntity
  8
GEOMETRY
100
AcDbLine
 10
203.07692307692307
 20
190.80769230769232
 30
0.0
 11
203.07692307692307
 21
212.4423076923077
 31
0.0
  0
LINE
  5
D3
330
17
100
AcDbEntity
  8
GEOMETRY
100
AcDbLine
 10
159.8076923076923
 20
212.4423076923077
 30
0.0
 11
159.8076923076923
 21
221.09615384615387
 31
0.0
  0
LINE
  5
D4
330
17
100
AcDbEntity
  8
GEOMETRY
100
AcDbLine
 10
177.1153846153846
 20
212.4423076923077
 30
0.0
 11
177.1153846153846
 21
221.09615384615387
 31
0.0
  0
LINE
  5
D5
330
17
100
AcDbEntity
  8
GEOMETRY
100
AcDbLine
 10
260.1923076923077
 20
86.96153846153847
 30
0.0
 11
260.1923076923077
 21
95.61538461538461
 31
0.0
  0
LINE
  5
D6
330
17
100
AcDbEntity
  8
GEOMETRY
100
AcDbLine
 10
260.1923076923077
 20
86.96153846153847
 30
0.0
 11
303.46153846153845
 21
86.96153846153847
 31
0.0
  0
LINE
  5
D7
330
17
100
AcDbEntity
  8
GEOMETRY
100
AcDbLine
 10
303.46153846153845
 20
86.96153846153847
 30
0.0
 11
303.46153846153845
 21
95.61538461538461
 31
0.0
  0
LINE
  5
D8
330
17
100
AcDbEntity
  8
GEOMETRY
100
AcDbLine
 10
290.4807692307692
 20
95.61538461538461
 30
0.0
 11
303.46153846153845
 21
95.61538461538461
 31
0.0
  0
LINE
  5
D9
330
17
100
AcDbEntity
  8
GEOMETRY
100
AcDbLine
 10
290.4807692307692
 20
95.61538461538461
 30
0.0
 11
290.4807692307692
 21
138.8846153846154
 31
0.0
  0
LINE
  5
DA
330
17
100
AcDbEntity
  8
GEOMETRY
100
AcDbLine
 10
281.8269230769231
 20
138.8846153846154
 30
0.0
 11
290.4807692307692
 21
138.8846153846154
 31
0.0
  0
LINE
  5
DB
330
17
100
AcDbEntity
  8
GEOMETRY
100
AcDbLine
 10
281.8269230769231
 20
95.61538461538461
 30
0.0
 11
281.8269230769231
 21
138.8846153846154
 31
0.0
  0
LINE
  5
DC
330
17
100
AcDbEntity
  8
GEOMETRY
100
AcDbLine
 10
260.1923076923077
 20
95.61538461538461
 30
0.0
 11
281.8269230769231
 21
95.61538461538461
 31
0.0
  0
LINE
  5
DD
330
17
100
AcDbEntity
  8
GEOMETRY
100
AcDbLine
 10
290.4807692307692
 20
117.25
 30
0.0
 11
290.4807692307692
 21
117.46195198300808
 31
0.0
  0
LINE
  5
DE
330
17
100
AcDbEntity
  8
GEOMETRY
100
AcDbLine
 10
290.4807692307692
 20
117.46195198300808
 30
0.0
 11
290.4807692307692
 21
117.67390396601614
 31
0.0
  0
LINE
  5
DF
330
17
100
AcDbEntity
  8
GEOMETRY
100
AcDbLine
 10
290.4807692307692
 20
117.67390396601614
 30
0.0
 11
290.4807692307692
 21
117.8858559490242
 31
0.0
  0
LINE
  5
E0
330
17
100
AcDbEntity
  8
GEOMETRY
100
AcDbLine
 10
290.4807692307692
 20
117.8858559490242
 30
0.0
 11
290.4807692307692
 21
118.09780793203227
 31
0.0
  0
LINE
  5
E1
330
17
100
AcDbEntity
  8
GEOMETRY
100
AcDbLine
 10
290.4807692307692
 20
118.09780793203227
 30
0.0
 11
290.4807692307692
 21
118.3086175925416
 31
0.0
  0
LINE
  5
E2
330
17
100
AcDbEntity
  8
GEOMETRY
100
AcDbLine
 10
290.4807692307692
 20
118.3086175925416
 30
0.0
 11
290.4807692307692
 21
118.51790415638592
 31
0.0
  0
LINE
  5
E3
330
17
100
AcDbEntity
  8
GEOMETRY
100
AcDbLine
 10
290.4807692307692
 20
118.51790415638592
 30
0.0
 11
290.4807692307692
 21
118.72719072023025
 31
0.0
  0
LINE
  5
E4
330
17
100
AcDbEntity
  8
GEOMETRY
100
AcDbLine
 10
290.4807692307692
 20
118.72719072023025
 30
0.0
 11
290.4807692307692
 21
118.93647728407458
 31
0.0
  0
LINE
  5
E5
330
17
100
AcDbEntity
  8
GEOMETRY
100
AcDbLine
 10
290.4807692307692
 20
118.93647728407458
 30
0.0
 11
290.4807692307692
 21
119.14576384791891
 31
0.0
  0
LINE
  5
E6
330
17
100
AcDbEntity
  8
GEOMETRY
100
AcDbLine
 10
290.4807692307692
 20
119.14576384791891
 30
0.0
 11
290.4807692307692
 21
119.3505098525047
 31
0.0
  0
LINE
  5
E7
330
17
100
AcDbEntity
  8
GEOMETRY
100
AcDbLine
 10
290.4807692307692
 20
119.3505098525047
 30
0.0
 11
290.4807692307692
 21
119.55449909721408
 31
0.0
  0
LINE
  5
E8
330
17
100
AcDbEntity
  8
GEOMETRY
100
AcDbLine
 10
290.4807692307692
 20
119.55449909721408
 30
0.0
 11
290.4807692307692
 21
119.75848834192345
 31
0.0
  0
LINE
  5
E9
330
17
100
AcDbEntity
  8
GEOMETRY
100
AcDbLine
 10
290.4807692307692
 20
119.75848834192345
 30
0.0
 11
290.4807692307692
 21
119.96247758663282
 31
0.0
  0
LINE
  5
EA
330
17
100
AcDbEntity
  8
GEOMETRY
100
AcDbLine
 10
290.4807692307692
 20
119.96247758663282
 30
0.0
 11
290.4807692307692
 21
120.16422037355804
 31
0.0
  0
LINE
  5
EB
330
17
100
AcDbEntity
  8
GEOMETRY
100
AcDbLine
 10
290.4807692307692
 20
120.16422037355804
 30
0.0
 11
290.4807692307692
 21
120.3603470160229
 31
0.0
  0
LINE
  5
EC
330
17
100
AcDbEntity
  8
GEOMETRY
100
AcDbLine
 10
290.4807692307692
 20
120.3603470160229
 30
0.0
 11
290.4807692307692
 21
120.55647365848776
 31
0.0
  0
LINE
  5
ED
330
17
100
AcDbEntity
  8
GEOMETRY
100
AcDbLine
 10
290.4807692307692
 20
120.55647365848776
 30
0.0
 11
290.4807692307692
 21
120.75260030095262
 31
0.0
  0
LINE
  5
EE
330
17
100
AcDbEntity
  8
GEOMETRY
100
AcDbLine
 10
290.4807692307692
 20
120.75260030095262
 30
0.0
 11
290.4807692307692
 21
120.94872694341748
 31
0.0
  0
LINE
  5
EF
330
17
100
AcDbEntity
  8
GEOMETRY
100
AcDbLine
 10
290.4807692307692
 20
120.94872694341748
 30
0.0
 11
290.4807692307692
 21
121.1374757226189
 31
0.0
  0
LINE
  5
F0
330
17
100
AcDbEntity
  8
GEOMETRY
100
AcDbLine
 10
290.4807692307692
 20
121.1374757226189
 30
0.0
 11
290.4807692307692
 21
121.32327335651493
 31
0.0
  0
LINE
  5
F1
330
17
100
AcDbEntity
  8
GEOMETRY
100
AcDbLine
 10
290.4807692307692
 20
121.32327335651493
 30
0.0
 11
290.4807692307692
 21
121.50907099041098
 31
0.0
  0
LINE
  5
F2
330
17
100
AcDbEntity
  8
GEOMETRY
100
AcDbLine
 10
290.4807692307692
 20
121.50907099041098
 30
0.0
 11
290.4807692307692
 21
121.694868624307
 31
0.0
  0
LINE
  5
F3
330
17
100
AcDbEntity
  8
GEOMETRY
100
AcDbLine
 10
290.4807692307692
 20
121.694868624307
 30
0.0
 11
290.4807692307692
 21
121.87885689797199
 31
0.0
  0
LINE
  5
F4
330
17
100
AcDbEntity
  8
GEOMETRY
100
AcDbLine
 10
290.4807692307692
 20
121.87885689797199
 30
0.0
 11
290.4807692307692
 21
122.05198901025065
 31
0.0
  0
LINE
  5
F5
330
17
100
AcDbEntity
  8
GEOMETRY
100
AcDbLine
 10
290.4807692307692
 20
122.05198901025065
 30
0.0
 11
290.4807692307692
 21
122.22512112252932
 31
0.0
  0
LINE
  5
F6
330
17
100
AcDbEntity
  8
GEOMETRY
100
AcDbLine
 10
290.4807692307692
 20
122.22512112252932
 30
0.0
 11
290.4807692307692
 21
122.39825323480798
 31
0.0
  0
LINE
  5
F7
330
17
100
AcDbEntity
  8
GEOMETRY
100
AcDbLine
 10
290.4807692307692
 20
122.39825323480798
 30
0.0
 11
290.4807692307692
 21
122.57138534708665
 31
0.0
  0
LINE
  5
F8
330
17
100
AcDbEntity
  8
GEOMETRY
100
AcDbLine
 10
290.4807692307692
 20
122.57138534708665
 30
0.0
 11
290.4807692307692
 21
122.73603588314654
 31
0.0
  0
LINE
  5
F9
330
17
100
AcDbEntity
  8
GEOMETRY
100
AcDbLine
 10
290.4807692307692
 20
122.73603588314654
 30
0.0
 11
290.4807692307692
 21
122.89432523704234
 31
0.0
  0
LINE
  5
FA
330
17
100
AcDbEntity
  8
GEOMETRY
100
AcDbLine
 10
290.4807692307692
 20
122.89432523704234
 30
0.0
 11
290.4807692307692
 21
123.05261459093813
 31
0.0
  0
LINE
  5
FB
330
17
100
AcDbEntity
  8
GEOMETRY
100
AcDbLine
 10
290.4807692307692
 20
123.05261459093813
 30
0.0
 11
290.4807692307692
 21
123.21090394483394
 31
0.0
  0
LINE
  5
FC
330
17
100
AcDbEntity
  8
GEOMETRY
100
AcDbLine
 10
290.4807692307692
 20
123.21090394483394
 30
0.0
 11
290.4807692307692
 21
123.36919329872975
 31
0.0
  0
LINE
  5
FD
330
17
100
AcDbEntity
  8
GEOMETRY
100
AcDbLine
 10
290.4807692307692
 20
123.36919329872975
 30
0.0
 11
290.4807692307692
 21
123.51064931377582
 31
0.0
  0
LINE
  5
FE
330
17
100
AcDbEntity
  8
GEOMETRY
100
AcDbLine
 10
290.4807692307692
 20
123.51064931377582
 30
0.0
 11
290.4807692307692
 21
123.6521053288219
 31
0.0
  0
LINE
  5
FF
330
17
100
AcDbEntity
  8
GEOMETRY
100
AcDbLine
 10
290.4807692307692
 20
123.6521053288219
 30
0.0
 11
290.4807692307692
 21
123.79356134386796
 31
0.0
  0
LINE
  5
100
330
17
100
AcDbEntity
  8
GEOMETRY
100
AcDbLine
 10
290.4807692307692
 20
123.79356134386796
 30
0.0
 11
290.4807692307692
 21
123.93501735891405
 31
0.0
  0
LINE
  5
101
330
17
100
AcDbEntity
  8
GEOMETRY
100
AcDbLine
 10
290.4807692307692
 20
123.93501735891405
 30
0.0
 11
290.4807692307692
 21
124.06849670382572
 31
0.0
  0
LINE
  5
102
330
17
100
AcDbEntity
  8
GEOMETRY
100
AcDbLine
 10
290.4807692307692
 20
124.06849670382572
 30
0.0
 11
290.4807692307692
 21
124.19134048855815
 31
0.0
  0
LINE
  5
103
330
17
100
AcDbEntity
  8
GEOMETRY
100
AcDbLine
 10
290.4807692307692
 20
124.19134048855815
 30
0.0
 11
290.4807692307692
 21
124.3141842732906
 31
0.0
  0
LINE
  5
104
330
17
100
AcDbEntity
  8
GEOMETRY
100
AcDbLine
 10
290.4807692307692
 20
124.3141842732906
 30
0.0
 11
290.4807692307692
 21
124.43702805802306
 31
0.0
  0
LINE
  5
105
330
17
100
AcDbEntity
  8
GEOMETRY
100
AcDbLine
 10
290.4807692307692
 20
124.43702805802306
 30
0.0
 11
290.4807692307692
 21
124.55987184275551
 31
0.0
  0
LINE
  5
106
330
17
100
AcDbEntity
  8
GEOMETRY
100
AcDbLine
 10
290.4807692307692
 20
124.55987184275551
 30
0.0
 11
290.4807692307692
 21
124.66543814561747
 31
0.0
  0
LINE
  5
107
330
17
100
AcDbEntity
  8
GEOMETRY
100
AcDbLine
 10
290.4807692307692
 20
124.66543814561747
 30
0.0
 11
290.4807692307692
 21
124.76812486816766
 31
0.0
  0
LINE
  5
108
330
17
100
AcDbEntity
  8
GEOMETRY
100
AcDbLine
 10
290.4807692307692
 20
124.76812486816766
 30
0.0
 11
290.4807692307692
 21
124.87081159071786
 31
0.0
  0
LINE
  5
109
330
17
100
AcDbEntity
  8
GEOMETRY
100
AcDbLine
 10
290.4807692307692
 20
124.87081159071786
 30
0.0
 11
290.4807692307692
 21
124.97349831326805
 31
0.0
  0
LINE
  5
10A
330
17
100
AcDbEntity
  8
GEOMETRY
100
AcDbLine
 10
290.4807692307692
 20
124.97349831326805
 30
0.0
 11
290.4807692307692
 21
125.07005691944724
 31
0.0
  0
LINE
  5
10B
330
17
100
AcDbEntity
  8
GEOMETRY
100
AcDbLine
 10
290.4807692307692
 20
125.07005691944724
 30
0.0
 11
290.4807692307692
 21
125.15129523469889
 31
0.0
  0
LINE
  5
10C
330
17
100
AcDbEntity
  8
GEOMETRY
100
AcDbLine
 10
290.4807692307692
 20
125.15129523469889
 30
0.0
 11
290.4807692307692
 21
125.23253354995053
 31
0.0
  0
LINE
  5
10D
330
17
100
AcDbEntity
  8
GEOMETRY
100
AcDbLine
 10
290.4807692307692
 20
125.23253354995053
 30
0.0
 11
290.4807692307692
 21
125.31377186520217
 31
0.0
  0
LINE
  5
10E
330
17
100
AcDbEntity
  8
GEOMETRY
100
AcDbLine
 10
290.4807692307692
 20
125.31377186520217
 30
0.0
 11
290.4807692307692
 21
125.39501018045382
 31
0.0
  0
LINE
  5
10F
330
17
100
AcDbEntity
  8
GEOMETRY
100
AcDbLine
 10
290.4807692307692
 20
125.39501018045382
 30
0.0
 11
290.4807692307692
 21
125.4601984769566
 31
0.0
  0
LINE
  5
110
330
17
100
AcDbEntity
  8
GEOMETRY
100
AcDbLine
 10
290.4807692307692
 20
125.4601984769566
 30
0.0
 11
290.4807692307692
 21
125.51896676595983
 31
0.0
  0
LINE
  5
111
330
17
100
AcDbEntity
  8
GEOMETRY
100
AcDbLine
 10
290.4807692307692
 20
125.51896676595983
 30
0.0
 11
290.4807692307692
 21
125.57773505496309
 31
0.0
  0
LINE
  5
112
330
17
100
AcDbEntity
  8
GEOMETRY
100
AcDbLine
 10
290.4807692307692
 20
125.57773505496309
 30
0.0
 11
290.4807692307692
 21
125.63650334396631
 31
0.0
  0
LINE
  5
113
330
17
100
AcDbEntity
  8
GEOMETRY
100
AcDbLine
 10
290.4807692307692
 20
125.63650334396631
 30
0.0
 11
290.4807692307692
 21
125.69195605131515
 31
0.0
  0
LINE
  5
114
330
17
100
AcDbEntity
  8
GEOMETRY
100
AcDbLine
 10
290.4807692307692
 20
125.69195605131515
 30
0.0
 11
290.4807692307692
 21
125.7275152687376
 31
0.0
  0
LINE
  5
115
330
17
100
AcDbEntity
  8
GEOMETRY
100
AcDbLine
 10
290.4807692307692
 20
125.76307448616006
 30
0.0
 11
290.4807692307692
 21
125.79863370358252
 31
0.0
  0
LINE
  5
116
330
17
100
AcDbEntity
  8
GEOMETRY
100
AcDbLine
 10
290.4807692307692
 20
125.79863370358252
 30
0.0
 11
290.4807692307692
 21
125.83419292100498
 31
0.0
  0
LINE
  5
117
330
17
100
AcDbEntity
  8
GEOMETRY
100
AcDbLine
 10
290.4807692307692
 20
125.85623428164355
 30
0.0
 11
290.4807692307692
 21
125.8681372496942
 31
0.0
  0
LINE
  5
118
330
17
100
AcDbEntity
  8
GEOMETRY
100
AcDbLine
 10
290.4807692307692
 20
125.8681372496942
 30
0.0
 11
290.4807692307692
 21
125.88004021774486
 31
0.0
  0
LINE
  5
119
330
17
100
AcDbEntity
  8
GEOMETRY
100
AcDbLine
 10
290.4807692307692
 20
125.626873332717
 30
0.0
 11
290.4807692307692
 21
125.4868667284621
 31
0.0
  0
LINE
  5
11A
330
17
100
AcDbEntity
  8
GEOMETRY
100
AcDbLine
 10
290.4807692307692
 20
125.34686012420724
 30
0.0
 11
290.4807692307692
 21
125.20685351995235
 31
0.0
  0
LINE
  5
11B
330
17
100
AcDbEntity
  8
GEOMETRY
100
AcDbLine
 10
290.4807692307692
 20
125.20685351995235
 30
0.0
 11
290.4807692307692
 21
125.06684691569745
 31
0.0
  0
LINE
  5
11C
330
17
100
AcDbEntity
  8
GEOMETRY
100
AcDbLine
 10
290.4807692307692
 20
125.06684691569745
 30
0.0
 11
290.4807692307692
 21
124.85353410884736
 31
0.0
  0
LINE
  5
11D
330
17
100
AcDbEntity
  8
GEOMETRY
100
AcDbLine
 10
290.4807692307692
 20
124.85353410884736
 30
0.0
 11
290.4807692307692
 21
124.6280036015647
 31
0.0
  0
LINE
  5
11E
330
17
100
AcDbEntity
  8
GEOMETRY
100
AcDbLine
 10
290.4807692307692
 20
124.6280036015647
 30
0.0
 11
290.4807692307692
 21
124.40247309428206
 31
0.0
  0
LINE
  5
11F
330
17
100
AcDbEntity
  8
GEOMETRY
100
AcDbLine
 10
290.4807692307692
 20
124.40247309428206
 30
0.0
 11
290.4807692307692
 21
124.17694258699942
 31
0.0
  0
LINE
  5
120
330
17
100
AcDbEntity
  8
GEOMETRY
100
AcDbLine
 10
290.4807692307692
 20
124.17694258699942
 30
0.0
 11
290.4807692307692
 21
123.93020783352841
 31
0.0
  0
LINE
  5
121
330
17
100
AcDbEntity
  8
GEOMETRY
100
AcDbLine
 10
290.4807692307692
 20
123.93020783352841
 30
0.0
 11
290.4807692307692
 21
123.63046246458653
 31
0.0
  0
LINE
  5
122
330
17
100
AcDbEntity
  8
GEOMETRY
100
AcDbLine
 10
290.4807692307692
 20
123.63046246458653
 30
0.0
 11
290.4807692307692
 21
123.33071709564464
 31
0.0
  0
LINE
  5
123
330
17
100
AcDbEntity
  8
GEOMETRY
100
AcDbLine
 10
290.4807692307692
 20
123.33071709564464
 30
0.0
 11
290.4807692307692
 21
123.03097172670277
 31
0.0
  0
LINE
  5
124
330
17
100
AcDbEntity
  8
GEOMETRY
100
AcDbLine
 10
290.4807692307692
 20
123.03097172670277
 30
0.0
 11
290.4807692307692
 21
122.7312263577609
 31
0.0
  0
LINE
  5
125
330
17
100
AcDbEntity
  8
GEOMETRY
100
AcDbLine
 10
290.4807692307692
 20
122.7312263577609
 30
0.0
 11
290.4807692307692
 21
122.38920643365273
 31
0.0
  0
LINE
  5
126
330
17
100
AcDbEntity
  8
GEOMETRY
100
AcDbLine
 10
290.4807692307692
 20
122.38920643365273
 30
0.0
 11
290.4807692307692
 21
122.03027668747802
 31
0.0
  0
LINE
  5
127
330
17
100
AcDbEntity
  8
GEOMETRY
100
AcDbLine
 10
290.4807692307692
 20
122.03027668747802
 30
0.0
 11
290.4807692307692
 21
121.67134694130331
 31
0.0
  0
LINE
  5
128
330
17
100
AcDbEntity
  8
GEOMETRY
100
AcDbLine
 10
290.4807692307692
 20
121.67134694130331
 30
0.0
 11
290.4807692307692
 21
121.31241719512863
 31
0.0
  0
LINE
  5
129
330
17
100
AcDbEntity
  8
GEOMETRY
100
AcDbLine
 10
290.4807692307692
 20
121.31241719512863
 30
0.0
 11
290.4807692307692
 21
120.94760371452541
 31
0.0
  0
LINE
  5
12A
330
17
100
AcDbEntity
  8
GEOMETRY
100
AcDbLine
 10
290.4807692307692
 20
120.94760371452541
 30
0.0
 11
290.4807692307692
 21
120.54748782735118
 31
0.0
  0
LINE
  5
12B
330
17
100
AcDbEntity
  8
GEOMETRY
100
AcDbLine
 10
290.4807692307692
 20
120.54748782735118
 30
0.0
 11
290.4807692307692
 21
120.14737194017695
 31
0.0
  0
LINE
  5
12C
330
17
100
AcDbEntity
  8
GEOMETRY
100
AcDbLine
 10
290.4807692307692
 20
120.14737194017695
 30
0.0
 11
290.4807692307692
 21
119.74725605300273
 31
0.0
  0
LINE
  5
12D
330
17
100
AcDbEntity
  8
GEOMETRY
100
AcDbLine
 10
290.4807692307692
 20
119.74725605300273
 30
0.0
 11
290.4807692307692
 21
119.3471401658285
 31
0.0
  0
LINE
  5
12E
330
17
100
AcDbEntity
  8
GEOMETRY
100
AcDbLine
 10
290.4807692307692
 20
119.3471401658285
 30
0.0
 11
290.4807692307692
 21
118.9349541874096
 31
0.0
  0
LINE
  5
12F
330
17
100
AcDbEntity
  8
GEOMETRY
100
AcDbLine
 10
290.4807692307692
 20
118.9349541874096
 30
0.0
 11
290.4807692307692
 21
118.5137156405572
 31
0.0
  0
LINE
  5
130
330
17
100
AcDbEntity
  8
GEOMETRY
100
AcDbLine
 10
290.4807692307692
 20
118.5137156405572
 30
0.0
 11
290.4807692307692
 21
118.0924770937048
 31
0.0
  0
LINE
  5
131
330
17
100
AcDbEntity
  8
GEOMETRY
100
AcDbLine
 10
290.4807692307692
 20
118.0924770937048
 30
0.0
 11
290.4807692307692
 21
117.67123854685241
 31
0.0
  0
LINE
  5
132
330
17
100
AcDbEntity
  8
GEOMETRY
100
AcDbLine
 10
290.4807692307692
 20
117.67123854685241
 30
0.0
 11
290.4807692307692
 21
117.25
 31
0.0
  0
LINE
  5
133
330
17
100
AcDbEntity
  8
GEOMETRY
100
AcDbLine
 10
290.4807692307692
 20
117.25
 30
0.0
 11
290.4807692307692
 21
116.8287614531476
 31
0.0
  0
LINE
  5
134
330
17
100
AcDbEntity
  8
GEOMETRY
100
AcDbLine
 10
290.4807692307692
 20
116.8287614531476
 30
0.0
 11
290.4807692307692
 21
116.40752290629521
 31
0.0
  0
LINE
  5
135
330
17
100
AcDbEntity
  8
GEOMETRY
100
AcDbLine
 10
290.4807692307692
 20
116.40752290629521
 30
0.0
 11
290.4807692307692
 21
115.9862843594428
 31
0.0
  0
LINE
  5
136
330
17
100
AcDbEntity
  8
GEOMETRY
100
AcDbLine
 10
290.4807692307692
 20
115.9862843594428
 30
0.0
 11
290.4807692307692
 21
115.56504581259041
 31
0.0
  0
LINE
  5
137
330
17
100
AcDbEntity
  8
GEOMETRY
100
AcDbLine
 10
290.4807692307692
 20
115.56504581259041
 30
0.0
 11
290.4807692307692
 21
115.15285983417152
 31
0.0
  0
LINE
  5
138
330
17
100
AcDbEntity
  8
GEOMETRY
100
AcDbLine
 10
290.4807692307692
 20
115.15285983417152
 30
0.0
 11
290.4807692307692
 21
114.75274394699728
 31
0.0
  0
LINE
  5
139
330
17
100
AcDbEntity
  8
GEOMETRY
100
AcDbLine
 10
290.4807692307692
 20
114.75274394699728
 30
0.0
 11
290.4807692307692
 21
114.35262805982306
 31
0.0
  0
LINE
  5
13A
330
17
100
AcDbEntity
  8
GEOMETRY
100
AcDbLine
 10
290.4807692307692
 20
114.35262805982306
 30
0.0
 11
290.4807692307692
 21
113.95251217264882
 31
0.0
  0
LINE
  5
13B
330
17
100
AcDbEntity
  8
GEOMETRY
100
AcDbLine
 10
290.4807692307692
 20
113.95251217264882
 30
0.0
 11
290.4807692307692
 21
113.5523962854746
 31
0.0
  0
LINE
  5
13C
330
17
100
AcDbEntity
  8
GEOMETRY
100
AcDbLine
 10
290.4807692307692
 20
113.5523962854746
 30
0.0
 11
290.4807692307692
 21
113.1875828048714
 31
0.0
  0
LINE
  5
13D
330
17
100
AcDbEntity
  8
GEOMETRY
100
AcDbLine
 10
290.4807692307692
 20
113.1875828048714
 30
0.0
 11
290.4807692307692
 21
112.82865305869669
 31
0.0
  0
LINE
  5
13E
330
17
100
AcDbEntity
  8
GEOMETRY
100
AcDbLine
 10
290.4807692307692
 20
112.82865305869669
 30
0.0
 11
290.4807692307692
 21
112.46972331252199
 31
0.0
  0
LINE
  5
13F
330
17
100
AcDbEntity
  8
GEOMETRY
100
AcDbLine
 10
290.4807692307692
 20
112.46972331252199
 30
0.0
 11
290.4807692307692
 21
112.1107935663473
 31
0.0
  0
LINE
  5
140
330
17
100
AcDbEntity
  8
GEOMETRY
100
AcDbLine
 10
290.4807692307692
 20
112.1107935663473
 30
0.0
 11
290.4807692307692
 21
111.76877364223911
 31
0.0
  0
LINE
  5
141
330
17
100
AcDbEntity
  8
GEOMETRY
100
AcDbLine
 10
290.4807692307692
 20
111.76877364223911
 30
0.0
 11
290.4807692307692
 21
111.46902827329723
 31
0.0
  0
LINE
  5
142
330
17
100
AcDbEntity
  8
GEOMETRY
100
AcDbLine
 10
290.4807692307692
 20
111.46902827329723
 30
0.0
 11
290.4807692307692
 21
111.16928290435536
 31
0.0
  0
LINE
  5
143
330
17
100
AcDbEntity
  8
GEOMETRY
100
AcDbLine
 10
290.4807692307692
 20
111.16928290435536
 30
0.0
 11
290.4807692307692
 21
110.86953753541349
 31
0.0
  0
LINE
  5
144
330
17
100
AcDbEntity
  8
GEOMETRY
100
AcDbLine
 10
290.4807692307692
 20
110.86953753541349
 30
0.0
 11
290.4807692307692
 21
110.5697921664716
 31
0.0
  0
LINE
  5
145
330
17
100
AcDbEntity
  8
GEOMETRY
100
AcDbLine
 10
290.4807692307692
 20
110.5697921664716
 30
0.0
 11
290.4807692307692
 21
110.32305741300061
 31
0.0
  0
LINE
  5
146
330
17
100
AcDbEntity
  8
GEOMETRY
100
AcDbLine
 10
290.4807692307692
 20
110.32305741300061
 30
0.0
 11
290.4807692307692
 21
110.09752690571796
 31
0.0
  0
LINE
  5
147
330
17
100
AcDbEntity
  8
GEOMETRY
100
AcDbLine
 10
290.4807692307692
 20
110.09752690571796
 30
0.0
 11
290.4807692307692
 21
109.87199639843531
 31
0.0
  0
LINE
  5
148
330
17
100
AcDbEntity
  8
GEOMETRY
100
AcDbLine
 10
290.4807692307692
 20
109.87199639843531
 30
0.0
 11
290.4807692307692
 21
109.64646589115266
 31
0.0
  0
LINE
  5
149
330
17
100
AcDbEntity
  8
GEOMETRY
100
AcDbLine
 10
290.4807692307692
 20
109.64646589115266
 30
0.0
 11
290.4807692307692
 21
109.43315308430255
 31
0.0
  0
LINE
  5
14A
330
17
100
AcDbEntity
  8
GEOMETRY
100
AcDbLine
 10
290.4807692307692
 20
109.43315308430255
 30
0.0
 11
290.4807692307692
 21
109.29314648004767
 31
0.0
  0
LINE
  5
14B
330
17
100
AcDbEntity
  8
GEOMETRY
100
AcDbLine
 10
290.4807692307692
 20
109.29314648004767
 30
0.0
 11
290.4807692307692
 21
109.15313987579279
 31
0.0
  0
LINE
  5
14C
330
17
100
AcDbEntity
  8
GEOMETRY
100
AcDbLine
 10
290.4807692307692
 20
109.15313987579279
 30
0.0
 11
290.4807692307692
 21
109.0131332715379
 31
0.0
  0
LINE
  5
14D
330
17
100
AcDbEntity
  8
GEOMETRY
100
AcDbLine
 10
290.4807692307692
 20
109.0131332715379
 30
0.0
 11
290.4807692307692
 21
108.87312666728302
 31
0.0
  0
LINE
  5
14E
330
17
100
AcDbEntity
  8
GEOMETRY
100
AcDbLine
 10
290.4807692307692
 20
108.87312666728302
 30
0.0
 11
290.4807692307692
 21
108.7860025880463
 31
0.0
  0
LINE
  5
14F
330
17
100
AcDbEntity
  8
GEOMETRY
100
AcDbLine
 10
290.4807692307692
 20
108.7860025880463
 30
0.0
 11
290.4807692307692
 21
108.73854040257318
 31
0.0
  0
LINE
  5
150
330
17
100
AcDbEntity
  8
GEOMETRY
100
AcDbLine
 10
290.4807692307692
 20
108.73854040257318
 30
0.0
 11
290.4807692307692
 21
108.69107821710007
 31
0.0
  0
LINE
  5
151
330
17
100
AcDbEntity
  8
GEOMETRY
100
AcDbLine
 10
290.4807692307692
 20
108.69107821710007
 30
0.0
 11
290.4807692307692
 21
108.64361603162696
 31
0.0
  0
LINE
  5
152
330
17
100
AcDbEntity
  8
GEOMETRY
100
AcDbLine
 10
290.4807692307692
 20
108.64361603162696
 30
0.0
 11
290.4807692307692
 21
108.59615384615385
 31
0.0
  0
LINE
  5
153
330
17
100
AcDbEntity
  8
GEOMETRY
100
AcDbLine
 10
290.4807692307692
 20
108.59615384615385
 30
0.0
 11
290.4807692307692
 21
108.6080568142045
 31
0.0
  0
LINE
  5
154
330
17
100
AcDbEntity
  8
GEOMETRY
100
AcDbLine
 10
290.4807692307692
 20
108.8634966560337
 30
0.0
 11
290.4807692307692
 21
108.92226494503694
 31
0.0
  0
LINE
  5
155
330
17
100
AcDbEntity
  8
GEOMETRY
100
AcDbLine
 10
290.4807692307692
 20
108.92226494503694
 30
0.0
 11
290.4807692307692
 21
108.98103323404018
 31
0.0
  0
LINE
  5
156
330
17
100
AcDbEntity
  8
GEOMETRY
100
AcDbLine
 10
290.4807692307692
 20
108.98103323404018
 30
0.0
 11
290.4807692307692
 21
109.03980152304341
 31
0.0
  0
LINE
  5
157
330
17
100
AcDbEntity
  8
GEOMETRY
100
AcDbLine
 10
290.4807692307692
 20
109.10498981954619
 30
0.0
 11
290.4807692307692
 21
109.18622813479784
 31
0.0
  0
LINE
  5
158
330
17
100
AcDbEntity
  8
GEOMETRY
100
AcDbLine
 10
290.4807692307692
 20
109.18622813479784
 30
0.0
 11
290.4807692307692
 21
109.26746645004948
 31
0.0
  0
LINE
  5
159
330
17
100
AcDbEntity
  8
GEOMETRY
100
AcDbLine
 10
290.4807692307692
 20
109.26746645004948
 30
0.0
 11
290.4807692307692
 21
109.34870476530114
 31
0.0
  0
LINE
  5
15A
330
17
100
AcDbEntity
  8
GEOMETRY
100
AcDbLine
 10
290.4807692307692
 20
109.34870476530114
 30
0.0
 11
290.4807692307692
 21
109.42994308055277
 31
0.0
  0
LINE
  5
15B
330
17
100
AcDbEntity
  8
GEOMETRY
100
AcDbLine
 10
290.4807692307692
 20
109.42994308055277
 30
0.0
 11
290.4807692307692
 21
109.52650168673196
 31
0.0
  0
LINE
  5
15C
330
17
100
AcDbEntity
  8
GEOMETRY
100
AcDbLine
 10
290.4807692307692
 20
109.52650168673196
 30
0.0
 11
290.4807692307692
 21
109.62918840928215
 31
0.0
  0
LINE
  5
15D
330
17
100
AcDbEntity
  8
GEOMETRY
100
AcDbLine
 10
290.4807692307692
 20
109.62918840928215
 30
0.0
 11
290.4807692307692
 21
109.73187513183234
 31
0.0
  0
LINE
  5
15E
330
17
100
AcDbEntity
  8
GEOMETRY
100
AcDbLine
 10
290.4807692307692
 20
109.73187513183234
 30
0.0
 11
290.4807692307692
 21
109.83456185438254
 31
0.0
  0
LINE
  5
15F
330
17
100
AcDbEntity
  8
GEOMETRY
100
AcDbLine
 10
290.4807692307692
 20
109.83456185438254
 30
0.0
 11
290.4807692307692
 21
109.94012815724449
 31
0.0
  0
LINE
  5
160
330
17
100
AcDbEntity
  8
GEOMETRY
100
AcDbLine
 10
290.4807692307692
 20
109.94012815724449
 30
0.0
 11
290.4807692307692
 21
110.06297194197694
 31
0.0
  0
LINE
  5
161
330
17
100
AcDbEntity
  8
GEOMETRY
100
AcDbLine
 10
290.4807692307692
 20
110.06297194197694
 30
0.0
 11
290.4807692307692
 21
110.1858157267094
 31
0.0
  0
LINE
  5
162
330
17
100
AcDbEntity
  8
GEOMETRY
100
AcDbLine
 10
290.4807692307692
 20
110.1858157267094
 30
0.0
 11
290.4807692307692
 21
110.30865951144185
 31
0.0
  0
LINE
  5
163
330
17
100
AcDbEntity
  8
GEOMETRY
100
AcDbLine
 10
290.4807692307692
 20
110.30865951144185
 30
0.0
 11
290.4807692307692
 21
110.4315032961743
 31
0.0
  0
LINE
  5
164
330
17
100
AcDbEntity
  8
GEOMETRY
100
AcDbLine
 10
290.4807692307692
 20
110.4315032961743
 30
0.0
 11
290.4807692307692
 21
110.56498264108598
 31
0.0
  0
LINE
  5
165
330
17
100
AcDbEntity
  8
GEOMETRY
100
AcDbLine
 10
290.4807692307692
 20
110.56498264108598
 30
0.0
 11
290.4807692307692
 21
110.70643865613204
 31
0.0
  0
LINE
  5
166
330
17
100
AcDbEntity
  8
GEOMETRY
100
AcDbLine
 10
290.4807692307692
 20
110.70643865613204
 30
0.0
 11
290.4807692307692
 21
110.84789467117812
 31
0.0
  0
LINE
  5
167
330
17
100
AcDbEntity
  8
GEOMETRY
100
AcDbLine
 10
290.4807692307692
 20
110.84789467117812
 30
0.0
 11
290.4807692307692
 21
110.98935068622418
 31
0.0
  0
LINE
  5
168
330
17
100
AcDbEntity
  8
GEOMETRY
100
AcDbLine
 10
290.4807692307692
 20
110.98935068622418
 30
0.0
 11
290.4807692307692
 21
111.13080670127027
 31
0.0
  0
LINE
  5
169
330
17
100
AcDbEntity
  8
GEOMETRY
100
AcDbLine
 10
290.4807692307692
 20
111.13080670127027
 30
0.0
 11
290.4807692307692
 21
111.28909605516607
 31
0.0
  0
LINE
  5
16A
330
17
100
AcDbEntity
  8
GEOMETRY
100
AcDbLine
 10
290.4807692307692
 20
111.28909605516607
 30
0.0
 11
290.4807692307692
 21
111.44738540906187
 31
0.0
  0
LINE
  5
16B
330
17
100
AcDbEntity
  8
GEOMETRY
100
AcDbLine
 10
290.4807692307692
 20
111.44738540906187
 30
0.0
 11
290.4807692307692
 21
111.60567476295768
 31
0.0
  0
LINE
  5
16C
330
17
100
AcDbEntity
  8
GEOMETRY
100
AcDbLine
 10
290.4807692307692
 20
111.60567476295768
 30
0.0
 11
290.4807692307692
 21
111.76396411685347
 31
0.0
  0
LINE
  5
16D
330
17
100
AcDbEntity
  8
GEOMETRY
100
AcDbLine
 10
290.4807692307692
 20
111.76396411685347
 30
0.0
 11
290.4807692307692
 21
111.92861465291335
 31
0.0
  0
LINE
  5
16E
330
17
100
AcDbEntity
  8
GEOMETRY
100
AcDbLine
 10
290.4807692307692
 20
111.92861465291335
 30
0.0
 11
290.4807692307692
 21
112.10174676519203
 31
0.0
  0
LINE
  5
16F
330
17
100
AcDbEntity
  8
GEOMETRY
100
AcDbLine
 10
290.4807692307692
 20
112.10174676519203
 30
0.0
 11
290.4807692307692
 21
112.27487887747068
 31
0.0
  0
LINE
  5
170
330
17
100
AcDbEntity
  8
GEOMETRY
100
AcDbLine
 10
290.4807692307692
 20
112.27487887747068
 30
0.0
 11
290.4807692307692
 21
112.44801098974936
 31
0.0
  0
LINE
  5
171
330
17
100
AcDbEntity
  8
GEOMETRY
100
AcDbLine
 10
290.4807692307692
 20
112.44801098974936
 30
0.0
 11
290.4807692307692
 21
112.62114310202803
 31
0.0
  0
LINE
  5
172
330
17
100
AcDbEntity
  8
GEOMETRY
100
AcDbLine
 10
290.4807692307692
 20
112.62114310202803
 30
0.0
 11
290.4807692307692
 21
112.80513137569301
 31
0.0
  0
LINE
  5
173
330
17
100
AcDbEntity
  8
GEOMETRY
100
AcDbLine
 10
290.4807692307692
 20
112.80513137569301
 30
0.0
 11
290.4807692307692
 21
112.99092900958904
 31
0.0
  0
LINE
  5
174
330
17
100
AcDbEntity
  8
GEOMETRY
100
AcDbLine
 10
290.4807692307692
 20
112.99092900958904
 30
0.0
 11
290.4807692307692
 21
113.17672664348507
 31
0.0
  0
LINE
  5
175
330
17
100
AcDbEntity
  8
GEOMETRY
100
AcDbLine
 10
290.4807692307692
 20
113.17672664348507
 30
0.0
 11
290.4807692307692
 21
113.36252427738111
 31
0.0
  0
LINE
  5
176
330
17
100
AcDbEntity
  8
GEOMETRY
100
AcDbLine
 10
290.4807692307692
 20
113.36252427738111
 30
0.0
 11
290.4807692307692
 21
113.55127305658252
 31
0.0
  0
LINE
  5
177
330
17
100
AcDbEntity
  8
GEOMETRY
100
AcDbLine
 10
290.4807692307692
 20
113.55127305658252
 30
0.0
 11
290.4807692307692
 21
113.74739969904739
 31
0.0
  0
LINE
  5
178
330
17
100
AcDbEntity
  8
GEOMETRY
100
AcDbLine
 10
290.4807692307692
 20
113.74739969904739
 30
0.0
 11
290.4807692307692
 21
113.94352634151224
 31
0.0
  0
LINE
  5
179
330
17
100
AcDbEntity
  8
GEOMETRY
100
AcDbLine
 10
290.4807692307692
 20
113.94352634151224
 30
0.0
 11
290.4807692307692
 21
114.13965298397711
 31
0.0
  0
LINE
  5
17A
330
17
100
AcDbEntity
  8
GEOMETRY
100
AcDbLine
 10
290.4807692307692
 20
114.13965298397711
 30
0.0
 11
290.4807692307692
 21
114.33577962644198
 31
0.0
  0
LINE
  5
17B
330
17
100
AcDbEntity
  8
GEOMETRY
100
AcDbLine
 10
290.4807692307692
 20
114.33577962644198
 30
0.0
 11
290.4807692307692
 21
114.5375224133672
 31
0.0
  0
LINE
  5
17C
330
17
100
AcDbEntity
  8
GEOMETRY
100
AcDbLine
 10
290.4807692307692
 20
114.5375224133672
 30
0.0
 11
290.4807692307692
 21
114.74151165807658
 31
0.0
  0
LINE
  5
17D
330
17
100
AcDbEntity
  8
GEOMETRY
100
AcDbLine
 10
290.4807692307692
 20
114.74151165807658
 30
0.0
 11
290.4807692307692
 21
114.94550090278594
 31
0.0
  0
LINE
  5
17E
330
17
100
AcDbEntity
  8
GEOMETRY
100
AcDbLine
 10
290.4807692307692
 20
114.94550090278594
 30
0.0
 11
290.4807692307692
 21
115.1494901474953
 31
0.0
  0
LINE
  5
17F
330
17
100
AcDbEntity
  8
GEOMETRY
100
AcDbLine
 10
290.4807692307692
 20
115.1494901474953
 30
0.0
 11
290.4807692307692
 21
115.35423615208109
 31
0.0
  0
LINE
  5
180
330
17
100
AcDbEntity
  8
GEOMETRY
100
AcDbLine
 10
290.4807692307692
 20
115.35423615208109
 30
0.0
 11
290.4807692307692
 21
115.56352271592542
 31
0.0
  0
LINE
  5
181
330
17
100
AcDbEntity
  8
GEOMETRY
100
AcDbLine
 10
290.4807692307692
 20
115.56352271592542
 30
0.0
 11
290.4807692307692
 21
115.77280927976975
 31
0.0
  0
LINE
  5
182
330
17
100
AcDbEntity
  8
GEOMETRY
100
AcDbLine
 10
290.4807692307692
 20
115.77280927976975
 30
0.0
 11
290.4807692307692
 21
115.9820958436141
 31
0.0
  0
LINE
  5
183
330
17
100
AcDbEntity
  8
GEOMETRY
100
AcDbLine
 10
290.4807692307692
 20
115.9820958436141
 30
0.0
 11
290.4807692307692
 21
116.19138240745842
 31
0.0
  0
LINE
  5
184
330
17
100
AcDbEntity
  8
GEOMETRY
100
AcDbLine
 10
290.4807692307692
 20
116.19138240745842
 30
0.0
 11
290.4807692307692
 21
116.40219206796775
 31
0.0
  0
LINE
  5
185
330
17
100
AcDbEntity
  8
GEOMETRY
100
AcDbLine
 10
290.4807692307692
 20
116.40219206796775
 30
0.0
 11
290.4807692307692
 21
116.61414405097582
 31
0.0
  0
LINE
  5
186
330
17
100
AcDbEntity
  8
GEOMETRY
100
AcDbLine
 10
290.4807692307692
 20
116.61414405097582
 30
0.0
 11
290.4807692307692
 21
116.82609603398387
 31
0.0
  0
LINE
  5
187
330
17
100
AcDbEntity
  8
GEOMETRY
100
AcDbLine
 10
290.4807692307692
 20
116.82609603398387
 30
0.0
 11
290.4807692307692
 21
117.03804801699194
 31
0.0
  0
LINE
  5
188
330
17
100
AcDbEntity
  8
GEOMETRY
100
AcDbLine
 10
290.4807692307692
 20
117.03804801699194
 30
0.0
 11
290.4807692307692
 21
117.25
 31
0.0
  0
LINE
  5
189
330
17
100
AcDbEntity
  8
GEOMETRY
100
AcDbLine
 10
281.8269230769231
 20
117.25
 30
0.0
 11
281.8269230769231
 21
117.46195198300808
 31
0.0
  0
LINE
  5
18A
330
17
100
AcDbEntity
  8
GEOMETRY
100
AcDbLine
 10
281.8269230769231
 20
117.46195198300808
 30
0.0
 11
281.8269230769231
 21
117.67390396601614
 31
0.0
  0
LINE
  5
18B
330
17
100
AcDbEntity
  8
GEOMETRY
100
AcDbLine
 10
281.8269230769231
 20
117.67390396601614
 30
0.0
 11
281.8269230769231
 21
117.8858559490242
 31
0.0
  0
LINE
  5
18C
330
17
100
AcDbEntity
  8
GEOMETRY
100
AcDbLine
 10
281.8269230769231
 20
117.8858559490242
 30
0.0
 11
281.8269230769231
 21
118.09780793203227
 31
0.0
  0
LINE
  5
18D
330
17
100
AcDbEntity
  8
GEOMETRY
100
AcDbLine
 10
281.8269230769231
 20
118.09780793203227
 30
0.0
 11
281.8269230769231
 21
118.3086175925416
 31
0.0
  0
LINE
  5
18E
330
17
100
AcDbEntity
  8
GEOMETRY
100
AcDbLine
 10
281.8269230769231
 20
118.3086175925416
 30
0.0
 11
281.8269230769231
 21
118.51790415638592
 31
0.0
  0
LINE
  5
18F
330
17
100
AcDbEntity
  8
GEOMETRY
100
AcDbLine
 10
281.8269230769231
 20
118.51790415638592
 30
0.0
 11
281.8269230769231
 21
118.72719072023025
 31
0.0
  0
LINE
  5
190
330
17
100
AcDbEntity
  8
GEOMETRY
100
AcDbLine
 10
281.8269230769231
 20
118.72719072023025
 30
0.0
 11
281.8269230769231
 21
118.93647728407458
 31
0.0
  0
LINE
  5
191
330
17
100
AcDbEntity
  8
GEOMETRY
100
AcDbLine
 10
281.8269230769231
 20
118.93647728407458
 30
0.0
 11
281.8269230769231
 21
119.14576384791891
 31
0.0
  0
LINE
  5
192
330
17
100
AcDbEntity
  8
GEOMETRY
100
AcDbLine
 10
281.8269230769231
 20
119.14576384791891
 30
0.0
 11
281.8269230769231
 21
119.3505098525047
 31
0.0
  0
LINE
  5
193
330
17
100
AcDbEntity
  8
GEOMETRY
100
AcDbLine
 10
281.8269230769231
 20
119.3505098525047
 30
0.0
 11
281.8269230769231
 21
119.55449909721408
 31
0.0
  0
LINE
  5
194
330
17
100
AcDbEntity
  8
GEOMETRY
100
AcDbLine
 10
281.8269230769231
 20
119.55449909721408
 30
0.0
 11
281.8269230769231
 21
119.75848834192345
 31
0.0
  0
LINE
  5
195
330
17
100
AcDbEntity
  8
GEOMETRY
100
AcDbLine
 10
281.8269230769231
 20
119.75848834192345
 30
0.0
 11
281.8269230769231
 21
119.96247758663282
 31
0.0
  0
LINE
  5
196
330
17
100
AcDbEntity
  8
GEOMETRY
100
AcDbLine
 10
281.8269230769231
 20
119.96247758663282
 30
0.0
 11
281.8269230769231
 21
120.16422037355804
 31
0.0
  0
LINE
  5
197
330
17
100
AcDbEntity
  8
GEOMETRY
100
AcDbLine
 10
281.8269230769231
 20
120.16422037355804
 30
0.0
 11
281.8269230769231
 21
120.3603470160229
 31
0.0
  0
LINE
  5
198
330
17
100
AcDbEntity
  8
GEOMETRY
100
AcDbLine
 10
281.8269230769231
 20
120.3603470160229
 30
0.0
 11
281.8269230769231
 21
120.55647365848776
 31
0.0
  0
LINE
  5
199
330
17
100
AcDbEntity
  8
GEOMETRY
100
AcDbLine
 10
281.8269230769231
 20
120.55647365848776
 30
0.0
 11
281.8269230769231
 21
120.75260030095262
 31
0.0
  0
LINE
  5
19A
330
17
100
AcDbEntity
  8
GEOMETRY
100
AcDbLine
 10
281.8269230769231
 20
120.75260030095262
 30
0.0
 11
281.8269230769231
 21
120.94872694341748
 31
0.0
  0
LINE
  5
19B
330
17
100
AcDbEntity
  8
GEOMETRY
100
AcDbLine
 10
281.8269230769231
 20
120.94872694341748
 30
0.0
 11
281.8269230769231
 21
121.1374757226189
 31
0.0
  0
LINE
  5
19C
330
17
100
AcDbEntity
  8
GEOMETRY
100
AcDbLine
 10
281.8269230769231
 20
121.1374757226189
 30
0.0
 11
281.8269230769231
 21
121.32327335651493
 31
0.0
  0
LINE
  5
19D
330
17
100
AcDbEntity
  8
GEOMETRY
100
AcDbLine
 10
281.8269230769231
 20
121.32327335651493
 30
0.0
 11
281.8269230769231
 21
121.50907099041098
 31
0.0
  0
LINE
  5
19E
330
17
100
AcDbEntity
  8
GEOMETRY
100
AcDbLine
 10
281.8269230769231
 20
121.50907099041098
 30
0.0
 11
281.8269230769231
 21
121.694868624307
 31
0.0
  0
LINE
  5
19F
330
17
100
AcDbEntity
  8
GEOMETRY
100
AcDbLine
 10
281.8269230769231
 20
121.694868624307
 30
0.0
 11
281.8269230769231
 21
121.87885689797199
 31
0.0
  0
LINE
  5
1A0
330
17
100
AcDbEntity
  8
GEOMETRY
100
AcDbLine
 10
281.8269230769231
 20
121.87885689797199
 30
0.0
 11
281.8269230769231
 21
122.05198901025065
 31
0.0
  0
LINE
  5
1A1
330
17
100
AcDbEntity
  8
GEOMETRY
100
AcDbLine
 10
281.8269230769231
 20
122.05198901025065
 30
0.0
 11
281.8269230769231
 21
122.22512112252932
 31
0.0
  0
LINE
  5
1A2
330
17
100
AcDbEntity
  8
GEOMETRY
100
AcDbLine
 10
281.8269230769231
 20
122.22512112252932
 30
0.0
 11
281.8269230769231
 21
122.39825323480798
 31
0.0
  0
LINE
  5
1A3
330
17
100
AcDbEntity
  8
GEOMETRY
100
AcDbLine
 10
281.8269230769231
 20
122.39825323480798
 30
0.0
 11
281.8269230769231
 21
122.57138534708665
 31
0.0
  0
LINE
  5
1A4
330
17
100
AcDbEntity
  8
GEOMETRY
100
AcDbLine
 10
281.8269230769231
 20
122.57138534708665
 30
0.0
 11
281.8269230769231
 21
122.73603588314654
 31
0.0
  0
LINE
  5
1A5
330
17
100
AcDbEntity
  8
GEOMETRY
100
AcDbLine
 10
281.8269230769231
 20
122.73603588314654
 30
0.0
 11
281.8269230769231
 21
122.89432523704234
 31
0.0
  0
LINE
  5
1A6
330
17
100
AcDbEntity
  8
GEOMETRY
100
AcDbLine
 10
281.8269230769231
 20
122.89432523704234
 30
0.0
 11
281.8269230769231
 21
123.05261459093813
 31
0.0
  0
LINE
  5
1A7
330
17
100
AcDbEntity
  8
GEOMETRY
100
AcDbLine
 10
281.8269230769231
 20
123.05261459093813
 30
0.0
 11
281.8269230769231
 21
123.21090394483394
 31
0.0
  0
LINE
  5
1A8
330
17
100
AcDbEntity
  8
GEOMETRY
100
AcDbLine
 10
281.8269230769231
 20
123.21090394483394
 30
0.0
 11
281.8269230769231
 21
123.36919329872975
 31
0.0
  0
LINE
  5
1A9
330
17
100
AcDbEntity
  8
GEOMETRY
100
AcDbLine
 10
281.8269230769231
 20
123.36919329872975
 30
0.0
 11
281.8269230769231
 21
123.51064931377582
 31
0.0
  0
LINE
  5
1AA
330
17
100
AcDbEntity
  8
GEOMETRY
100
AcDbLine
 10
281.8269230769231
 20
123.51064931377582
 30
0.0
 11
281.8269230769231
 21
123.6521053288219
 31
0.0
  0
LINE
  5
1AB
330
17
100
AcDbEntity
  8
GEOMETRY
100
AcDbLine
 10
281.8269230769231
 20
123.6521053288219
 30
0.0
 11
281.8269230769231
 21
123.79356134386796
 31
0.0
  0
LINE
  5
1AC
330
17
100
AcDbEntity
  8
GEOMETRY
100
AcDbLine
 10
281.8269230769231
 20
123.79356134386796
 30
0.0
 11
281.8269230769231
 21
123.93501735891405
 31
0.0
  0
LINE
  5
1AD
330
17
100
AcDbEntity
  8
GEOMETRY
100
AcDbLine
 10
281.8269230769231
 20
123.93501735891405
 30
0.0
 11
281.8269230769231
 21
124.06849670382572
 31
0.0
  0
LINE
  5
1AE
330
17
100
AcDbEntity
  8
GEOMETRY
100
AcDbLine
 10
281.8269230769231
 20
124.06849670382572
 30
0.0
 11
281.8269230769231
 21
124.19134048855815
 31
0.0
  0
LINE
  5
1AF
330
17
100
AcDbEntity
  8
GEOMETRY
100
AcDbLine
 10
281.8269230769231
 20
124.19134048855815
 30
0.0
 11
281.8269230769231
 21
124.3141842732906
 31
0.0
  0
LINE
  5
1B0
330
17
100
AcDbEntity
  8
GEOMETRY
100
AcDbLine
 10
281.8269230769231
 20
124.3141842732906
 30
0.0
 11
281.8269230769231
 21
124.43702805802306
 31
0.0
  0
LINE
  5
1B1
330
17
100
AcDbEntity
  8
GEOMETRY
100
AcDbLine
 10
281.8269230769231
 20
124.43702805802306
 30
0.0
 11
281.8269230769231
 21
124.55987184275551
 31
0.0
  0
LINE
  5
1B2
330
17
100
AcDbEntity
  8
GEOMETRY
100
AcDbLine
 10
281.8269230769231
 20
124.55987184275551
 30
0.0
 11
281.8269230769231
 21
124.66543814561747
 31
0.0
  0
LINE
  5
1B3
330
17
100
AcDbEntity
  8
GEOMETRY
100
AcDbLine
 10
281.8269230769231
 20
124.66543814561747
 30
0.0
 11
281.8269230769231
 21
124.76812486816766
 31
0.0
  0
LINE
  5
1B4
330
17
100
AcDbEntity
  8
GEOMETRY
100
AcDbLine
 10
281.8269230769231
 20
124.76812486816766
 30
0.0
 11
281.8269230769231
 21
124.87081159071786
 31
0.0
  0
LINE
  5
1B5
330
17
100
AcDbEntity
  8
GEOMETRY
100
AcDbLine
 10
281.8269230769231
 20
124.87081159071786
 30
0.0
 11
281.8269230769231
 21
124.97349831326805
 31
0.0
  0
LINE
  5
1B6
330
17
100
AcDbEntity
  8
GEOMETRY
100
AcDbLine
 10
281.8269230769231
 20
124.97349831326805
 30
0.0
 11
281.8269230769231
 21
125.07005691944724
 31
0.0
  0
LINE
  5
1B7
330
17
100
AcDbEntity
  8
GEOMETRY
100
AcDbLine
 10
281.8269230769231
 20
125.07005691944724
 30
0.0
 11
281.8269230769231
 21
125.15129523469889
 31
0.0
  0
LINE
  5
1B8
330
17
100
AcDbEntity
  8
GEOMETRY
100
AcDbLine
 10
281.8269230769231
 20
125.15129523469889
 30
0.0
 11
281.8269230769231
 21
125.23253354995053
 31
0.0
  0
LINE
  5
1B9
330
17
100
AcDbEntity
  8
GEOMETRY
100
AcDbLine
 10
281.8269230769231
 20
125.23253354995053
 30
0.0
 11
281.8269230769231
 21
125.31377186520217
 31
0.0
  0
LINE
  5
1BA
330
17
100
AcDbEntity
  8
GEOMETRY
100
AcDbLine
 10
281.8269230769231
 20
125.31377186520217
 30
0.0
 11
281.8269230769231
 21
125.39501018045382
 31
0.0
  0
LINE
  5
1BB
330
17
100
AcDbEntity
  8
GEOMETRY
100
AcDbLine
 10
281.8269230769231
 20
125.39501018045382
 30
0.0
 11
281.8269230769231
 21
125.4601984769566
 31
0.0
  0
LINE
  5
1BC
330
17
100
AcDbEntity
  8
GEOMETRY
100
AcDbLine
 10
281.8269230769231
 20
125.4601984769566
 30
0.0
 11
281.8269230769231
 21
125.51896676595983
 31
0.0
  0
LINE
  5
1BD
330
17
100
AcDbEntity
  8
GEOMETRY
100
AcDbLine
 10
281.8269230769231
 20
125.51896676595983
 30
0.0
 11
281.8269230769231
 21
125.57773505496309
 31
0.0
  0
LINE
  5
1BE
330
17
100
AcDbEntity
  8
GEOMETRY
100
AcDbLine
 10
281.8269230769231
 20
125.57773505496309
 30
0.0
 11
281.8269230769231
 21
125.63650334396631
 31
0.0
  0
LINE
  5
1BF
330
17
100
AcDbEntity
  8
GEOMETRY
100
AcDbLine
 10
281.8269230769231
 20
125.63650334396631
 30
0.0
 11
281.8269230769231
 21
125.69195605131515
 31
0.0
  0
LINE
  5
1C0
330
17
100
AcDbEntity
  8
GEOMETRY
100
AcDbLine
 10
281.8269230769231
 20
125.69195605131515
 30
0.0
 11
281.8269230769231
 21
125.7275152687376
 31
0.0
  0
LINE
  5
1C1
330
17
100
AcDbEntity
  8
GEOMETRY
100
AcDbLine
 10
281.8269230769231
 20
125.76307448616006
 30
0.0
 11
281.8269230769231
 21
125.79863370358252
 31
0.0
  0
LINE
  5
1C2
330
17
100
AcDbEntity
  8
GEOMETRY
100
AcDbLine
 10
281.8269230769231
 20
125.79863370358252
 30
0.0
 11
281.8269230769231
 21
125.83419292100498
 31
0.0
  0
LINE
  5
1C3
330
17
100
AcDbEntity
  8
GEOMETRY
100
AcDbLine
 10
281.8269230769231
 20
125.85623428164355
 30
0.0
 11
281.8269230769231
 21
125.8681372496942
 31
0.0
  0
LINE
  5
1C4
330
17
100
AcDbEntity
  8
GEOMETRY
100
AcDbLine
 10
281.8269230769231
 20
125.8681372496942
 30
0.0
 11
281.8269230769231
 21
125.88004021774486
 31
0.0
  0
LINE
  5
1C5
330
17
100
AcDbEntity
  8
GEOMETRY
100
AcDbLine
 10
281.8269230769231
 20
125.626873332717
 30
0.0
 11
281.8269230769231
 21
125.4868667284621
 31
0.0
  0
LINE
  5
1C6
330
17
100
AcDbEntity
  8
GEOMETRY
100
AcDbLine
 10
281.8269230769231
 20
125.34686012420724
 30
0.0
 11
281.8269230769231
 21
125.20685351995235
 31
0.0
  0
LINE
  5
1C7
330
17
100
AcDbEntity
  8
GEOMETRY
100
AcDbLine
 10
281.8269230769231
 20
125.20685351995235
 30
0.0
 11
281.8269230769231
 21
125.06684691569745
 31
0.0
  0
LINE
  5
1C8
330
17
100
AcDbEntity
  8
GEOMETRY
100
AcDbLine
 10
281.8269230769231
 20
125.06684691569745
 30
0.0
 11
281.8269230769231
 21
124.85353410884736
 31
0.0
  0
LINE
  5
1C9
330
17
100
AcDbEntity
  8
GEOMETRY
100
AcDbLine
 10
281.8269230769231
 20
124.85353410884736
 30
0.0
 11
281.8269230769231
 21
124.6280036015647
 31
0.0
  0
LINE
  5
1CA
330
17
100
AcDbEntity
  8
GEOMETRY
100
AcDbLine
 10
281.8269230769231
 20
124.6280036015647
 30
0.0
 11
281.8269230769231
 21
124.40247309428206
 31
0.0
  0
LINE
  5
1CB
330
17
100
AcDbEntity
  8
GEOMETRY
100
AcDbLine
 10
281.8269230769231
 20
124.40247309428206
 30
0.0
 11
281.8269230769231
 21
124.17694258699942
 31
0.0
  0
LINE
  5
1CC
330
17
100
AcDbEntity
  8
GEOMETRY
100
AcDbLine
 10
281.8269230769231
 20
124.17694258699942
 30
0.0
 11
281.8269230769231
 21
123.93020783352841
 31
0.0
  0
LINE
  5
1CD
330
17
100
AcDbEntity
  8
GEOMETRY
100
AcDbLine
 10
281.8269230769231
 20
123.93020783352841
 30
0.0
 11
281.8269230769231
 21
123.63046246458653
 31
0.0
  0
LINE
  5
1CE
330
17
100
AcDbEntity
  8
GEOMETRY
100
AcDbLine
 10
281.8269230769231
 20
123.63046246458653
 30
0.0
 11
281.8269230769231
 21
123.33071709564464
 31
0.0
  0
LINE
  5
1CF
330
17
100
AcDbEntity
  8
GEOMETRY
100
AcDbLine
 10
281.8269230769231
 20
123.33071709564464
 30
0.0
 11
281.8269230769231
 21
123.03097172670277
 31
0.0
  0
LINE
  5
1D0
330
17
100
AcDbEntity
  8
GEOMETRY
100
AcDbLine
 10
281.8269230769231
 20
123.03097172670277
 30
0.0
 11
281.8269230769231
 21
122.7312263577609
 31
0.0
  0
LINE
  5
1D1
330
17
100
AcDbEntity
  8
GEOMETRY
100
AcDbLine
 10
281.8269230769231
 20
122.7312263577609
 30
0.0
 11
281.8269230769231
 21
122.38920643365273
 31
0.0
  0
LINE
  5
1D2
330
17
100
AcDbEntity
  8
GEOMETRY
100
AcDbLine
 10
281.8269230769231
 20
122.38920643365273
 30
0.0
 11
281.8269230769231
 21
122.03027668747802
 31
0.0
  0
LINE
  5
1D3
330
17
100
AcDbEntity
  8
GEOMETRY
100
AcDbLine
 10
281.8269230769231
 20
122.03027668747802
 30
0.0
 11
281.8269230769231
 21
121.67134694130331
 31
0.0
  0
LINE
  5
1D4
330
17
100
AcDbEntity
  8
GEOMETRY
100
AcDbLine
 10
281.8269230769231
 20
121.67134694130331
 30
0.0
 11
281.8269230769231
 21
121.31241719512863
 31
0.0
  0
LINE
  5
1D5
330
17
100
AcDbEntity
  8
GEOMETRY
100
AcDbLine
 10
281.8269230769231
 20
121.31241719512863
 30
0.0
 11
281.8269230769231
 21
120.94760371452541
 31
0.0
  0
LINE
  5
1D6
330
17
100
AcDbEntity
  8
GEOMETRY
100
AcDbLine
 10
281.8269230769231
 20
120.94760371452541
 30
0.0
 11
281.8269230769231
 21
120.54748782735118
 31
0.0
  0
LINE
  5
1D7
330
17
100
AcDbEntity
  8
GEOMETRY
100
AcDbLine
 10
281.8269230769231
 20
120.54748782735118
 30
0.0
 11
281.8269230769231
 21
120.14737194017695
 31
0.0
  0
LINE
  5
1D8
330
17
100
AcDbEntity
  8
GEOMETRY
100
AcDbLine
 10
281.8269230769231
 20
120.14737194017695
 30
0.0
 11
281.8269230769231
 21
119.74725605300273
 31
0.0
  0
LINE
  5
1D9
330
17
100
AcDbEntity
  8
GEOMETRY
100
AcDbLine
 10
281.8269230769231
 20
119.74725605300273
 30
0.0
 11
281.8269230769231
 21
119.3471401658285
 31
0.0
  0
LINE
  5
1DA
330
17
100
AcDbEntity
  8
GEOMETRY
100
AcDbLine
 10
281.8269230769231
 20
119.3471401658285
 30
0.0
 11
281.8269230769231
 21
118.9349541874096
 31
0.0
  0
LINE
  5
1DB
330
17
100
AcDbEntity
  8
GEOMETRY
100
AcDbLine
 10
281.8269230769231
 20
118.9349541874096
 30
0.0
 11
281.8269230769231
 21
118.5137156405572
 31
0.0
  0
LINE
  5
1DC
330
17
100
AcDbEntity
  8
GEOMETRY
100
AcDbLine
 10
281.8269230769231
 20
118.5137156405572
 30
0.0
 11
281.8269230769231
 21
118.0924770937048
 31
0.0
  0
LINE
  5
1DD
330
17
100
AcDbEntity
  8
GEOMETRY
100
AcDbLine
 10
281.8269230769231
 20
118.0924770937048
 30
0.0
 11
281.8269230769231
 21
117.67123854685241
 31
0.0
  0
LINE
  5
1DE
330
17
100
AcDbEntity
  8
GEOMETRY
100
AcDbLine
 10
281.8269230769231
 20
117.67123854685241
 30
0.0
 11
281.8269230769231
 21
117.25
 31
0.0
  0
LINE
  5
1DF
330
17
100
AcDbEntity
  8
GEOMETRY
100
AcDbLine
 10
281.8269230769231
 20
117.25
 30
0.0
 11
281.8269230769231
 21
116.8287614531476
 31
0.0
  0
LINE
  5
1E0
330
17
100
AcDbEntity
  8
GEOMETRY
100
AcDbLine
 10
281.8269230769231
 20
116.8287614531476
 30
0.0
 11
281.8269230769231
 21
116.40752290629521
 31
0.0
  0
LINE
  5
1E1
330
17
100
AcDbEntity
  8
GEOMETRY
100
AcDbLine
 10
281.8269230769231
 20
116.40752290629521
 30
0.0
 11
281.8269230769231
 21
115.9862843594428
 31
0.0
  0
LINE
  5
1E2
330
17
100
AcDbEntity
  8
GEOMETRY
100
AcDbLine
 10
281.8269230769231
 20
115.9862843594428
 30
0.0
 11
281.8269230769231
 21
115.56504581259041
 31
0.0
  0
LINE
  5
1E3
330
17
100
AcDbEntity
  8
GEOMETRY
100
AcDbLine
 10
281.8269230769231
 20
115.56504581259041
 30
0.0
 11
281.8269230769231
 21
115.15285983417152
 31
0.0
  0
LINE
  5
1E4
330
17
100
AcDbEntity
  8
GEOMETRY
100
AcDbLine
 10
281.8269230769231
 20
115.15285983417152
 30
0.0
 11
281.8269230769231
 21
114.75274394699728
 31
0.0
  0
LINE
  5
1E5
330
17
100
AcDbEntity
  8
GEOMETRY
100
AcDbLine
 10
281.8269230769231
 20
114.75274394699728
 30
0.0
 11
281.8269230769231
 21
114.35262805982306
 31
0.0
  0
LINE
  5
1E6
330
17
100
AcDbEntity
  8
GEOMETRY
100
AcDbLine
 10
281.8269230769231
 20
114.35262805982306
 30
0.0
 11
281.8269230769231
 21
113.95251217264882
 31
0.0
  0
LINE
  5
1E7
330
17
100
AcDbEntity
  8
GEOMETRY
100
AcDbLine
 10
281.8269230769231
 20
113.95251217264882
 30
0.0
 11
281.8269230769231
 21
113.5523962854746
 31
0.0
  0
LINE
  5
1E8
330
17
100
AcDbEntity
  8
GEOMETRY
100
AcDbLine
 10
281.8269230769231
 20
113.5523962854746
 30
0.0
 11
281.8269230769231
 21
113.1875828048714
 31
0.0
  0
LINE
  5
1E9
330
17
100
AcDbEntity
  8
GEOMETRY
100
AcDbLine
 10
281.8269230769231
 20
113.1875828048714
 30
0.0
 11
281.8269230769231
 21
112.82865305869669
 31
0.0
  0
LINE
  5
1EA
330
17
100
AcDbEntity
  8
GEOMETRY
100
AcDbLine
 10
281.8269230769231
 20
112.82865305869669
 30
0.0
 11
281.8269230769231
 21
112.46972331252199
 31
0.0
  0
LINE
  5
1EB
330
17
100
AcDbEntity
  8
GEOMETRY
100
AcDbLine
 10
281.8269230769231
 20
112.46972331252199
 30
0.0
 11
281.8269230769231
 21
112.1107935663473
 31
0.0
  0
LINE
  5
1EC
330
17
100
AcDbEntity
  8
GEOMETRY
100
AcDbLine
 10
281.8269230769231
 20
112.1107935663473
 30
0.0
 11
281.8269230769231
 21
111.76877364223911
 31
0.0
  0
LINE
  5
1ED
330
17
100
AcDbEntity
  8
GEOMETRY
100
AcDbLine
 10
281.8269230769231
 20
111.76877364223911
 30
0.0
 11
281.8269230769231
 21
111.46902827329723
 31
0.0
  0
LINE
  5
1EE
330
17
100
AcDbEntity
  8
GEOMETRY
100
AcDbLine
 10
281.8269230769231
 20
111.46902827329723
 30
0.0
 11
281.8269230769231
 21
111.16928290435536
 31
0.0
  0
LINE
  5
1EF
330
17
100
AcDbEntity
  8
GEOMETRY
100
AcDbLine
 10
281.8269230769231
 20
111.16928290435536
 30
0.0
 11
281.8269230769231
 21
110.86953753541349
 31
0.0
  0
LINE
  5
1F0
330
17
100
AcDbEntity
  8
GEOMETRY
100
AcDbLine
 10
281.8269230769231
 20
110.86953753541349
 30
0.0
 11
281.8269230769231
 21
110.5697921664716
 31
0.0
  0
LINE
  5
1F1
330
17
100
AcDbEntity
  8
GEOMETRY
100
AcDbLine
 10
281.8269230769231
 20
110.5697921664716
 30
0.0
 11
281.8269230769231
 21
110.32305741300061
 31
0.0
  0
LINE
  5
1F2
330
17
100
AcDbEntity
  8
GEOMETRY
100
AcDbLine
 10
281.8269230769231
 20
110.32305741300061
 30
0.0
 11
281.8269230769231
 21
110.09752690571796
 31
0.0
  0
LINE
  5
1F3
330
17
100
AcDbEntity
  8
GEOMETRY
100
AcDbLine
 10
281.8269230769231
 20
110.09752690571796
 30
0.0
 11
281.8269230769231
 21
109.87199639843531
 31
0.0
  0
LINE
  5
1F4
330
17
100
AcDbEntity
  8
GEOMETRY
100
AcDbLine
 10
281.8269230769231
 20
109.87199639843531
 30
0.0
 11
281.8269230769231
 21
109.64646589115266
 31
0.0
  0
LINE
  5
1F5
330
17
100
AcDbEntity
  8
GEOMETRY
100
AcDbLine
 10
281.8269230769231
 20
109.64646589115266
 30
0.0
 11
281.8269230769231
 21
109.43315308430255
 31
0.0
  0
LINE
  5
1F6
330
17
100
AcDbEntity
  8
GEOMETRY
100
AcDbLine
 10
281.8269230769231
 20
109.43315308430255
 30
0.0
 11
281.8269230769231
 21
109.29314648004767
 31
0.0
  0
LINE
  5
1F7
330
17
100
AcDbEntity
  8
GEOMETRY
100
AcDbLine
 10
281.8269230769231
 20
109.29314648004767
 30
0.0
 11
281.8269230769231
 21
109.15313987579279
 31
0.0
  0
LINE
  5
1F8
330
17
100
AcDbEntity
  8
GEOMETRY
100
AcDbLine
 10
281.8269230769231
 20
109.15313987579279
 30
0.0
 11
281.8269230769231
 21
109.0131332715379
 31
0.0
  0
LINE
  5
1F9
330
17
100
AcDbEntity
  8
GEOMETRY
100
AcDbLine
 10
281.8269230769231
 20
109.0131332715379
 30
0.0
 11
281.8269230769231
 21
108.87312666728302
 31
0.0
  0
LINE
  5
1FA
330
17
100
AcDbEntity
  8
GEOMETRY
100
AcDbLine
 10
281.8269230769231
 20
108.87312666728302
 30
0.0
 11
281.8269230769231
 21
108.7860025880463
 31
0.0
  0
LINE
  5
1FB
330
17
100
AcDbEntity
  8
GEOMETRY
100
AcDbLine
 10
281.8269230769231
 20
108.7860025880463
 30
0.0
 11
281.8269230769231
 21
108.73854040257318
 31
0.0
  0
LINE
  5
1FC
330
17
100
AcDbEntity
  8
GEOMETRY
100
AcDbLine
 10
281.8269230769231
 20
108.73854040257318
 30
0.0
 11
281.8269230769231
 21
108.69107821710007
 31
0.0
  0
LINE
  5
1FD
330
17
100
AcDbEntity
  8
GEOMETRY
100
AcDbLine
 10
281.8269230769231
 20
108.69107821710007
 30
0.0
 11
281.8269230769231
 21
108.64361603162696
 31
0.0
  0
LINE
  5
1FE
330
17
100
AcDbEntity
  8
GEOMETRY
100
AcDbLine
 10
281.8269230769231
 20
108.64361603162696
 30
0.0
 11
281.8269230769231
 21
108.59615384615385
 31
0.0
  0
LINE
  5
1FF
330
17
100
AcDbEntity
  8
GEOMETRY
100
AcDbLine
 10
281.8269230769231
 20
108.59615384615385
 30
0.0
 11
281.8269230769231
 21
108.6080568142045
 31
0.0
  0
LINE
  5
200
330
17
100
AcDbEntity
  8
GEOMETRY
100
AcDbLine
 10
281.8269230769231
 20
108.8634966560337
 30
0.0
 11
281.8269230769231
 21
108.92226494503694
 31
0.0
  0
LINE
  5
201
330
17
100
AcDbEntity
  8
GEOMETRY
100
AcDbLine
 10
281.8269230769231
 20
108.92226494503694
 30
0.0
 11
281.8269230769231
 21
108.98103323404018
 31
0.0
  0
LINE
  5
202
330
17
100
AcDbEntity
  8
GEOMETRY
100
AcDbLine
 10
281.8269230769231
 20
108.98103323404018
 30
0.0
 11
281.8269230769231
 21
109.03980152304341
 31
0.0
  0
LINE
  5
203
330
17
100
AcDbEntity
  8
GEOMETRY
100
AcDbLine
 10
281.8269230769231
 20
109.10498981954619
 30
0.0
 11
281.8269230769231
 21
109.18622813479784
 31
0.0
  0
LINE
  5
204
330
17
100
AcDbEntity
  8
GEOMETRY
100
AcDbLine
 10
281.8269230769231
 20
109.18622813479784
 30
0.0
 11
281.8269230769231
 21
109.26746645004948
 31
0.0
  0
LINE
  5
205
330
17
100
AcDbEntity
  8
GEOMETRY
100
AcDbLine
 10
281.8269230769231
 20
109.26746645004948
 30
0.0
 11
281.8269230769231
 21
109.34870476530114
 31
0.0
  0
LINE
  5
206
330
17
100
AcDbEntity
  8
GEOMETRY
100
AcDbLine
 10
281.8269230769231
 20
109.34870476530114
 30
0.0
 11
281.8269230769231
 21
109.42994308055277
 31
0.0
  0
LINE
  5
207
330
17
100
AcDbEntity
  8
GEOMETRY
100
AcDbLine
 10
281.8269230769231
 20
109.42994308055277
 30
0.0
 11
281.8269230769231
 21
109.52650168673196
 31
0.0
  0
LINE
  5
208
330
17
100
AcDbEntity
  8
GEOMETRY
100
AcDbLine
 10
281.8269230769231
 20
109.52650168673196
 30
0.0
 11
281.8269230769231
 21
109.62918840928215
 31
0.0
  0
LINE
  5
209
330
17
100
AcDbEntity
  8
GEOMETRY
100
AcDbLine
 10
281.8269230769231
 20
109.62918840928215
 30
0.0
 11
281.8269230769231
 21
109.73187513183234
 31
0.0
  0
LINE
  5
20A
330
17
100
AcDbEntity
  8
GEOMETRY
100
AcDbLine
 10
281.8269230769231
 20
109.73187513183234
 30
0.0
 11
281.8269230769231
 21
109.83456185438254
 31
0.0
  0
LINE
  5
20B
330
17
100
AcDbEntity
  8
GEOMETRY
100
AcDbLine
 10
281.8269230769231
 20
109.83456185438254
 30
0.0
 11
281.8269230769231
 21
109.94012815724449
 31
0.0
  0
LINE
  5
20C
330
17
100
AcDbEntity
  8
GEOMETRY
100
AcDbLine
 10
281.8269230769231
 20
109.94012815724449
 30
0.0
 11
281.8269230769231
 21
110.06297194197694
 31
0.0
  0
LINE
  5
20D
330
17
100
AcDbEntity
  8
GEOMETRY
100
AcDbLine
 10
281.8269230769231
 20
110.06297194197694
 30
0.0
 11
281.8269230769231
 21
110.1858157267094
 31
0.0
  0
LINE
  5
20E
330
17
100
AcDbEntity
  8
GEOMETRY
100
AcDbLine
 10
281.8269230769231
 20
110.1858157267094
 30
0.0
 11
281.8269230769231
 21
110.30865951144185
 31
0.0
  0
LINE
  5
20F
330
17
100
AcDbEntity
  8
GEOMETRY
100
AcDbLine
 10
281.8269230769231
 20
110.30865951144185
 30
0.0
 11
281.8269230769231
 21
110.4315032961743
 31
0.0
  0
LINE
  5
210
330
17
100
AcDbEntity
  8
GEOMETRY
100
AcDbLine
 10
281.8269230769231
 20
110.4315032961743
 30
0.0
 11
281.8269230769231
 21
110.56498264108598
 31
0.0
  0
LINE
  5
211
330
17
100
AcDbEntity
  8
GEOMETRY
100
AcDbLine
 10
281.8269230769231
 20
110.56498264108598
 30
0.0
 11
281.8269230769231
 21
110.70643865613204
 31
0.0
  0
LINE
  5
212
330
17
100
AcDbEntity
  8
GEOMETRY
100
AcDbLine
 10
281.8269230769231
 20
110.70643865613204
 30
0.0
 11
281.8269230769231
 21
110.84789467117812
 31
0.0
  0
LINE
  5
213
330
17
100
AcDbEntity
  8
GEOMETRY
100
AcDbLine
 10
281.8269230769231
 20
110.84789467117812
 30
0.0
 11
281.8269230769231
 21
110.98935068622418
 31
0.0
  0
LINE
  5
214
330
17
100
AcDbEntity
  8
GEOMETRY
100
AcDbLine
 10
281.8269230769231
 20
110.98935068622418
 30
0.0
 11
281.8269230769231
 21
111.13080670127027
 31
0.0
  0
LINE
  5
215
330
17
100
AcDbEntity
  8
GEOMETRY
100
AcDbLine
 10
281.8269230769231
 20
111.13080670127027
 30
0.0
 11
281.8269230769231
 21
111.28909605516607
 31
0.0
  0
LINE
  5
216
330
17
100
AcDbEntity
  8
GEOMETRY
100
AcDbLine
 10
281.8269230769231
 20
111.28909605516607
 30
0.0
 11
281.8269230769231
 21
111.44738540906187
 31
0.0
  0
LINE
  5
217
330
17
100
AcDbEntity
  8
GEOMETRY
100
AcDbLine
 10
281.8269230769231
 20
111.44738540906187
 30
0.0
 11
281.8269230769231
 21
111.60567476295768
 31
0.0
  0
LINE
  5
218
330
17
100
AcDbEntity
  8
GEOMETRY
100
AcDbLine
 10
281.8269230769231
 20
111.60567476295768
 30
0.0
 11
281.8269230769231
 21
111.76396411685347
 31
0.0
  0
LINE
  5
219
330
17
100
AcDbEntity
  8
GEOMETRY
100
AcDbLine
 10
281.8269230769231
 20
111.76396411685347
 30
0.0
 11
281.8269230769231
 21
111.92861465291335
 31
0.0
  0
LINE
  5
21A
330
17
100
AcDbEntity
  8
GEOMETRY
100
AcDbLine
 10
281.8269230769231
 20
111.92861465291335
 30
0.0
 11
281.8269230769231
 21
112.10174676519203
 31
0.0
  0
LINE
  5
21B
330
17
100
AcDbEntity
  8
GEOMETRY
100
AcDbLine
 10
281.8269230769231
 20
112.10174676519203
 30
0.0
 11
281.8269230769231
 21
112.27487887747068
 31
0.0
  0
LINE
  5
21C
330
17
100
AcDbEntity
  8
GEOMETRY
100
AcDbLine
 10
281.8269230769231
 20
112.27487887747068
 30
0.0
 11
281.8269230769231
 21
112.44801098974936
 31
0.0
  0
LINE
  5
21D
330
17
100
AcDbEntity
  8
GEOMETRY
100
AcDbLine
 10
281.8269230769231
 20
112.44801098974936
 30
0.0
 11
281.8269230769231
 21
112.62114310202803
 31
0.0
  0
LINE
  5
21E
330
17
100
AcDbEntity
  8
GEOMETRY
100
AcDbLine
 10
281.8269230769231
 20
112.62114310202803
 30
0.0
 11
281.8269230769231
 21
112.80513137569301
 31
0.0
  0
LINE
  5
21F
330
17
100
AcDbEntity
  8
GEOMETRY
100
AcDbLine
 10
281.8269230769231
 20
112.80513137569301
 30
0.0
 11
281.8269230769231
 21
112.99092900958904
 31
0.0
  0
LINE
  5
220
330
17
100
AcDbEntity
  8
GEOMETRY
100
AcDbLine
 10
281.8269230769231
 20
112.99092900958904
 30
0.0
 11
281.8269230769231
 21
113.17672664348507
 31
0.0
  0
LINE
  5
221
330
17
100
AcDbEntity
  8
GEOMETRY
100
AcDbLine
 10
281.8269230769231
 20
113.17672664348507
 30
0.0
 11
281.8269230769231
 21
113.36252427738111
 31
0.0
  0
LINE
  5
222
330
17
100
AcDbEntity
  8
GEOMETRY
100
AcDbLine
 10
281.8269230769231
 20
113.36252427738111
 30
0.0
 11
281.8269230769231
 21
113.55127305658252
 31
0.0
  0
LINE
  5
223
330
17
100
AcDbEntity
  8
GEOMETRY
100
AcDbLine
 10
281.8269230769231
 20
113.55127305658252
 30
0.0
 11
281.8269230769231
 21
113.74739969904739
 31
0.0
  0
LINE
  5
224
330
17
100
AcDbEntity
  8
GEOMETRY
100
AcDbLine
 10
281.8269230769231
 20
113.74739969904739
 30
0.0
 11
281.8269230769231
 21
113.94352634151224
 31
0.0
  0
LINE
  5
225
330
17
100
AcDbEntity
  8
GEOMETRY
100
AcDbLine
 10
281.8269230769231
 20
113.94352634151224
 30
0.0
 11
281.8269230769231
 21
114.13965298397711
 31
0.0
  0
LINE
  5
226
330
17
100
AcDbEntity
  8
GEOMETRY
100
AcDbLine
 10
281.8269230769231
 20
114.13965298397711
 30
0.0
 11
281.8269230769231
 21
114.33577962644198
 31
0.0
  0
LINE
  5
227
330
17
100
AcDbEntity
  8
GEOMETRY
100
AcDbLine
 10
281.8269230769231
 20
114.33577962644198
 30
0.0
 11
281.8269230769231
 21
114.5375224133672
 31
0.0
  0
LINE
  5
228
330
17
100
AcDbEntity
  8
GEOMETRY
100
AcDbLine
 10
281.8269230769231
 20
114.5375224133672
 30
0.0
 11
281.8269230769231
 21
114.74151165807658
 31
0.0
  0
LINE
  5
229
330
17
100
AcDbEntity
  8
GEOMETRY
100
AcDbLine
 10
281.8269230769231
 20
114.74151165807658
 30
0.0
 11
281.8269230769231
 21
114.94550090278594
 31
0.0
  0
LINE
  5
22A
330
17
100
AcDbEntity
  8
GEOMETRY
100
AcDbLine
 10
281.8269230769231
 20
114.94550090278594
 30
0.0
 11
281.8269230769231
 21
115.1494901474953
 31
0.0
  0
LINE
  5
22B
330
17
100
AcDbEntity
  8
GEOMETRY
100
AcDbLine
 10
281.8269230769231
 20
115.1494901474953
 30
0.0
 11
281.8269230769231
 21
115.35423615208109
 31
0.0
  0
LINE
  5
22C
330
17
100
AcDbEntity
  8
GEOMETRY
100
AcDbLine
 10
281.8269230769231
 20
115.35423615208109
 30
0.0
 11
281.8269230769231
 21
115.56352271592542
 31
0.0
  0
LINE
  5
22D
330
17
100
AcDbEntity
  8
GEOMETRY
100
AcDbLine
 10
281.8269230769231
 20
115.56352271592542
 30
0.0
 11
281.8269230769231
 21
115.77280927976975
 31
0.0
  0
LINE
  5
22E
330
17
100
AcDbEntity
  8
GEOMETRY
100
AcDbLine
 10
281.8269230769231
 20
115.77280927976975
 30
0.0
 11
281.8269230769231
 21
115.9820958436141
 31
0.0
  0
LINE
  5
22F
330
17
100
AcDbEntity
  8
GEOMETRY
100
AcDbLine
 10
281.8269230769231
 20
115.9820958436141
 30
0.0
 11
281.8269230769231
 21
116.19138240745842
 31
0.0
  0
LINE
  5
230
330
17
100
AcDbEntity
  8
GEOMETRY
100
AcDbLine
 10
281.8269230769231
 20
116.19138240745842
 30
0.0
 11
281.8269230769231
 21
116.40219206796775
 31
0.0
  0
LINE
  5
231
330
17
100
AcDbEntity
  8
GEOMETRY
100
AcDbLine
 10
281.8269230769231
 20
116.40219206796775
 30
0.0
 11
281.8269230769231
 21
116.61414405097582
 31
0.0
  0
LINE
  5
232
330
17
100
AcDbEntity
  8
GEOMETRY
100
AcDbLine
 10
281.8269230769231
 20
116.61414405097582
 30
0.0
 11
281.8269230769231
 21
116.82609603398387
 31
0.0
  0
LINE
  5
233
330
17
100
AcDbEntity
  8
GEOMETRY
100
AcDbLine
 10
281.8269230769231
 20
116.82609603398387
 30
0.0
 11
281.8269230769231
 21
117.03804801699194
 31
0.0
  0
LINE
  5
234
330
17
100
AcDbEntity
  8
GEOMETRY
100
AcDbLine
 10
281.8269230769231
 20
117.03804801699194
 30
0.0
 11
281.8269230769231
 21
117.25
 31
0.0
  0
LINE
  5
235
330
17
100
AcDbEntity
  8
GEOMETRY
100
AcDbLine
 10
281.8269230769231
 20
117.25
 30
0.0
 11
290.4807692307692
 21
117.25
 31
0.0
  0
LINE
  5
236
330
17
100
AcDbEntity
  8
GEOMETRY
100
AcDbLine
 10
281.8269230769231
 20
108.59615384615385
 30
0.0
 11
290.4807692307692
 21
108.59615384615385
 31
0.0
  0
LINE
  5
237
330
17
100
AcDbEntity
  8
GEOMETRY
100
AcDbLine
 10
281.8269230769231
 20
125.90384615384616
 30
0.0
 11
290.4807692307692
 21
125.90384615384616
 31
0.0
  0
LINE
  5
238
330
17
100
AcDbEntity
  8
DIMENSIONS
 62
2
100
AcDbLine
 10
133.84615384615384
 20
86.96153846153847
 30
0.0
 11
133.84615384615384
 21
80.96923076923078
 31
0.0
  0
LINE
  5
239
330
17
100
AcDbEntity
  8
DIMENSIONS
 62
2
100
AcDbLine
 10
203.07692307692307
 20
86.96153846153847
 30
0.0
 11
203.07692307692307
 21
80.96923076923078
 31
0.0
  0
LINE
  5
23A
330
17
100
AcDbEntity
  8
DIMENSIONS
 62
2
100
AcDbLine
 10
133.84615384615384
 20
81.76923076923077
 30
0.0
 11
203.07692307692307
 21
81.76923076923077
 31
0.0
  0
TEXT
  5
23B
330
17
100
AcDbEntity
  8
DIMENSIONS
 62
7
100
AcDbText
 10
166.26153846153846
 20
79.16923076923078
 30
0.0
 40
2.0
  1
80.0
 11
166.26153846153846
 21
79.16923076923078
 31
0.0
100
AcDbText
  0
LINE
  5
23C
330
17
100
AcDbEntity
  8
DIMENSIONS
 62
2
100
AcDbLine
 10
133.84615384615384
 20
86.96153846153847
 30
0.0
 11
127.5076923076923
 21
86.96153846153847
 31
0.0
  0
LINE
  5
23D
330
17
100
AcDbEntity
  8
DIMENSIONS
 62
2
100
AcDbLine
 10
133.84615384615384
 20
138.8846153846154
 30
0.0
 11
127.5076923076923
 21
138.8846153846154
 31
0.0
  0
LINE
  5
23E
330
17
100
AcDbEntity
  8
DIMENSIONS
 62
2
100
AcDbLine
 10
128.3076923076923
 20
86.96153846153847
 30
0.0
 11
128.3076923076923
 21
138.8846153846154
 31
0.0
  0
TEXT
  5
23F
330
17
100
AcDbEntity
  8
DIMENSIONS
 62
7
100
AcDbText
 10
123.10769230769229
 20
111.92307692307693
 30
0.0
 40
2.0
  1
60.0
 11
123.10769230769229
 21
111.92307692307693
 31
0.0
100
AcDbText
  0
LINE
  5
240
330
17
100
AcDbEntity
  8
DIMENSIONS
 62
2
100
AcDbLine
 10
133.84615384615384
 20
86.96153846153847
 30
0.0
 11
133.84615384615384
 21
75.77692307692308
 31
0.0
  0
LINE
  5
241
330
17
100
AcDbEntity
  8
DIMENSIONS
 62
2
100
AcDbLine
 10
168.5
 20
86.96153846153847
 30
0.0
 11
168.5
 21
75.77692307692308
 31
0.0
  0
LINE
  5
242
330
17
100
AcDbEntity
  8
DIMENSIONS
 62
2
100
AcDbLine
 10
133.84615384615384
 20
76.57692307692308
 30
0.0
 11
168.5
 21
76.57692307692308
 31
0.0
  0
TEXT
  5
243
330
17
100
AcDbEntity
  8
DIMENSIONS
 62
7
100
AcDbText
 10
148.97307692307692
 20
73.97692307692309
 30
0.0
 40
2.0
  1
40.0
 11
148.97307692307692
 21
73.97692307692309
 31
0.0
100
AcDbText
  0
LINE
  5
244
330
17
100
AcDbEntity
  8
DIMENSIONS
 62
2
100
AcDbLine
 10
133.84615384615384
 20
86.96153846153847
 30
0.0
 11
121.96923076923076
 21
86.96153846153847
 31
0.0
  0
LINE
  5
245
330
17
100
AcDbEntity
  8
DIMENSIONS
 62
2
100
AcDbLine
 10
133.84615384615384
 20
95.6
 30
0.0
 11
121.96923076923076
 21
95.6
 31
0.0
  0
LINE
  5
246
330
17
100
AcDbEntity
  8
DIMENSIONS
 62
2
100
AcDbLine
 10
122.76923076923076
 20
86.96153846153847
 30
0.0
 11
122.76923076923076
 21
95.6
 31
0.0
  0
TEXT
  5
247
330
17
100
AcDbEntity
  8
DIMENSIONS
 62
7
100
AcDbText
 10
117.56923076923076
 20
90.28076923076924
 30
0.0
 40
2.0
  1
10.0
 11
117.56923076923076
 21
90.28076923076924
 31
0.0
100
AcDbText
  0
LINE
  5
248
330
17
100
AcDbEntity
  8
DIMENSIONS
 62
2
100
AcDbLine
 10
133.84615384615384
 20
86.96153846153847
 30
0.0
 11
116.43076923076923
 21
86.96153846153847
 31
0.0
  0
LINE
  5
249
330
17
100
AcDbEntity
  8
DIMENSIONS
 62
2
100
AcDbLine
 10
133.84615384615384
 20
117.2
 30
0.0
 11
116.43076923076923
 21
117.2
 31
0.0
  0
LINE
  5
24A
330
17
100
AcDbEntity
  8
DIMENSIONS
 62
2
100
AcDbLine
 10
117.23076923076923
 20
86.96153846153847
 30
0.0
 11
117.23076923076923
 21
117.2
 31
0.0
  0
TEXT
  5
24B
330
17
100
AcDbEntity
  8
DIMENSIONS
 62
7
100
AcDbText
 10
112.03076923076922
 20
101.08076923076923
 30
0.0
 40
2.0
  1
34.9
 11
112.03076923076922
 21
101.08076923076923
 31
0.0
100
AcDbText
  0
LINE
  5
24C
330
17
100
AcDbEntity
  8
LEADERS
 62
3
100
AcDbLine
 10
174.58073176026818
 20
123.36919329872974
 30
0.0
 11
178.82337244738747
 21
127.61183398584902
 31
0.0
  0
LINE
  5
24D
330
17
100
AcDbEntity
  8
LEADERS
 62
3
100
AcDbLine
 10
178.82337244738747
 20
127.61183398584902
 30
0.0
 11
183.82337244738747
 21
127.61183398584902
 31
0.0
  0
TEXT
  5
24E
330
17
100
AcDbEntity
  8
LEADERS
 62
3
100
AcDbText
 10
184.32337244738747
 20
128.01183398584902
 30
0.0
 40
1.8
  1
%%c20.0
 11
184.32337244738747
 21
128.01183398584902
 31
0.0
100
AcDbText
  0
LINE
  5
24F
330
17
100
AcDbEntity
  8
DIMENSIONS
 62
2
100
AcDbLine
 10
133.84615384615384
 20
190.80769230769232
 30
0.0
 11
133.84615384615384
 21
184.81538461538463
 31
0.0
  0
LINE
  5
250
330
17
100
AcDbEntity
  8
DIMENSIONS
 62
2
100
AcDbLine
 10
203.07692307692307
 20
190.80769230769232
 30
0.0
 11
203.07692307692307
 21
184.81538461538463
 31
0.0
  0
LINE
  5
251
330
17
100
AcDbEntity
  8
DIMENSIONS
 62
2
100
AcDbLine
 10
133.84615384615384
 20
185.61538461538464
 30
0.0
 11
203.07692307692307
 21
185.61538461538464
 31
0.0
  0
TEXT
  5
252
330
17
100
AcDbEntity
  8
DIMENSIONS
 62
7
100
AcDbText
 10
166.26153846153846
 20
183.01538461538465
 30
0.0
 40
2.0
  1
80.0
 11
166.26153846153846
 21
183.01538461538465
 31
0.0
100
AcDbText
  0
LINE
  5
253
330
17
100
AcDbEntity
  8
DIMENSIONS
 62
2
100
AcDbLine
 10
133.84615384615384
 20
190.80769230769232
 30
0.0
 11
127.5076923076923
 21
190.80769230769232
 31
0.0
  0
LINE
  5
254
330
17
100
AcDbEntity
  8
DIMENSIONS
 62
2
100
AcDbLine
 10
133.84615384615384
 20
234.0769230769231
 30
0.0
 11
127.5076923076923
 21
234.0769230769231
 31
0.0
  0
LINE
  5
255
330
17
100
AcDbEntity
  8
DIMENSIONS
 62
2
100
AcDbLine
 10
128.3076923076923
 20
190.80769230769232
 30
0.0
 11
128.3076923076923
 21
234.0769230769231
 31
0.0
  0
TEXT
  5
256
330
17
100
AcDbEntity
  8
DIMENSIONS
 62
7
100
AcDbText
 10
123.10769230769229
 20
211.4423076923077
 30
0.0
 40
2.0
  1
50.0
 11
123.10769230769229
 21
211.4423076923077
 31
0.0
100
AcDbText
  0
LINE
  5
257
330
17
100
AcDbEntity
  8
DIMENSIONS
 62
2
100
AcDbLine
 10
133.84615384615384
 20
190.80769230769232
 30
0.0
 11
121.96923076923076
 21
190.80769230769232
 31
0.0
  0
LINE
  5
258
330
17
100
AcDbEntity
  8
DIMENSIONS
 62
2
100
AcDbLine
 10
133.84615384615384
 20
212.4
 30
0.0
 11
121.96923076923076
 21
212.4
 31
0.0
  0
LINE
  5
259
330
17
100
AcDbEntity
  8
DIMENSIONS
 62
2
100
AcDbLine
 10
122.76923076923076
 20
190.80769230769232
 30
0.0
 11
122.76923076923076
 21
212.4
 31
0.0
  0
TEXT
  5
25A
330
17
100
AcDbEntity
  8
DIMENSIONS
 62
7
100
AcDbText
 10
117.56923076923076
 20
200.60384615384618
 30
0.0
 40
2.0
  1
25.0
 11
117.56923076923076
 21
200.60384615384618
 31
0.0
100
AcDbText
  0
LINE
  5
25B
330
17
100
AcDbEntity
  8
DIMENSIONS
 62
2
100
AcDbLine
 10
133.84615384615384
 20
190.80769230769232
 30
0.0
 11
116.43076923076923
 21
190.80769230769232
 31
0.0
  0
LINE
  5
25C
330
17
100
AcDbEntity
  8
DIMENSIONS
 62
2
100
AcDbLine
 10
133.84615384615384
 20
221.1
 30
0.0
 11
116.43076923076923
 21
221.1
 31
0.0
  0
LINE
  5
25D
330
17
100
AcDbEntity
  8
DIMENSIONS
 62
2
100
AcDbLine
 10
117.23076923076923
 20
190.80769230769232
 30
0.0
 11
117.23076923076923
 21
221.1
 31
0.0
  0
TEXT
  5
25E
330
17
100
AcDbEntity
  8
DIMENSIONS
 62
7
100
AcDbText
 10
112.03076923076922
 20
204.95384615384614
 30
0.0
 40
2.0
  1
35.0
 11
112.03076923076922
 21
204.95384615384614
 31
0.0
100
AcDbText
  0
LINE
  5
25F
330
17
100
AcDbEntity
  8
DIMENSIONS
 62
2
100
AcDbLine
 10
260.1923076923077
 20
86.96153846153847
 30
0.0
 11
260.1923076923077
 21
80.96923076923078
 31
0.0
  0
LINE
  5
260
330
17
100
AcDbEntity
  8
DIMENSIONS
 62
2
100
AcDbLine
 10
303.46153846153845
 20
86.96153846153847
 30
0.0
 11
303.46153846153845
 21
80.96923076923078
 31
0.0
  0
LINE
  5
261
330
17
100
AcDbEntity
  8
DIMENSIONS
 62
2
100
AcDbLine
 10
260.1923076923077
 20
81.76923076923077
 30
0.0
 11
303.46153846153845
 21
81.76923076923077
 31
0.0
  0
TEXT
  5
262
330
17
100
AcDbEntity
  8
DIMENSIONS
 62
7
100
AcDbText
 10
279.6269230769231
 20
79.16923076923078
 30
0.0
 40
2.0
  1
50.0
 11
279.6269230769231
 21
79.16923076923078
 31
0.0
100
AcDbText
  0
LINE
  5
263
330
17
100
AcDbEntity
  8
DIMENSIONS
 62
2
100
AcDbLine
 10
260.1923076923077
 20
86.96153846153847
 30
0.0
 11
253.85384615384612
 21
86.96153846153847
 31
0.0
  0
LINE
  5
264
330
17
100
AcDbEntity
  8
DIMENSIONS
 62
2
100
AcDbLine
 10
260.1923076923077
 20
138.8846153846154
 30
0.0
 11
253.85384615384612
 21
138.8846153846154
 31
0.0
  0
LINE
  5
265
330
17
100
AcDbEntity
  8
DIMENSIONS
 62
2
100
AcDbLine
 10
254.65384615384613
 20
86.96153846153847
 30
0.0
 11
254.65384615384613
 21
138.8846153846154
 31
0.0
  0
TEXT
  5
266
330
17
100
AcDbEntity
  8
DIMENSIONS
 62
7
100
AcDbText
 10
249.45384615384611
 20
111.92307692307693
 30
0.0
 40
2.0
  1
60.0
 11
249.45384615384611
 21
111.92307692307693
 31
0.0
100
AcDbText
  0
LINE
  5
267
330
17
100
AcDbEntity
  8
DIMENSIONS
 62
2
100
AcDbLine
 10
260.1923076923077
 20
86.96153846153847
 30
0.0
 11
260.1923076923077
 21
75.77692307692308
 31
0.0
  0
LINE
  5
268
330
17
100
AcDbEntity
  8
DIMENSIONS
 62
2
100
AcDbLine
 10
281.8
 20
86.96153846153847
 30
0.0
 11
281.8
 21
75.77692307692308
 31
0.0
  0
LINE
  5
269
330
17
100
AcDbEntity
  8
DIMENSIONS
 62
2
100
AcDbLine
 10
260.1923076923077
 20
76.57692307692308
 30
0.0
 11
281.8
 21
76.57692307692308
 31
0.0
  0
TEXT
  5
26A
330
17
100
AcDbEntity
  8
DIMENSIONS
 62
7
100
AcDbText
 10
268.79615384615386
 20
73.97692307692309
 30
0.0
 40
2.0
  1
25.0
 11
268.79615384615386
 21
73.97692307692309
 31
0.0
100
AcDbText
  0
LINE
  5
26B
330
17
100
AcDbEntity
  8
DIMENSIONS
 62
2
100
AcDbLine
 10
260.1923076923077
 20
86.96153846153847
 30
0.0
 11
260.1923076923077
 21
70.58461538461539
 31
0.0
  0
LINE
  5
26C
330
17
100
AcDbEntity
  8
DIMENSIONS
 62
2
100
AcDbLine
 10
290.5
 20
86.96153846153847
 30
0.0
 11
290.5
 21
70.58461538461539
 31
0.0
  0
LINE
  5
26D
330
17
100
AcDbEntity
  8
DIMENSIONS
 62
2
100
AcDbLine
 10
260.1923076923077
 20
71.38461538461539
 30
0.0
 11
290.5
 21
71.38461538461539
 31
0.0
  0
TEXT
  5
26E
330
17
100
AcDbEntity
  8
DIMENSIONS
 62
7
100
AcDbText
 10
273.1461538461538
 20
68.78461538461539
 30
0.0
 40
2.0
  1
35.0
 11
273.1461538461538
 21
68.78461538461539
 31
0.0
100
AcDbText
  0
LINE
  5
26F
330
17
100
AcDbEntity
  8
DIMENSIONS
 62
2
100
AcDbLine
 10
260.1923076923077
 20
86.96153846153847
 30
0.0
 11
248.3153846153846
 21
86.96153846153847
 31
0.0
  0
LINE
  5
270
330
17
100
AcDbEntity
  8
DIMENSIONS
 62
2
100
AcDbLine
 10
260.1923076923077
 20
95.6
 30
0.0
 11
248.3153846153846
 21
95.6
 31
0.0
  0
LINE
  5
271
330
17
100
AcDbEntity
  8
DIMENSIONS
 62
2
100
AcDbLine
 10
249.1153846153846
 20
86.96153846153847
 30
0.0
 11
249.1153846153846
 21
95.6
 31
0.0
  0
TEXT
  5
272
330
17
100
AcDbEntity
  8
DIMENSIONS
 62
7
100
AcDbText
 10
243.9153846153846
 20
90.28076923076924
 30
0.0
 40
2.0
  1
10.0
 11
243.9153846153846
 21
90.28076923076924
 31
0.0
100
AcDbText
  0
TEXT
  5
273
330
17
100
AcDbEntity
  8
NOTES
 62
3
100
AcDbText
 10
14.0
 20
281.0
 30
0.0
 40
2.5
  1
MANUFACTURING NOTES:
 11
14.0
 21
281.0
 31
0.0
100
AcDbText
  0
TEXT
  5
274
330
17
100
AcDbEntity
  8
NOTES
 62
7
100
AcDbText
 10
14.0
 20
276.0
 30
0.0
 40
2.0
  1
1. MACHINE CONCENTRIC BORES TO TIGHT GEOMETRIC TOLERANCES, ENSURING HIGH PR
 11
14.0
 21
276.0
 31
0.0
100
AcDbText
  0
TEXT
  5
275
330
17
100
AcDbEntity
  8
NOTES
 62
7
100
AcDbText
 10
14.0
 20
271.5
 30
0.0
 40
2.0
  1
   ECISION FOR CONCENTRICITY AND PERPENDICULARITY.
 11
14.0
 21
271.5
 31
0.0
100
AcDbText
  0
TEXT
  5
276
330
17
100
AcDbEntity
  8
NOTES
 62
7
100
AcDbText
 10
14.0
 20
266.5
 30
0.0
 40
2.0
  1
2. VERIFY SURFACE FINISH REQUIREMENTS FOR INTERNAL BORE DIAMETERS, ESPECIAL
 11
14.0
 21
266.5
 31
0.0
100
AcDbText
  0
TEXT
  5
277
330
17
100
AcDbEntity
  8
NOTES
 62
7
100
AcDbText
 10
14.0
 20
262.0
 30
0.0
 40
2.0
  1
   LY IF INTENDED FOR BEARING, BUSHING, OR SHAFT FIT.
 11
14.0
 21
262.0
 31
0.0
100
AcDbText
  0
TEXT
  5
278
330
17
100
AcDbEntity
  8
NOTES
 62
7
100
AcDbText
 10
14.0
 20
257.0
 30
0.0
 40
2.0
  1
3. PERFORM A CRITICAL INSPECTION OF BORE DIAMETERS, RUNOUT, AND CONCENTRICI
 11
14.0
 21
257.0
 31
0.0
100
AcDbText
  0
TEXT
  5
279
330
17
100
AcDbEntity
  8
NOTES
 62
7
100
AcDbText
 10
14.0
 20
252.5
 30
0.0
 40
2.0
  1
   TY AFTER MACHINING TO ENSURE FUNCTIONAL PERFORMANCE.
 11
14.0
 21
252.5
 31
0.0
100
AcDbText
  0
TEXT
  5
27A
330
17
100
AcDbEntity
  8
NOTES
 62
7
100
AcDbText
 10
14.0
 20
247.5
 30
0.0
 40
2.0
  1
4. CONSIDER BORING OR REAMING OPERATIONS FOR FINAL BORE SIZING TO ACHIEVE S
 11
14.0
 21
247.5
 31
0.0
100
AcDbText
  0
TEXT
  5
27B
330
17
100
AcDbEntity
  8
NOTES
 62
7
100
AcDbText
 10
14.0
 20
243.0
 30
0.0
 40
2.0
  1
   PECIFIED DIMENSIONAL ACCURACY AND SURFACE QUALITY.
 11
14.0
 21
243.0
 31
0.0
100
AcDbText
  0
TEXT
  5
27C
330
17
100
AcDbEntity
  8
DIMENSIONS
 62
3
100
AcDbText
 10
264.0
 20
40.0
 30
0.0
 40
3.0
  1
PART: PRECISION BORE SUPPORT BRACKET
 11
264.0
 21
40.0
 31
0.0
100
AcDbText
  0
TEXT
  5
27D
330
17
100
AcDbEntity
  8
DIMENSIONS
 62
7
100
AcDbText
 10
264.0
 20
27.0
 30
0.0
 40
2.0
  1
UNITS: MM
 11
264.0
 21
27.0
 31
0.0
100
AcDbText
  0
TEXT
  5
27E
330
17
100
AcDbEntity
  8
DIMENSIONS
 62
7
100
AcDbText
 10
264.0
 20
14.0
 30
0.0
 40
2.0
  1
SCALE  1 : 1.2
 11
264.0
 21
14.0
 31
0.0
100
AcDbText
  0
TEXT
  5
27F
330
17
100
AcDbEntity
  8
DIMENSIONS
 62
7
100
AcDbText
 10
349.0
 20
14.0
 30
0.0
 40
2.0
  1
DATE: 2026-05-17
 11
349.0
 21
14.0
 31
0.0
100
AcDbText
  0
ENDSEC
  0
SECTION
  2
OBJECTS
  0
DICTIONARY
  5
A
330
0
100
AcDbDictionary
281
1
  3
ACAD_COLOR
350
B
  3
ACAD_GROUP
350
C
  3
ACAD_LAYOUT
350
D
  3
ACAD_MATERIAL
350
E
  3
ACAD_MLEADERSTYLE
350
F
  3
ACAD_MLINESTYLE
350
10
  3
ACAD_PLOTSETTINGS
350
11
  3
ACAD_PLOTSTYLENAME
350
12
  3
ACAD_SCALELIST
350
14
  3
ACAD_TABLESTYLE
350
15
  3
ACAD_VISUALSTYLE
350
16
  3
EZDXF_META
350
2D
  0
DICTIONARY
  5
B
330
A
100
AcDbDictionary
281
1
  0
DICTIONARY
  5
C
330
A
100
AcDbDictionary
281
1
  0
DICTIONARY
  5
D
330
A
100
AcDbDictionary
281
1
  3
Model
350
1A
  3
Layout1
350
1E
  0
DICTIONARY
  5
E
330
A
100
AcDbDictionary
281
1
  3
ByBlock
350
1F
  3
ByLayer
350
20
  3
Global
350
21
  0
DICTIONARY
  5
F
330
A
100
AcDbDictionary
281
1
  3
Standard
350
2C
  0
DICTIONARY
  5
10
330
A
100
AcDbDictionary
281
1
  3
Standard
350
22
  0
DICTIONARY
  5
11
330
A
100
AcDbDictionary
281
1
  0
ACDBDICTIONARYWDFLT
  5
12
330
A
100
AcDbDictionary
281
1
  3
Normal
350
13
100
AcDbDictionaryWithDefault
340
13
  0
ACDBPLACEHOLDER
  5
13
330
12
  0
DICTIONARY
  5
14
330
A
100
AcDbDictionary
281
1
  0
DICTIONARY
  5
15
330
A
100
AcDbDictionary
281
1
  0
DICTIONARY
  5
16
330
A
100
AcDbDictionary
281
1
  0
LAYOUT
  5
1A
330
D
100
AcDbPlotSettings
  1

  4
A3
  6

 40
7.5
 41
20.0
 42
7.5
 43
20.0
 44
420.0
 45
297.0
 46
0.0
 47
0.0
 48
0.0
 49
0.0
140
0.0
141
0.0
142
1.0
143
1.0
 70
1024
 72
1
 73
0
 74
5
  7

 75
16
 76
0
 77
2
 78
300
147
1.0
148
0.0
149
0.0
100
AcDbLayout
  1
Model
 70
1
 71
0
 10
0.0
 20
0.0
 11
420.0
 21
297.0
 12
0.0
 22
0.0
 32
0.0
 14
1e+20
 24
1e+20
 34
1e+20
 15
-1e+20
 25
-1e+20
 35
-1e+20
146
0.0
 13
0.0
 23
0.0
 33
0.0
 16
1.0
 26
0.0
 36
0.0
 17
0.0
 27
1.0
 37
0.0
 76
1
330
17
  0
LAYOUT
  5
1E
330
D
100
AcDbPlotSettings
  1

  4
A3
  6

 40
7.5
 41
20.0
 42
7.5
 43
20.0
 44
420.0
 45
297.0
 46
0.0
 47
0.0
 48
0.0
 49
0.0
140
0.0
141
0.0
142
1.0
143
1.0
 70
0
 72
1
 73
0
 74
5
  7

 75
16
 76
0
 77
2
 78
300
147
1.0
148
0.0
149
0.0
100
AcDbLayout
  1
Layout1
 70
1
 71
1
 10
0.0
 20
0.0
 11
420.0
 21
297.0
 12
0.0
 22
0.0
 32
0.0
 14
1e+20
 24
1e+20
 34
1e+20
 15
-1e+20
 25
-1e+20
 35
-1e+20
146
0.0
 13
0.0
 23
0.0
 33
0.0
 16
1.0
 26
0.0
 36
0.0
 17
0.0
 27
1.0
 37
0.0
 76
1
330
1B
  0
MATERIAL
  5
1F
102
{ACAD_REACTORS
330
E
102
}
330
E
100
AcDbMaterial
  1
ByBlock
  2

 70
0
 40
1.0
 71
1
 41
1.0
 91
-1023410177
 42
1.0
 72
1
  3

 73
1
 74
1
 75
1
 44
0.5
 73
0
 45
1.0
 46
1.0
 77
1
  4

 78
1
 79
1
170
1
 48
1.0
171
1
  6

172
1
173
1
174
1
140
1.0
141
1.0
175
1
  7

176
1
177
1
178
1
143
1.0
179
1
  8

270
1
271
1
272
1
145
1.0
146
1.0
273
1
  9

274
1
275
1
276
1
 42
1.0
 72
1
  3

 73
1
 74
1
 75
1
 94
63
  0
MATERIAL
  5
20
102
{ACAD_REACTORS
330
E
102
}
330
E
100
AcDbMaterial
  1
ByLayer
  2

 70
0
 40
1.0
 71
1
 41
1.0
 91
-1023410177
 42
1.0
 72
1
  3

 73
1
 74
1
 75
1
 44
0.5
 73
0
 45
1.0
 46
1.0
 77
1
  4

 78
1
 79
1
170
1
 48
1.0
171
1
  6

172
1
173
1
174
1
140
1.0
141
1.0
175
1
  7

176
1
177
1
178
1
143
1.0
179
1
  8

270
1
271
1
272
1
145
1.0
146
1.0
273
1
  9

274
1
275
1
276
1
 42
1.0
 72
1
  3

 73
1
 74
1
 75
1
 94
63
  0
MATERIAL
  5
21
102
{ACAD_REACTORS
330
E
102
}
330
E
100
AcDbMaterial
  1
Global
  2

 70
0
 40
1.0
 71
1
 41
1.0
 91
-1023410177
 42
1.0
 72
1
  3

 73
1
 74
1
 75
1
 44
0.5
 73
0
 45
1.0
 46
1.0
 77
1
  4

 78
1
 79
1
170
1
 48
1.0
171
1
  6

172
1
173
1
174
1
140
1.0
141
1.0
175
1
  7

176
1
177
1
178
1
143
1.0
179
1
  8

270
1
271
1
272
1
145
1.0
146
1.0
273
1
  9

274
1
275
1
276
1
 42
1.0
 72
1
  3

 73
1
 74
1
 75
1
 94
63
  0
MLINESTYLE
  5
22
102
{ACAD_REACTORS
330
10
102
}
330
10
100
AcDbMlineStyle
  2
Standard
 70
0
  3

 62
256
 51
90.0
 52
90.0
 71
2
 49
0.5
 62
256
  6
BYLAYER
 49
-0.5
 62
256
  6
BYLAYER
  0
MLEADERSTYLE
  5
2C
102
{ACAD_REACTORS
330
F
102
}
330
F
100
AcDbMLeaderStyle
179
2
170
2
171
1
172
0
 90
2
 40
0.0
 41
0.0
173
1
 91
-1056964608
 92
-2
290
1
 42
2.0
291
1
 43
8.0
  3
Standard
 44
4.0
300

342
29
174
1
175
1
176
0
178
1
 93
-1056964608
 45
4.0
292
0
297
0
 46
4.0
 94
-1056964608
 47
1.0
 49
1.0
140
1.0
294
1
141
0.0
177
0
142
1.0
295
0
296
0
143
3.75
271
0
272
9
273
9
  0
DICTIONARY
  5
2D
330
A
100
AcDbDictionary
280
1
281
1
  3
CREATED_BY_EZDXF
350
2E
  3
WRITTEN_BY_EZDXF
350
282
  0
DICTIONARYVAR
  5
2E
330
2D
100
DictionaryVariables
280
0
  1
1.4.4 @ 2026-05-17T20:25:35.169265+00:00
  0
DICTIONARYVAR
  5
282
330
2D
100
DictionaryVariables
280
0
  1
1.4.4 @ 2026-05-17T20:25:35.184031+00:00
  0
ENDSEC
  0
EOF
