ISO-10303-21;
HEADER;
/* Generated by software containing ST-Developer
 * from STEP Tools, Inc. (www.steptools.com) 
 */
/* OPTION: using custom renumber hook */

FILE_DESCRIPTION(
/* description */ ('STEP AP214'),
/* implementation_level */ '2;1');

FILE_NAME(
/* name */ 'ST20820',
/* time_stamp */ '2026-05-18T00:18:37+02:00',
/* author */ ('License CC BY-ND 4.0'),
/* organization */ ('CADENAS'),
/* preprocessor_version */ 'ST-DEVELOPER v20',
/* originating_system */ 'PARTsolutions',
/* authorisation */ '  ');

FILE_SCHEMA (('AUTOMOTIVE_DESIGN {1 0 10303 214 3 1 1}'));
ENDSEC;

DATA;
#10=PROPERTY_DEFINITION_REPRESENTATION(#14,#12);
#11=PROPERTY_DEFINITION_REPRESENTATION(#15,#13);
#12=REPRESENTATION('',(#16),#563);
#13=REPRESENTATION('',(#17),#563);
#14=PROPERTY_DEFINITION('pmi validation property','',#568);
#15=PROPERTY_DEFINITION('pmi validation property','',#568);
#16=VALUE_REPRESENTATION_ITEM('number of annotations',COUNT_MEASURE(0.));
#17=VALUE_REPRESENTATION_ITEM('number of views',COUNT_MEASURE(0.));
#18=SHAPE_REPRESENTATION_RELATIONSHIP('','',#339,#19);
#19=ADVANCED_BREP_SHAPE_REPRESENTATION('',(#337),#563);
#20=CYLINDRICAL_SURFACE('',#351,4.);
#21=CYLINDRICAL_SURFACE('',#362,2.);
#22=CYLINDRICAL_SURFACE('',#367,3.25);
#23=CYLINDRICAL_SURFACE('',#368,3.25);
#24=CYLINDRICAL_SURFACE('',#369,11.);
#25=CYLINDRICAL_SURFACE('',#370,2.);
#26=CYLINDRICAL_SURFACE('',#372,2.00000000000001);
#27=CYLINDRICAL_SURFACE('',#373,2.00000000000002);
#28=CYLINDRICAL_SURFACE('',#374,2.00000000000002);
#29=LINE('',#478,#53);
#30=LINE('',#483,#54);
#31=LINE('',#487,#55);
#32=LINE('',#489,#56);
#33=LINE('',#495,#57);
#34=LINE('',#498,#58);
#35=LINE('',#500,#59);
#36=LINE('',#504,#60);
#37=LINE('',#510,#61);
#38=LINE('',#516,#62);
#39=LINE('',#520,#63);
#40=LINE('',#524,#64);
#41=LINE('',#528,#65);
#42=LINE('',#531,#66);
#43=LINE('',#533,#67);
#44=LINE('',#537,#68);
#45=LINE('',#544,#69);
#46=LINE('',#545,#70);
#47=LINE('',#547,#71);
#48=LINE('',#548,#72);
#49=LINE('',#553,#73);
#50=LINE('',#555,#74);
#51=LINE('',#558,#75);
#52=LINE('',#560,#76);
#53=VECTOR('',#384,1000.);
#54=VECTOR('',#387,1000.);
#55=VECTOR('',#390,1000.);
#56=VECTOR('',#391,1000.);
#57=VECTOR('',#398,1000.);
#58=VECTOR('',#399,1000.);
#59=VECTOR('',#400,1000.);
#60=VECTOR('',#403,1000.);
#61=VECTOR('',#410,1000.);
#62=VECTOR('',#417,1000.);
#63=VECTOR('',#420,1000.);
#64=VECTOR('',#423,1000.);
#65=VECTOR('',#428,1000.);
#66=VECTOR('',#429,1000.);
#67=VECTOR('',#430,1000.);
#68=VECTOR('',#433,1000.);
#69=VECTOR('',#444,1000.);
#70=VECTOR('',#445,1000.);
#71=VECTOR('',#448,1000.);
#72=VECTOR('',#449,1000.);
#73=VECTOR('',#458,1000.);
#74=VECTOR('',#461,1000.);
#75=VECTOR('',#466,1000.);
#76=VECTOR('',#469,1000.);
#77=ORIENTED_EDGE('',*,*,#161,.F.);
#78=ORIENTED_EDGE('',*,*,#162,.F.);
#79=ORIENTED_EDGE('',*,*,#163,.T.);
#80=ORIENTED_EDGE('',*,*,#164,.T.);
#81=ORIENTED_EDGE('',*,*,#165,.T.);
#82=ORIENTED_EDGE('',*,*,#166,.T.);
#83=ORIENTED_EDGE('',*,*,#167,.F.);
#84=ORIENTED_EDGE('',*,*,#168,.T.);
#85=ORIENTED_EDGE('',*,*,#169,.T.);
#86=ORIENTED_EDGE('',*,*,#170,.T.);
#87=ORIENTED_EDGE('',*,*,#171,.T.);
#88=ORIENTED_EDGE('',*,*,#172,.F.);
#89=ORIENTED_EDGE('',*,*,#173,.F.);
#90=ORIENTED_EDGE('',*,*,#174,.F.);
#91=ORIENTED_EDGE('',*,*,#175,.F.);
#92=ORIENTED_EDGE('',*,*,#176,.F.);
#93=ORIENTED_EDGE('',*,*,#177,.T.);
#94=ORIENTED_EDGE('',*,*,#178,.F.);
#95=ORIENTED_EDGE('',*,*,#179,.F.);
#96=ORIENTED_EDGE('',*,*,#172,.T.);
#97=ORIENTED_EDGE('',*,*,#180,.T.);
#98=ORIENTED_EDGE('',*,*,#181,.T.);
#99=ORIENTED_EDGE('',*,*,#182,.F.);
#100=ORIENTED_EDGE('',*,*,#183,.F.);
#101=ORIENTED_EDGE('',*,*,#184,.F.);
#102=ORIENTED_EDGE('',*,*,#185,.F.);
#103=ORIENTED_EDGE('',*,*,#178,.T.);
#104=ORIENTED_EDGE('',*,*,#186,.F.);
#105=ORIENTED_EDGE('',*,*,#187,.T.);
#106=ORIENTED_EDGE('',*,*,#188,.F.);
#107=ORIENTED_EDGE('',*,*,#189,.F.);
#108=ORIENTED_EDGE('',*,*,#190,.T.);
#109=ORIENTED_EDGE('',*,*,#191,.T.);
#110=ORIENTED_EDGE('',*,*,#192,.T.);
#111=ORIENTED_EDGE('',*,*,#193,.F.);
#112=ORIENTED_EDGE('',*,*,#168,.F.);
#113=ORIENTED_EDGE('',*,*,#194,.T.);
#114=ORIENTED_EDGE('',*,*,#188,.T.);
#115=ORIENTED_EDGE('',*,*,#167,.T.);
#116=ORIENTED_EDGE('',*,*,#195,.T.);
#117=ORIENTED_EDGE('',*,*,#173,.T.);
#118=ORIENTED_EDGE('',*,*,#179,.T.);
#119=ORIENTED_EDGE('',*,*,#185,.T.);
#120=ORIENTED_EDGE('',*,*,#196,.F.);
#121=ORIENTED_EDGE('',*,*,#189,.T.);
#122=ORIENTED_EDGE('',*,*,#194,.F.);
#123=ORIENTED_EDGE('',*,*,#163,.F.);
#124=ORIENTED_EDGE('',*,*,#193,.T.);
#125=ORIENTED_EDGE('',*,*,#187,.F.);
#126=ORIENTED_EDGE('',*,*,#197,.T.);
#127=ORIENTED_EDGE('',*,*,#181,.F.);
#128=ORIENTED_EDGE('',*,*,#177,.F.);
#129=ORIENTED_EDGE('',*,*,#171,.F.);
#130=ORIENTED_EDGE('',*,*,#198,.F.);
#131=ORIENTED_EDGE('',*,*,#162,.T.);
#132=ORIENTED_EDGE('',*,*,#170,.F.);
#133=ORIENTED_EDGE('',*,*,#161,.T.);
#134=ORIENTED_EDGE('',*,*,#169,.F.);
#135=ORIENTED_EDGE('',*,*,#186,.T.);
#136=ORIENTED_EDGE('',*,*,#180,.F.);
#137=ORIENTED_EDGE('',*,*,#176,.T.);
#138=ORIENTED_EDGE('',*,*,#199,.F.);
#139=ORIENTED_EDGE('',*,*,#164,.F.);
#140=ORIENTED_EDGE('',*,*,#198,.T.);
#141=ORIENTED_EDGE('',*,*,#175,.T.);
#142=ORIENTED_EDGE('',*,*,#200,.F.);
#143=ORIENTED_EDGE('',*,*,#165,.F.);
#144=ORIENTED_EDGE('',*,*,#199,.T.);
#145=ORIENTED_EDGE('',*,*,#174,.T.);
#146=ORIENTED_EDGE('',*,*,#195,.F.);
#147=ORIENTED_EDGE('',*,*,#166,.F.);
#148=ORIENTED_EDGE('',*,*,#200,.T.);
#149=ORIENTED_EDGE('',*,*,#182,.T.);
#150=ORIENTED_EDGE('',*,*,#197,.F.);
#151=ORIENTED_EDGE('',*,*,#192,.F.);
#152=ORIENTED_EDGE('',*,*,#201,.T.);
#153=ORIENTED_EDGE('',*,*,#184,.T.);
#154=ORIENTED_EDGE('',*,*,#202,.F.);
#155=ORIENTED_EDGE('',*,*,#190,.F.);
#156=ORIENTED_EDGE('',*,*,#196,.T.);
#157=ORIENTED_EDGE('',*,*,#183,.T.);
#158=ORIENTED_EDGE('',*,*,#201,.F.);
#159=ORIENTED_EDGE('',*,*,#191,.F.);
#160=ORIENTED_EDGE('',*,*,#202,.T.);
#161=EDGE_CURVE('',#203,#203,#233,.T.);
#162=EDGE_CURVE('',#204,#204,#234,.T.);
#163=EDGE_CURVE('',#205,#206,#29,.T.);
#164=EDGE_CURVE('',#206,#207,#235,.T.);
#165=EDGE_CURVE('',#207,#208,#30,.T.);
#166=EDGE_CURVE('',#208,#209,#236,.T.);
#167=EDGE_CURVE('',#210,#209,#31,.T.);
#168=EDGE_CURVE('',#210,#205,#32,.T.);
#169=EDGE_CURVE('',#211,#211,#237,.T.);
#170=EDGE_CURVE('',#212,#212,#238,.T.);
#171=EDGE_CURVE('',#213,#214,#33,.T.);
#172=EDGE_CURVE('',#215,#214,#34,.T.);
#173=EDGE_CURVE('',#216,#215,#35,.T.);
#174=EDGE_CURVE('',#217,#216,#239,.T.);
#175=EDGE_CURVE('',#218,#217,#36,.T.);
#176=EDGE_CURVE('',#213,#218,#240,.T.);
#177=EDGE_CURVE('',#214,#219,#241,.T.);
#178=EDGE_CURVE('',#220,#219,#37,.T.);
#179=EDGE_CURVE('',#215,#220,#242,.T.);
#180=EDGE_CURVE('',#221,#221,#243,.T.);
#181=EDGE_CURVE('',#219,#222,#38,.T.);
#182=EDGE_CURVE('',#223,#222,#244,.T.);
#183=EDGE_CURVE('',#224,#223,#39,.T.);
#184=EDGE_CURVE('',#225,#224,#245,.T.);
#185=EDGE_CURVE('',#220,#225,#40,.T.);
#186=EDGE_CURVE('',#226,#226,#246,.T.);
#187=EDGE_CURVE('',#227,#228,#41,.T.);
#188=EDGE_CURVE('',#229,#228,#42,.T.);
#189=EDGE_CURVE('',#230,#229,#43,.T.);
#190=EDGE_CURVE('',#230,#231,#247,.T.);
#191=EDGE_CURVE('',#231,#232,#44,.T.);
#192=EDGE_CURVE('',#232,#227,#248,.T.);
#193=EDGE_CURVE('',#205,#228,#249,.T.);
#194=EDGE_CURVE('',#210,#229,#250,.T.);
#195=EDGE_CURVE('',#209,#216,#45,.T.);
#196=EDGE_CURVE('',#230,#225,#46,.T.);
#197=EDGE_CURVE('',#227,#222,#47,.T.);
#198=EDGE_CURVE('',#206,#213,#48,.T.);
#199=EDGE_CURVE('',#207,#218,#49,.T.);
#200=EDGE_CURVE('',#208,#217,#50,.T.);
#201=EDGE_CURVE('',#232,#223,#51,.T.);
#202=EDGE_CURVE('',#231,#224,#52,.T.);
#203=VERTEX_POINT('',#475);
#204=VERTEX_POINT('',#477);
#205=VERTEX_POINT('',#479);
#206=VERTEX_POINT('',#480);
#207=VERTEX_POINT('',#482);
#208=VERTEX_POINT('',#484);
#209=VERTEX_POINT('',#486);
#210=VERTEX_POINT('',#488);
#211=VERTEX_POINT('',#492);
#212=VERTEX_POINT('',#494);
#213=VERTEX_POINT('',#496);
#214=VERTEX_POINT('',#497);
#215=VERTEX_POINT('',#499);
#216=VERTEX_POINT('',#501);
#217=VERTEX_POINT('',#503);
#218=VERTEX_POINT('',#505);
#219=VERTEX_POINT('',#509);
#220=VERTEX_POINT('',#511);
#221=VERTEX_POINT('',#515);
#222=VERTEX_POINT('',#517);
#223=VERTEX_POINT('',#519);
#224=VERTEX_POINT('',#521);
#225=VERTEX_POINT('',#523);
#226=VERTEX_POINT('',#527);
#227=VERTEX_POINT('',#529);
#228=VERTEX_POINT('',#530);
#229=VERTEX_POINT('',#532);
#230=VERTEX_POINT('',#534);
#231=VERTEX_POINT('',#536);
#232=VERTEX_POINT('',#538);
#233=CIRCLE('',#342,3.25);
#234=CIRCLE('',#343,3.25);
#235=CIRCLE('',#344,2.);
#236=CIRCLE('',#345,2.00000000000001);
#237=CIRCLE('',#347,3.25);
#238=CIRCLE('',#348,3.25);
#239=CIRCLE('',#349,2.00000000000001);
#240=CIRCLE('',#350,2.);
#241=CIRCLE('',#352,4.);
#242=CIRCLE('',#353,4.);
#243=CIRCLE('',#355,11.);
#244=CIRCLE('',#356,2.00000000000002);
#245=CIRCLE('',#357,2.00000000000002);
#246=CIRCLE('',#359,11.);
#247=CIRCLE('',#360,2.00000000000002);
#248=CIRCLE('',#361,2.00000000000002);
#249=CIRCLE('',#363,2.);
#250=CIRCLE('',#364,2.);
#251=EDGE_LOOP('',(#77));
#252=EDGE_LOOP('',(#78));
#253=EDGE_LOOP('',(#79,#80,#81,#82,#83,#84));
#254=EDGE_LOOP('',(#85));
#255=EDGE_LOOP('',(#86));
#256=EDGE_LOOP('',(#87,#88,#89,#90,#91,#92));
#257=EDGE_LOOP('',(#93,#94,#95,#96));
#258=EDGE_LOOP('',(#97));
#259=EDGE_LOOP('',(#98,#99,#100,#101,#102,#103));
#260=EDGE_LOOP('',(#104));
#261=EDGE_LOOP('',(#105,#106,#107,#108,#109,#110));
#262=EDGE_LOOP('',(#111,#112,#113,#114));
#263=EDGE_LOOP('',(#115,#116,#117,#118,#119,#120,#121,#122));
#264=EDGE_LOOP('',(#123,#124,#125,#126,#127,#128,#129,#130));
#265=EDGE_LOOP('',(#131));
#266=EDGE_LOOP('',(#132));
#267=EDGE_LOOP('',(#133));
#268=EDGE_LOOP('',(#134));
#269=EDGE_LOOP('',(#135));
#270=EDGE_LOOP('',(#136));
#271=EDGE_LOOP('',(#137,#138,#139,#140));
#272=EDGE_LOOP('',(#141,#142,#143,#144));
#273=EDGE_LOOP('',(#145,#146,#147,#148));
#274=EDGE_LOOP('',(#149,#150,#151,#152));
#275=EDGE_LOOP('',(#153,#154,#155,#156));
#276=EDGE_LOOP('',(#157,#158,#159,#160));
#277=FACE_BOUND('',#251,.T.);
#278=FACE_BOUND('',#252,.T.);
#279=FACE_BOUND('',#253,.T.);
#280=FACE_BOUND('',#254,.T.);
#281=FACE_BOUND('',#255,.T.);
#282=FACE_BOUND('',#256,.T.);
#283=FACE_BOUND('',#257,.T.);
#284=FACE_BOUND('',#258,.T.);
#285=FACE_BOUND('',#259,.T.);
#286=FACE_BOUND('',#260,.T.);
#287=FACE_BOUND('',#261,.T.);
#288=FACE_BOUND('',#262,.T.);
#289=FACE_BOUND('',#263,.T.);
#290=FACE_BOUND('',#264,.T.);
#291=FACE_BOUND('',#265,.T.);
#292=FACE_BOUND('',#266,.T.);
#293=FACE_BOUND('',#267,.T.);
#294=FACE_BOUND('',#268,.T.);
#295=FACE_BOUND('',#269,.T.);
#296=FACE_BOUND('',#270,.T.);
#297=FACE_BOUND('',#271,.T.);
#298=FACE_BOUND('',#272,.T.);
#299=FACE_BOUND('',#273,.T.);
#300=FACE_BOUND('',#274,.T.);
#301=FACE_BOUND('',#275,.T.);
#302=FACE_BOUND('',#276,.T.);
#303=PLANE('',#341);
#304=PLANE('',#346);
#305=PLANE('',#354);
#306=PLANE('',#358);
#307=PLANE('',#365);
#308=PLANE('',#366);
#309=PLANE('',#371);
#310=PLANE('',#375);
#311=ADVANCED_FACE('',(#277,#278,#279),#303,.F.);
#312=ADVANCED_FACE('',(#280,#281,#282),#304,.F.);
#313=ADVANCED_FACE('',(#283),#20,.T.);
#314=ADVANCED_FACE('',(#284,#285),#305,.F.);
#315=ADVANCED_FACE('',(#286,#287),#306,.F.);
#316=ADVANCED_FACE('',(#288),#21,.F.);
#317=ADVANCED_FACE('',(#289),#307,.T.);
#318=ADVANCED_FACE('',(#290),#308,.F.);
#319=ADVANCED_FACE('',(#291,#292),#22,.F.);
#320=ADVANCED_FACE('',(#293,#294),#23,.F.);
#321=ADVANCED_FACE('',(#295,#296),#24,.F.);
#322=ADVANCED_FACE('',(#297),#25,.T.);
#323=ADVANCED_FACE('',(#298),#309,.F.);
#324=ADVANCED_FACE('',(#299),#26,.T.);
#325=ADVANCED_FACE('',(#300),#27,.T.);
#326=ADVANCED_FACE('',(#301),#28,.T.);
#327=ADVANCED_FACE('',(#302),#310,.F.);
#328=CLOSED_SHELL('',(#311,#312,#313,#314,#315,#316,#317,#318,#319,#320,
#321,#322,#323,#324,#325,#326,#327));
#329=STYLED_ITEM('',(#330),#337);
#330=PRESENTATION_STYLE_ASSIGNMENT((#331));
#331=SURFACE_STYLE_USAGE(.BOTH.,#332);
#332=SURFACE_SIDE_STYLE('',(#333));
#333=SURFACE_STYLE_FILL_AREA(#334);
#334=FILL_AREA_STYLE('',(#335));
#335=FILL_AREA_STYLE_COLOUR('',#336);
#336=COLOUR_RGB('',0.689999997615814,0.689999997615814,0.689999997615814);
#337=MANIFOLD_SOLID_BREP('ST20820',#328);
#338=SHAPE_DEFINITION_REPRESENTATION(#568,#339);
#339=SHAPE_REPRESENTATION('ST20820',(#340),#563);
#340=AXIS2_PLACEMENT_3D('',#472,#376,#377);
#341=AXIS2_PLACEMENT_3D('',#473,#378,#379);
#342=AXIS2_PLACEMENT_3D('',#474,#380,#381);
#343=AXIS2_PLACEMENT_3D('',#476,#382,#383);
#344=AXIS2_PLACEMENT_3D('',#481,#385,#386);
#345=AXIS2_PLACEMENT_3D('',#485,#388,#389);
#346=AXIS2_PLACEMENT_3D('',#490,#392,#393);
#347=AXIS2_PLACEMENT_3D('',#491,#394,#395);
#348=AXIS2_PLACEMENT_3D('',#493,#396,#397);
#349=AXIS2_PLACEMENT_3D('',#502,#401,#402);
#350=AXIS2_PLACEMENT_3D('',#506,#404,#405);
#351=AXIS2_PLACEMENT_3D('',#507,#406,#407);
#352=AXIS2_PLACEMENT_3D('',#508,#408,#409);
#353=AXIS2_PLACEMENT_3D('',#512,#411,#412);
#354=AXIS2_PLACEMENT_3D('',#513,#413,#414);
#355=AXIS2_PLACEMENT_3D('',#514,#415,#416);
#356=AXIS2_PLACEMENT_3D('',#518,#418,#419);
#357=AXIS2_PLACEMENT_3D('',#522,#421,#422);
#358=AXIS2_PLACEMENT_3D('',#525,#424,#425);
#359=AXIS2_PLACEMENT_3D('',#526,#426,#427);
#360=AXIS2_PLACEMENT_3D('',#535,#431,#432);
#361=AXIS2_PLACEMENT_3D('',#539,#434,#435);
#362=AXIS2_PLACEMENT_3D('',#540,#436,#437);
#363=AXIS2_PLACEMENT_3D('',#541,#438,#439);
#364=AXIS2_PLACEMENT_3D('',#542,#440,#441);
#365=AXIS2_PLACEMENT_3D('',#543,#442,#443);
#366=AXIS2_PLACEMENT_3D('',#546,#446,#447);
#367=AXIS2_PLACEMENT_3D('',#549,#450,#451);
#368=AXIS2_PLACEMENT_3D('',#550,#452,#453);
#369=AXIS2_PLACEMENT_3D('',#551,#454,#455);
#370=AXIS2_PLACEMENT_3D('',#552,#456,#457);
#371=AXIS2_PLACEMENT_3D('',#554,#459,#460);
#372=AXIS2_PLACEMENT_3D('',#556,#462,#463);
#373=AXIS2_PLACEMENT_3D('',#557,#464,#465);
#374=AXIS2_PLACEMENT_3D('',#559,#467,#468);
#375=AXIS2_PLACEMENT_3D('',#561,#470,#471);
#376=DIRECTION('',(0.,0.,1.));
#377=DIRECTION('',(1.,0.,0.));
#378=DIRECTION('',(0.,-1.,0.));
#379=DIRECTION('',(0.,0.,-1.));
#380=DIRECTION('',(0.,1.,0.));
#381=DIRECTION('',(1.,0.,0.));
#382=DIRECTION('',(0.,1.,0.));
#383=DIRECTION('',(1.,0.,0.));
#384=DIRECTION('',(0.,0.,1.));
#385=DIRECTION('',(0.,1.,0.));
#386=DIRECTION('',(1.,0.,0.));
#387=DIRECTION('',(1.,0.,0.));
#388=DIRECTION('',(0.,1.,0.));
#389=DIRECTION('',(1.,0.,0.));
#390=DIRECTION('',(0.,0.,1.));
#391=DIRECTION('',(-1.,0.,0.));
#392=DIRECTION('',(0.,1.,0.));
#393=DIRECTION('',(0.,0.,1.));
#394=DIRECTION('',(0.,1.,0.));
#395=DIRECTION('',(1.,0.,0.));
#396=DIRECTION('',(0.,1.,0.));
#397=DIRECTION('',(1.,0.,0.));
#398=DIRECTION('',(0.,0.,-1.));
#399=DIRECTION('',(-1.,0.,0.));
#400=DIRECTION('',(0.,0.,-1.));
#401=DIRECTION('',(0.,1.,0.));
#402=DIRECTION('',(1.,0.,0.));
#403=DIRECTION('',(1.,0.,0.));
#404=DIRECTION('',(0.,1.,0.));
#405=DIRECTION('',(1.,0.,0.));
#406=DIRECTION('',(-1.,0.,0.));
#407=DIRECTION('',(0.,0.,1.));
#408=DIRECTION('',(1.,0.,0.));
#409=DIRECTION('',(0.,0.,-1.));
#410=DIRECTION('',(-1.,0.,0.));
#411=DIRECTION('',(1.,0.,0.));
#412=DIRECTION('',(0.,0.,-1.));
#413=DIRECTION('',(0.,0.,1.));
#414=DIRECTION('',(1.,0.,0.));
#415=DIRECTION('',(0.,0.,1.));
#416=DIRECTION('',(1.,0.,0.));
#417=DIRECTION('',(0.,1.,0.));
#418=DIRECTION('',(0.,0.,1.));
#419=DIRECTION('',(1.,0.,0.));
#420=DIRECTION('',(-1.,0.,0.));
#421=DIRECTION('',(0.,0.,1.));
#422=DIRECTION('',(1.,0.,0.));
#423=DIRECTION('',(0.,1.,0.));
#424=DIRECTION('',(0.,0.,-1.));
#425=DIRECTION('',(-1.,0.,0.));
#426=DIRECTION('',(0.,0.,1.));
#427=DIRECTION('',(1.,0.,0.));
#428=DIRECTION('',(0.,-1.,0.));
#429=DIRECTION('',(-1.,0.,0.));
#430=DIRECTION('',(0.,-1.,0.));
#431=DIRECTION('',(0.,0.,1.));
#432=DIRECTION('',(1.,0.,0.));
#433=DIRECTION('',(-1.,0.,0.));
#434=DIRECTION('',(0.,0.,1.));
#435=DIRECTION('',(1.,0.,0.));
#436=DIRECTION('',(-1.,0.,0.));
#437=DIRECTION('',(0.,0.,1.));
#438=DIRECTION('',(1.,0.,0.));
#439=DIRECTION('',(0.,0.,-1.));
#440=DIRECTION('',(1.,0.,0.));
#441=DIRECTION('',(0.,0.,-1.));
#442=DIRECTION('',(1.,0.,0.));
#443=DIRECTION('',(0.,0.,-1.));
#444=DIRECTION('',(0.,-1.,0.));
#445=DIRECTION('',(0.,0.,-1.));
#446=DIRECTION('',(1.,0.,0.));
#447=DIRECTION('',(0.,0.,-1.));
#448=DIRECTION('',(0.,0.,-1.));
#449=DIRECTION('',(0.,-1.,0.));
#450=DIRECTION('',(0.,-1.,0.));
#451=DIRECTION('',(0.,0.,-1.));
#452=DIRECTION('',(0.,-1.,0.));
#453=DIRECTION('',(0.,0.,-1.));
#454=DIRECTION('',(0.,0.,-1.));
#455=DIRECTION('',(-1.,0.,0.));
#456=DIRECTION('',(0.,-1.,0.));
#457=DIRECTION('',(0.,0.,-1.));
#458=DIRECTION('',(0.,-1.,0.));
#459=DIRECTION('',(0.,0.,-1.));
#460=DIRECTION('',(-1.,0.,0.));
#461=DIRECTION('',(0.,-1.,0.));
#462=DIRECTION('',(0.,-1.,0.));
#463=DIRECTION('',(0.,0.,-1.));
#464=DIRECTION('',(0.,0.,-1.));
#465=DIRECTION('',(-1.,0.,0.));
#466=DIRECTION('',(0.,0.,-1.));
#467=DIRECTION('',(0.,0.,-1.));
#468=DIRECTION('',(-1.,0.,0.));
#469=DIRECTION('',(0.,0.,-1.));
#470=DIRECTION('',(0.,-1.,0.));
#471=DIRECTION('',(0.,0.,-1.));
#472=CARTESIAN_POINT('',(0.,0.,0.));
#473=CARTESIAN_POINT('',(37.5,2.,4.));
#474=CARTESIAN_POINT('',(30.,2.,12.));
#475=CARTESIAN_POINT('',(33.25,2.,12.));
#476=CARTESIAN_POINT('',(-30.,2.,12.));
#477=CARTESIAN_POINT('',(-26.75,2.,12.));
#478=CARTESIAN_POINT('',(-37.5,2.,4.));
#479=CARTESIAN_POINT('',(-37.5,2.,4.));
#480=CARTESIAN_POINT('',(-37.5,2.,18.));
#481=CARTESIAN_POINT('',(-35.5,2.,18.));
#482=CARTESIAN_POINT('',(-35.5,2.,20.));
#483=CARTESIAN_POINT('',(-35.5,2.,20.));
#484=CARTESIAN_POINT('',(35.5,2.,20.));
#485=CARTESIAN_POINT('',(35.5,2.,18.));
#486=CARTESIAN_POINT('',(37.5,2.,18.));
#487=CARTESIAN_POINT('',(37.5,2.,4.));
#488=CARTESIAN_POINT('',(37.5,2.,4.));
#489=CARTESIAN_POINT('',(37.5,2.,4.));
#490=CARTESIAN_POINT('',(37.5,0.,16.));
#491=CARTESIAN_POINT('',(30.,0.,12.));
#492=CARTESIAN_POINT('',(33.25,0.,12.));
#493=CARTESIAN_POINT('',(-30.,0.,12.));
#494=CARTESIAN_POINT('',(-26.75,0.,12.));
#495=CARTESIAN_POINT('',(-37.5,0.,16.));
#496=CARTESIAN_POINT('',(-37.5,0.,18.));
#497=CARTESIAN_POINT('',(-37.5,0.,4.));
#498=CARTESIAN_POINT('',(37.5,0.,4.));
#499=CARTESIAN_POINT('',(37.5,0.,4.));
#500=CARTESIAN_POINT('',(37.5,0.,16.));
#501=CARTESIAN_POINT('',(37.5,0.,18.));
#502=CARTESIAN_POINT('',(35.5,0.,18.));
#503=CARTESIAN_POINT('',(35.5,0.,20.));
#504=CARTESIAN_POINT('',(-35.5,0.,20.));
#505=CARTESIAN_POINT('',(-35.5,0.,20.));
#506=CARTESIAN_POINT('',(-35.5,0.,18.));
#507=CARTESIAN_POINT('',(37.5,4.,4.));
#508=CARTESIAN_POINT('',(-37.5,4.,4.));
#509=CARTESIAN_POINT('',(-37.5,4.,8.67361737988404E-16));
#510=CARTESIAN_POINT('',(37.5,4.,8.67361737988404E-16));
#511=CARTESIAN_POINT('',(37.5,4.,8.67361737988404E-16));
#512=CARTESIAN_POINT('',(37.5,4.,4.));
#513=CARTESIAN_POINT('',(37.5,4.,0.));
#514=CARTESIAN_POINT('',(0.,40.,0.));
#515=CARTESIAN_POINT('',(11.,40.,0.));
#516=CARTESIAN_POINT('',(-37.5,4.,0.));
#517=CARTESIAN_POINT('',(-37.5,55.,0.));
#518=CARTESIAN_POINT('',(-35.5,55.,0.));
#519=CARTESIAN_POINT('',(-35.5,57.,0.));
#520=CARTESIAN_POINT('',(35.5,57.,0.));
#521=CARTESIAN_POINT('',(35.5,57.,0.));
#522=CARTESIAN_POINT('',(35.5,55.,0.));
#523=CARTESIAN_POINT('',(37.5,55.,0.));
#524=CARTESIAN_POINT('',(37.5,4.,0.));
#525=CARTESIAN_POINT('',(37.5,53.,2.));
#526=CARTESIAN_POINT('',(0.,40.,2.));
#527=CARTESIAN_POINT('',(11.,40.,2.));
#528=CARTESIAN_POINT('',(-37.5,53.,2.));
#529=CARTESIAN_POINT('',(-37.5,55.,2.));
#530=CARTESIAN_POINT('',(-37.5,4.,2.));
#531=CARTESIAN_POINT('',(37.5,4.,2.));
#532=CARTESIAN_POINT('',(37.5,4.,2.));
#533=CARTESIAN_POINT('',(37.5,53.,2.));
#534=CARTESIAN_POINT('',(37.5,55.,2.));
#535=CARTESIAN_POINT('',(35.5,55.,2.));
#536=CARTESIAN_POINT('',(35.5,57.,2.));
#537=CARTESIAN_POINT('',(35.5,57.,2.));
#538=CARTESIAN_POINT('',(-35.5,57.,2.));
#539=CARTESIAN_POINT('',(-35.5,55.,2.));
#540=CARTESIAN_POINT('',(37.5,4.,4.));
#541=CARTESIAN_POINT('',(-37.5,4.,4.));
#542=CARTESIAN_POINT('',(37.5,4.,4.));
#543=CARTESIAN_POINT('',(37.5,4.,4.));
#544=CARTESIAN_POINT('',(37.5,2.,18.));
#545=CARTESIAN_POINT('',(37.5,55.,2.));
#546=CARTESIAN_POINT('',(-37.5,4.,4.));
#547=CARTESIAN_POINT('',(-37.5,55.,2.));
#548=CARTESIAN_POINT('',(-37.5,2.,18.));
#549=CARTESIAN_POINT('',(-30.,2.,12.));
#550=CARTESIAN_POINT('',(30.,2.,12.));
#551=CARTESIAN_POINT('',(0.,40.,2.));
#552=CARTESIAN_POINT('',(-35.5,2.,18.));
#553=CARTESIAN_POINT('',(-35.5,2.,20.));
#554=CARTESIAN_POINT('',(-35.5,2.,20.));
#555=CARTESIAN_POINT('',(35.5,2.,20.));
#556=CARTESIAN_POINT('',(35.5,2.,18.));
#557=CARTESIAN_POINT('',(-35.5,55.,2.));
#558=CARTESIAN_POINT('',(-35.5,57.,2.));
#559=CARTESIAN_POINT('',(35.5,55.,2.));
#560=CARTESIAN_POINT('',(35.5,57.,2.));
#561=CARTESIAN_POINT('',(35.5,57.,2.));
#562=MECHANICAL_DESIGN_GEOMETRIC_PRESENTATION_REPRESENTATION('',(#329),
#563);
#563=(
GEOMETRIC_REPRESENTATION_CONTEXT(3)
GLOBAL_UNCERTAINTY_ASSIGNED_CONTEXT((#564))
GLOBAL_UNIT_ASSIGNED_CONTEXT((#567,#566,#565))
REPRESENTATION_CONTEXT('ST20820','TOP_LEVEL_ASSEMBLY_PART')
);
#564=UNCERTAINTY_MEASURE_WITH_UNIT(LENGTH_MEASURE(1.E-5),#567,
'DISTANCE_ACCURACY_VALUE','Maximum Tolerance applied to model');
#565=(
NAMED_UNIT(*)
SI_UNIT($,.STERADIAN.)
SOLID_ANGLE_UNIT()
);
#566=(
NAMED_UNIT(*)
PLANE_ANGLE_UNIT()
SI_UNIT($,.RADIAN.)
);
#567=(
LENGTH_UNIT()
NAMED_UNIT(*)
SI_UNIT(.MILLI.,.METRE.)
);
#568=PRODUCT_DEFINITION_SHAPE('','',#569);
#569=PRODUCT_DEFINITION('','',#571,#570);
#570=PRODUCT_DEFINITION_CONTEXT('',#577,'design');
#571=PRODUCT_DEFINITION_FORMATION_WITH_SPECIFIED_SOURCE('','',#573,
 .NOT_KNOWN.);
#572=PRODUCT_RELATED_PRODUCT_CATEGORY('','',(#573));
#573=PRODUCT('ST20820','ST20820','ST20820',(#575));
#574=PRODUCT_CATEGORY('','');
#575=PRODUCT_CONTEXT('',#577,'mechanical');
#576=APPLICATION_PROTOCOL_DEFINITION('international standard',
'automotive_design',2010,#577);
#577=APPLICATION_CONTEXT(
'core data for automotive mechanical design processes');
ENDSEC;
END-ISO-10303-21;
