ISO-10303-21;
HEADER;
/* Generated by software containing ST-Developer
 * from STEP Tools, Inc. (www.steptools.com) 
 */
/* OPTION: using custom renumber hook */

FILE_DESCRIPTION(
/* description */ ('STEP AP203'),
/* implementation_level */ '2;1');

FILE_NAME(
/* name */ 'Flange (MF8) AR415708(00S)',
/* time_stamp */ '2026-05-18T00:43:13+02:00',
/* author */ ('License CC BY-ND 4.0'),
/* organization */ ('CADENAS'),
/* preprocessor_version */ 'ST-DEVELOPER v20',
/* originating_system */ 'PARTsolutions',
/* authorisation */ '  ');

FILE_SCHEMA (('CONFIG_CONTROL_DESIGN'));
ENDSEC;

DATA;
#10=PROPERTY_DEFINITION_REPRESENTATION(#14,#12);
#11=PROPERTY_DEFINITION_REPRESENTATION(#15,#13);
#12=REPRESENTATION('',(#16),#418);
#13=REPRESENTATION('',(#17),#418);
#14=PROPERTY_DEFINITION('pmi validation property','',#423);
#15=PROPERTY_DEFINITION('pmi validation property','',#423);
#16=VALUE_REPRESENTATION_ITEM('number of annotations',COUNT_MEASURE(0.));
#17=VALUE_REPRESENTATION_ITEM('number of views',COUNT_MEASURE(0.));
#18=SHAPE_REPRESENTATION_RELATIONSHIP('','',#251,#19);
#19=ADVANCED_BREP_SHAPE_REPRESENTATION('',(#249),#418);
#20=CIRCLE('',#255,11.);
#21=CIRCLE('',#256,11.);
#22=CIRCLE('',#259,5.);
#23=CIRCLE('',#260,5.);
#24=CIRCLE('',#263,11.);
#25=CIRCLE('',#264,11.);
#26=CIRCLE('',#267,2.25);
#27=CIRCLE('',#268,2.25);
#28=CIRCLE('',#270,2.25);
#29=CIRCLE('',#271,2.25);
#30=CIRCLE('',#273,6.);
#31=CIRCLE('',#274,6.);
#32=CIRCLE('',#276,5.);
#33=CIRCLE('',#277,5.);
#34=CYLINDRICAL_SURFACE('',#254,11.);
#35=CYLINDRICAL_SURFACE('',#258,5.);
#36=CYLINDRICAL_SURFACE('',#262,11.);
#37=CYLINDRICAL_SURFACE('',#266,2.25);
#38=CYLINDRICAL_SURFACE('',#269,2.25);
#39=CYLINDRICAL_SURFACE('',#272,6.);
#40=CYLINDRICAL_SURFACE('',#275,5.);
#41=ORIENTED_EDGE('',*,*,#101,.T.);
#42=ORIENTED_EDGE('',*,*,#102,.F.);
#43=ORIENTED_EDGE('',*,*,#103,.F.);
#44=ORIENTED_EDGE('',*,*,#104,.T.);
#45=ORIENTED_EDGE('',*,*,#105,.T.);
#46=ORIENTED_EDGE('',*,*,#106,.F.);
#47=ORIENTED_EDGE('',*,*,#107,.F.);
#48=ORIENTED_EDGE('',*,*,#102,.T.);
#49=ORIENTED_EDGE('',*,*,#108,.T.);
#50=ORIENTED_EDGE('',*,*,#109,.F.);
#51=ORIENTED_EDGE('',*,*,#110,.F.);
#52=ORIENTED_EDGE('',*,*,#106,.T.);
#53=ORIENTED_EDGE('',*,*,#111,.T.);
#54=ORIENTED_EDGE('',*,*,#112,.F.);
#55=ORIENTED_EDGE('',*,*,#113,.F.);
#56=ORIENTED_EDGE('',*,*,#109,.T.);
#57=ORIENTED_EDGE('',*,*,#114,.T.);
#58=ORIENTED_EDGE('',*,*,#115,.F.);
#59=ORIENTED_EDGE('',*,*,#116,.F.);
#60=ORIENTED_EDGE('',*,*,#112,.T.);
#61=ORIENTED_EDGE('',*,*,#117,.T.);
#62=ORIENTED_EDGE('',*,*,#118,.F.);
#63=ORIENTED_EDGE('',*,*,#119,.F.);
#64=ORIENTED_EDGE('',*,*,#115,.T.);
#65=ORIENTED_EDGE('',*,*,#120,.T.);
#66=ORIENTED_EDGE('',*,*,#121,.F.);
#67=ORIENTED_EDGE('',*,*,#122,.F.);
#68=ORIENTED_EDGE('',*,*,#118,.T.);
#69=ORIENTED_EDGE('',*,*,#123,.T.);
#70=ORIENTED_EDGE('',*,*,#124,.F.);
#71=ORIENTED_EDGE('',*,*,#125,.T.);
#72=ORIENTED_EDGE('',*,*,#126,.F.);
#73=ORIENTED_EDGE('',*,*,#127,.T.);
#74=ORIENTED_EDGE('',*,*,#128,.F.);
#75=ORIENTED_EDGE('',*,*,#129,.T.);
#76=ORIENTED_EDGE('',*,*,#104,.F.);
#77=ORIENTED_EDGE('',*,*,#130,.F.);
#78=ORIENTED_EDGE('',*,*,#121,.T.);
#79=ORIENTED_EDGE('',*,*,#127,.F.);
#80=ORIENTED_EDGE('',*,*,#125,.F.);
#81=ORIENTED_EDGE('',*,*,#123,.F.);
#82=ORIENTED_EDGE('',*,*,#103,.T.);
#83=ORIENTED_EDGE('',*,*,#107,.T.);
#84=ORIENTED_EDGE('',*,*,#110,.T.);
#85=ORIENTED_EDGE('',*,*,#113,.T.);
#86=ORIENTED_EDGE('',*,*,#116,.T.);
#87=ORIENTED_EDGE('',*,*,#119,.T.);
#88=ORIENTED_EDGE('',*,*,#122,.T.);
#89=ORIENTED_EDGE('',*,*,#130,.T.);
#90=ORIENTED_EDGE('',*,*,#128,.T.);
#91=ORIENTED_EDGE('',*,*,#126,.T.);
#92=ORIENTED_EDGE('',*,*,#124,.T.);
#93=ORIENTED_EDGE('',*,*,#101,.F.);
#94=ORIENTED_EDGE('',*,*,#129,.F.);
#95=ORIENTED_EDGE('',*,*,#120,.F.);
#96=ORIENTED_EDGE('',*,*,#117,.F.);
#97=ORIENTED_EDGE('',*,*,#114,.F.);
#98=ORIENTED_EDGE('',*,*,#111,.F.);
#99=ORIENTED_EDGE('',*,*,#108,.F.);
#100=ORIENTED_EDGE('',*,*,#105,.F.);
#101=EDGE_CURVE('',#131,#132,#153,.T.);
#102=EDGE_CURVE('',#133,#132,#154,.T.);
#103=EDGE_CURVE('',#134,#133,#155,.T.);
#104=EDGE_CURVE('',#134,#131,#156,.T.);
#105=EDGE_CURVE('',#132,#135,#20,.T.);
#106=EDGE_CURVE('',#136,#135,#157,.T.);
#107=EDGE_CURVE('',#133,#136,#21,.T.);
#108=EDGE_CURVE('',#135,#137,#158,.T.);
#109=EDGE_CURVE('',#138,#137,#159,.T.);
#110=EDGE_CURVE('',#136,#138,#160,.T.);
#111=EDGE_CURVE('',#137,#139,#22,.T.);
#112=EDGE_CURVE('',#140,#139,#161,.T.);
#113=EDGE_CURVE('',#138,#140,#23,.T.);
#114=EDGE_CURVE('',#139,#141,#162,.T.);
#115=EDGE_CURVE('',#142,#141,#163,.T.);
#116=EDGE_CURVE('',#140,#142,#164,.T.);
#117=EDGE_CURVE('',#141,#143,#24,.T.);
#118=EDGE_CURVE('',#144,#143,#165,.T.);
#119=EDGE_CURVE('',#142,#144,#25,.T.);
#120=EDGE_CURVE('',#143,#145,#166,.T.);
#121=EDGE_CURVE('',#146,#145,#167,.T.);
#122=EDGE_CURVE('',#144,#146,#168,.T.);
#123=EDGE_CURVE('',#147,#147,#26,.T.);
#124=EDGE_CURVE('',#148,#148,#27,.T.);
#125=EDGE_CURVE('',#149,#149,#28,.T.);
#126=EDGE_CURVE('',#150,#150,#29,.T.);
#127=EDGE_CURVE('',#151,#151,#30,.T.);
#128=EDGE_CURVE('',#152,#152,#31,.T.);
#129=EDGE_CURVE('',#145,#131,#32,.T.);
#130=EDGE_CURVE('',#146,#134,#33,.T.);
#131=VERTEX_POINT('',#355);
#132=VERTEX_POINT('',#356);
#133=VERTEX_POINT('',#358);
#134=VERTEX_POINT('',#360);
#135=VERTEX_POINT('',#364);
#136=VERTEX_POINT('',#366);
#137=VERTEX_POINT('',#370);
#138=VERTEX_POINT('',#372);
#139=VERTEX_POINT('',#376);
#140=VERTEX_POINT('',#378);
#141=VERTEX_POINT('',#382);
#142=VERTEX_POINT('',#384);
#143=VERTEX_POINT('',#388);
#144=VERTEX_POINT('',#390);
#145=VERTEX_POINT('',#394);
#146=VERTEX_POINT('',#396);
#147=VERTEX_POINT('',#400);
#148=VERTEX_POINT('',#402);
#149=VERTEX_POINT('',#405);
#150=VERTEX_POINT('',#407);
#151=VERTEX_POINT('',#410);
#152=VERTEX_POINT('',#412);
#153=LINE('',#354,#169);
#154=LINE('',#357,#170);
#155=LINE('',#359,#171);
#156=LINE('',#361,#172);
#157=LINE('',#365,#173);
#158=LINE('',#369,#174);
#159=LINE('',#371,#175);
#160=LINE('',#373,#176);
#161=LINE('',#377,#177);
#162=LINE('',#381,#178);
#163=LINE('',#383,#179);
#164=LINE('',#385,#180);
#165=LINE('',#389,#181);
#166=LINE('',#393,#182);
#167=LINE('',#395,#183);
#168=LINE('',#397,#184);
#169=VECTOR('',#284,1000.);
#170=VECTOR('',#285,1000.);
#171=VECTOR('',#286,1000.);
#172=VECTOR('',#287,1000.);
#173=VECTOR('',#292,1000.);
#174=VECTOR('',#297,1000.);
#175=VECTOR('',#298,1000.);
#176=VECTOR('',#299,1000.);
#177=VECTOR('',#304,1000.);
#178=VECTOR('',#309,1000.);
#179=VECTOR('',#310,1000.);
#180=VECTOR('',#311,1000.);
#181=VECTOR('',#316,1000.);
#182=VECTOR('',#321,1000.);
#183=VECTOR('',#322,1000.);
#184=VECTOR('',#323,1000.);
#185=EDGE_LOOP('',(#41,#42,#43,#44));
#186=EDGE_LOOP('',(#45,#46,#47,#48));
#187=EDGE_LOOP('',(#49,#50,#51,#52));
#188=EDGE_LOOP('',(#53,#54,#55,#56));
#189=EDGE_LOOP('',(#57,#58,#59,#60));
#190=EDGE_LOOP('',(#61,#62,#63,#64));
#191=EDGE_LOOP('',(#65,#66,#67,#68));
#192=EDGE_LOOP('',(#69));
#193=EDGE_LOOP('',(#70));
#194=EDGE_LOOP('',(#71));
#195=EDGE_LOOP('',(#72));
#196=EDGE_LOOP('',(#73));
#197=EDGE_LOOP('',(#74));
#198=EDGE_LOOP('',(#75,#76,#77,#78));
#199=EDGE_LOOP('',(#79));
#200=EDGE_LOOP('',(#80));
#201=EDGE_LOOP('',(#81));
#202=EDGE_LOOP('',(#82,#83,#84,#85,#86,#87,#88,#89));
#203=EDGE_LOOP('',(#90));
#204=EDGE_LOOP('',(#91));
#205=EDGE_LOOP('',(#92));
#206=EDGE_LOOP('',(#93,#94,#95,#96,#97,#98,#99,#100));
#207=FACE_BOUND('',#185,.T.);
#208=FACE_BOUND('',#186,.T.);
#209=FACE_BOUND('',#187,.T.);
#210=FACE_BOUND('',#188,.T.);
#211=FACE_BOUND('',#189,.T.);
#212=FACE_BOUND('',#190,.T.);
#213=FACE_BOUND('',#191,.T.);
#214=FACE_BOUND('',#192,.T.);
#215=FACE_BOUND('',#193,.T.);
#216=FACE_BOUND('',#194,.T.);
#217=FACE_BOUND('',#195,.T.);
#218=FACE_BOUND('',#196,.T.);
#219=FACE_BOUND('',#197,.T.);
#220=FACE_BOUND('',#198,.T.);
#221=FACE_BOUND('',#199,.T.);
#222=FACE_BOUND('',#200,.T.);
#223=FACE_BOUND('',#201,.T.);
#224=FACE_BOUND('',#202,.T.);
#225=FACE_BOUND('',#203,.T.);
#226=FACE_BOUND('',#204,.T.);
#227=FACE_BOUND('',#205,.T.);
#228=FACE_BOUND('',#206,.T.);
#229=PLANE('',#253);
#230=PLANE('',#257);
#231=PLANE('',#261);
#232=PLANE('',#265);
#233=PLANE('',#278);
#234=PLANE('',#279);
#235=ADVANCED_FACE('',(#207),#229,.F.);
#236=ADVANCED_FACE('',(#208),#34,.T.);
#237=ADVANCED_FACE('',(#209),#230,.F.);
#238=ADVANCED_FACE('',(#210),#35,.T.);
#239=ADVANCED_FACE('',(#211),#231,.F.);
#240=ADVANCED_FACE('',(#212),#36,.T.);
#241=ADVANCED_FACE('',(#213),#232,.F.);
#242=ADVANCED_FACE('',(#214,#215),#37,.F.);
#243=ADVANCED_FACE('',(#216,#217),#38,.F.);
#244=ADVANCED_FACE('',(#218,#219),#39,.F.);
#245=ADVANCED_FACE('',(#220),#40,.T.);
#246=ADVANCED_FACE('',(#221,#222,#223,#224),#233,.T.);
#247=ADVANCED_FACE('',(#225,#226,#227,#228),#234,.F.);
#248=CLOSED_SHELL('',(#235,#236,#237,#238,#239,#240,#241,#242,#243,#244,
#245,#246,#247));
#249=MANIFOLD_SOLID_BREP('Flange (MF8) AR415708(00S)',#248);
#250=SHAPE_DEFINITION_REPRESENTATION(#423,#251);
#251=SHAPE_REPRESENTATION('Flange (MF8) AR415708(00S)',(#252),#418);
#252=AXIS2_PLACEMENT_3D('',#352,#280,#281);
#253=AXIS2_PLACEMENT_3D('',#353,#282,#283);
#254=AXIS2_PLACEMENT_3D('',#362,#288,#289);
#255=AXIS2_PLACEMENT_3D('',#363,#290,#291);
#256=AXIS2_PLACEMENT_3D('',#367,#293,#294);
#257=AXIS2_PLACEMENT_3D('',#368,#295,#296);
#258=AXIS2_PLACEMENT_3D('',#374,#300,#301);
#259=AXIS2_PLACEMENT_3D('',#375,#302,#303);
#260=AXIS2_PLACEMENT_3D('',#379,#305,#306);
#261=AXIS2_PLACEMENT_3D('',#380,#307,#308);
#262=AXIS2_PLACEMENT_3D('',#386,#312,#313);
#263=AXIS2_PLACEMENT_3D('',#387,#314,#315);
#264=AXIS2_PLACEMENT_3D('',#391,#317,#318);
#265=AXIS2_PLACEMENT_3D('',#392,#319,#320);
#266=AXIS2_PLACEMENT_3D('',#398,#324,#325);
#267=AXIS2_PLACEMENT_3D('',#399,#326,#327);
#268=AXIS2_PLACEMENT_3D('',#401,#328,#329);
#269=AXIS2_PLACEMENT_3D('',#403,#330,#331);
#270=AXIS2_PLACEMENT_3D('',#404,#332,#333);
#271=AXIS2_PLACEMENT_3D('',#406,#334,#335);
#272=AXIS2_PLACEMENT_3D('',#408,#336,#337);
#273=AXIS2_PLACEMENT_3D('',#409,#338,#339);
#274=AXIS2_PLACEMENT_3D('',#411,#340,#341);
#275=AXIS2_PLACEMENT_3D('',#413,#342,#343);
#276=AXIS2_PLACEMENT_3D('',#414,#344,#345);
#277=AXIS2_PLACEMENT_3D('',#415,#346,#347);
#278=AXIS2_PLACEMENT_3D('',#416,#348,#349);
#279=AXIS2_PLACEMENT_3D('',#417,#350,#351);
#280=DIRECTION('',(0.,0.,1.));
#281=DIRECTION('',(1.,0.,0.));
#282=DIRECTION('',(0.,-0.4,-0.916515138991168));
#283=DIRECTION('',(0.,0.916515138991168,-0.4));
#284=DIRECTION('',(0.,-0.916515138991168,0.4));
#285=DIRECTION('',(-1.,0.,0.));
#286=DIRECTION('',(0.,-0.916515138991168,0.4));
#287=DIRECTION('',(-1.,0.,0.));
#288=DIRECTION('',(-1.,0.,0.));
#289=DIRECTION('',(0.,0.,1.));
#290=DIRECTION('',(1.,0.,0.));
#291=DIRECTION('',(0.,0.,-1.));
#292=DIRECTION('',(-1.,0.,0.));
#293=DIRECTION('',(1.,0.,0.));
#294=DIRECTION('',(0.,0.,-1.));
#295=DIRECTION('',(0.,0.400000000000001,-0.916515138991168));
#296=DIRECTION('',(0.,0.916515138991168,0.400000000000001));
#297=DIRECTION('',(0.,-0.916515138991168,-0.400000000000001));
#298=DIRECTION('',(-1.,0.,0.));
#299=DIRECTION('',(0.,-0.916515138991168,-0.400000000000001));
#300=DIRECTION('',(-1.,0.,0.));
#301=DIRECTION('',(0.,0.,1.));
#302=DIRECTION('',(1.,0.,0.));
#303=DIRECTION('',(0.,0.,-1.));
#304=DIRECTION('',(-1.,0.,0.));
#305=DIRECTION('',(1.,0.,0.));
#306=DIRECTION('',(0.,0.,-1.));
#307=DIRECTION('',(0.,0.400000000000002,0.916515138991167));
#308=DIRECTION('',(0.,-0.916515138991167,0.400000000000002));
#309=DIRECTION('',(0.,0.916515138991167,-0.400000000000002));
#310=DIRECTION('',(-1.,0.,0.));
#311=DIRECTION('',(0.,0.916515138991167,-0.400000000000002));
#312=DIRECTION('',(-1.,0.,0.));
#313=DIRECTION('',(0.,0.,1.));
#314=DIRECTION('',(1.,0.,0.));
#315=DIRECTION('',(0.,0.,-1.));
#316=DIRECTION('',(-1.,0.,0.));
#317=DIRECTION('',(1.,0.,0.));
#318=DIRECTION('',(0.,0.,-1.));
#319=DIRECTION('',(0.,-0.4,0.916515138991168));
#320=DIRECTION('',(0.,-0.916515138991168,-0.4));
#321=DIRECTION('',(0.,0.916515138991168,0.4));
#322=DIRECTION('',(-1.,0.,0.));
#323=DIRECTION('',(0.,0.916515138991168,0.4));
#324=DIRECTION('',(-1.,0.,0.));
#325=DIRECTION('',(0.,0.,1.));
#326=DIRECTION('',(1.,0.,0.));
#327=DIRECTION('',(0.,0.,-1.));
#328=DIRECTION('',(1.,0.,0.));
#329=DIRECTION('',(0.,0.,-1.));
#330=DIRECTION('',(-1.,0.,0.));
#331=DIRECTION('',(0.,0.,1.));
#332=DIRECTION('',(1.,0.,0.));
#333=DIRECTION('',(0.,0.,-1.));
#334=DIRECTION('',(1.,0.,0.));
#335=DIRECTION('',(0.,0.,-1.));
#336=DIRECTION('',(-1.,0.,0.));
#337=DIRECTION('',(0.,0.,1.));
#338=DIRECTION('',(1.,0.,0.));
#339=DIRECTION('',(0.,0.,-1.));
#340=DIRECTION('',(1.,0.,0.));
#341=DIRECTION('',(0.,0.,-1.));
#342=DIRECTION('',(-1.,0.,0.));
#343=DIRECTION('',(0.,0.,1.));
#344=DIRECTION('',(1.,0.,0.));
#345=DIRECTION('',(0.,0.,-1.));
#346=DIRECTION('',(1.,0.,0.));
#347=DIRECTION('',(0.,0.,-1.));
#348=DIRECTION('',(1.,0.,0.));
#349=DIRECTION('',(0.,0.,-1.));
#350=DIRECTION('',(1.,0.,0.));
#351=DIRECTION('',(0.,0.,-1.));
#352=CARTESIAN_POINT('',(0.,0.,0.));
#353=CARTESIAN_POINT('',(3.,17.,4.58257569495584));
#354=CARTESIAN_POINT('',(0.,17.,4.58257569495584));
#355=CARTESIAN_POINT('',(0.,17.,4.58257569495584));
#356=CARTESIAN_POINT('',(0.,4.4,10.0816665289029));
#357=CARTESIAN_POINT('',(3.,4.4,10.0816665289029));
#358=CARTESIAN_POINT('',(3.,4.4,10.0816665289029));
#359=CARTESIAN_POINT('',(3.,17.,4.58257569495584));
#360=CARTESIAN_POINT('',(3.,17.,4.58257569495584));
#361=CARTESIAN_POINT('',(3.,17.,4.58257569495584));
#362=CARTESIAN_POINT('',(3.,-3.46944695195361E-15,-1.73472347597681E-15));
#363=CARTESIAN_POINT('',(0.,-3.46944695195361E-15,-1.73472347597681E-15));
#364=CARTESIAN_POINT('',(0.,-4.40000000000001,10.0816665289029));
#365=CARTESIAN_POINT('',(3.,-4.40000000000001,10.0816665289029));
#366=CARTESIAN_POINT('',(3.,-4.40000000000001,10.0816665289029));
#367=CARTESIAN_POINT('',(3.,-3.46944695195361E-15,-1.73472347597681E-15));
#368=CARTESIAN_POINT('',(3.,-4.40000000000001,10.0816665289028));
#369=CARTESIAN_POINT('',(0.,-4.40000000000001,10.0816665289028));
#370=CARTESIAN_POINT('',(0.,-17.,4.58257569495583));
#371=CARTESIAN_POINT('',(3.,-17.,4.58257569495583));
#372=CARTESIAN_POINT('',(3.,-17.,4.58257569495583));
#373=CARTESIAN_POINT('',(3.,-4.40000000000001,10.0816665289028));
#374=CARTESIAN_POINT('',(3.,-15.,1.30104260698261E-15));
#375=CARTESIAN_POINT('',(0.,-15.,1.30104260698261E-15));
#376=CARTESIAN_POINT('',(0.,-17.,-4.58257569495583));
#377=CARTESIAN_POINT('',(3.,-17.,-4.58257569495583));
#378=CARTESIAN_POINT('',(3.,-17.,-4.58257569495583));
#379=CARTESIAN_POINT('',(3.,-15.,1.30104260698261E-15));
#380=CARTESIAN_POINT('',(3.,-17.,-4.58257569495583));
#381=CARTESIAN_POINT('',(0.,-17.,-4.58257569495583));
#382=CARTESIAN_POINT('',(0.,-4.40000000000003,-10.0816665289029));
#383=CARTESIAN_POINT('',(3.,-4.40000000000003,-10.0816665289029));
#384=CARTESIAN_POINT('',(3.,-4.40000000000003,-10.0816665289029));
#385=CARTESIAN_POINT('',(3.,-17.,-4.58257569495583));
#386=CARTESIAN_POINT('',(3.,-2.16840434497101E-14,-1.56125112837913E-14));
#387=CARTESIAN_POINT('',(0.,-2.16840434497101E-14,-1.56125112837913E-14));
#388=CARTESIAN_POINT('',(0.,4.39999999999999,-10.0816665289029));
#389=CARTESIAN_POINT('',(3.,4.39999999999999,-10.0816665289029));
#390=CARTESIAN_POINT('',(3.,4.39999999999999,-10.0816665289029));
#391=CARTESIAN_POINT('',(3.,-2.16840434497101E-14,-1.56125112837913E-14));
#392=CARTESIAN_POINT('',(3.,4.4,-10.0816665289029));
#393=CARTESIAN_POINT('',(0.,4.4,-10.0816665289029));
#394=CARTESIAN_POINT('',(0.,17.,-4.58257569495584));
#395=CARTESIAN_POINT('',(3.,17.,-4.58257569495584));
#396=CARTESIAN_POINT('',(3.,17.,-4.58257569495584));
#397=CARTESIAN_POINT('',(3.,4.4,-10.0816665289029));
#398=CARTESIAN_POINT('',(3.,15.,0.));
#399=CARTESIAN_POINT('',(3.,15.,0.));
#400=CARTESIAN_POINT('',(3.,15.,-2.25));
#401=CARTESIAN_POINT('',(0.,15.,0.));
#402=CARTESIAN_POINT('',(0.,15.,-2.25));
#403=CARTESIAN_POINT('',(3.,-15.,0.));
#404=CARTESIAN_POINT('',(3.,-15.,0.));
#405=CARTESIAN_POINT('',(3.,-15.,-2.25));
#406=CARTESIAN_POINT('',(0.,-15.,0.));
#407=CARTESIAN_POINT('',(0.,-15.,-2.25));
#408=CARTESIAN_POINT('',(3.,0.,0.));
#409=CARTESIAN_POINT('',(3.,0.,0.));
#410=CARTESIAN_POINT('',(3.,0.,-6.));
#411=CARTESIAN_POINT('',(0.,0.,0.));
#412=CARTESIAN_POINT('',(0.,0.,-6.));
#413=CARTESIAN_POINT('',(3.,15.,0.));
#414=CARTESIAN_POINT('',(0.,15.,0.));
#415=CARTESIAN_POINT('',(3.,15.,0.));
#416=CARTESIAN_POINT('',(3.,-3.46944695195361E-15,-1.73472347597681E-15));
#417=CARTESIAN_POINT('',(0.,-3.46944695195361E-15,-1.73472347597681E-15));
#418=(
GEOMETRIC_REPRESENTATION_CONTEXT(3)
GLOBAL_UNCERTAINTY_ASSIGNED_CONTEXT((#419))
GLOBAL_UNIT_ASSIGNED_CONTEXT((#422,#421,#420))
REPRESENTATION_CONTEXT('Flange (MF8) AR415708(00S)',
'TOP_LEVEL_ASSEMBLY_PART')
);
#419=UNCERTAINTY_MEASURE_WITH_UNIT(LENGTH_MEASURE(1.E-5),#422,
'DISTANCE_ACCURACY_VALUE','Maximum Tolerance applied to model');
#420=(
NAMED_UNIT(*)
SI_UNIT($,.STERADIAN.)
SOLID_ANGLE_UNIT()
);
#421=(
NAMED_UNIT(*)
PLANE_ANGLE_UNIT()
SI_UNIT($,.RADIAN.)
);
#422=(
LENGTH_UNIT()
NAMED_UNIT(*)
SI_UNIT(.MILLI.,.METRE.)
);
#423=PRODUCT_DEFINITION_SHAPE('','',#424);
#424=PRODUCT_DEFINITION('','',#426,#425);
#425=DESIGN_CONTEXT('',#432,'design');
#426=PRODUCT_DEFINITION_FORMATION_WITH_SPECIFIED_SOURCE('','',#428,
 .NOT_KNOWN.);
#427=PRODUCT_RELATED_PRODUCT_CATEGORY('','',(#428));
#428=PRODUCT('Flange (MF8) AR415708(00S)','Flange (MF8) AR415708(00S)',
'Flange (MF8) AR415708(00S)',(#430));
#429=PRODUCT_CATEGORY('','');
#430=MECHANICAL_CONTEXT('',#432,'mechanical');
#431=APPLICATION_PROTOCOL_DEFINITION('international standard',
'config_control_design',2010,#432);
#432=APPLICATION_CONTEXT(
'configuration controlled 3D designs of mechanical parts and assemblie
s');
ENDSEC;
END-ISO-10303-21;
